<?xml version="1.0" standalone="no"?>
<!DOCTYPE svg PUBLIC "-//W3C//DTD SVG 1.1//EN" "http://www.w3.org/Graphics/SVG/1.1/DTD/svg11.dtd" >
<svg xmlns="http://www.w3.org/2000/svg" xmlns:xlink="http://www.w3.org/1999/xlink" version="1.1">
<metadata>
Created by FontForge 20170731 at Sat Sep 26 00:52:23 2020
 By Aleksey,,,
2006 Dziedzic Lukasz published by FSI Fonts und Software GmbH
</metadata>
<defs>
<font id="ClanOT-Black" horiz-adv-x="837" >
  <font-face 
    font-family="ClanOT-Black"
    font-weight="900"
    font-stretch="normal"
    units-per-em="2048"
    panose-1="2 0 5 3 4 0 0 2 0 4"
    ascent="1612"
    descent="-436"
    x-height="1253"
    cap-height="1536"
    bbox="-268 -494 2212 1974"
    underline-thickness="79"
    underline-position="-244"
    unicode-range="U+000D-FB02"
  />
<missing-glyph horiz-adv-x="1298" 
d="M102 0v1536h1094v-1536h-1094zM328 225h643v1086h-643v-1086z" />
    <glyph glyph-name="fi" unicode="fi" horiz-adv-x="1474" 
d="M565 971v-971h-393v971h-141v282h139v50q0 68 27 127.5t79 106.5t138.5 74t197.5 27q108 0 191 -22l-10 -248q-58 8 -95 8q-72 0 -102.5 -21t-30.5 -61v-41h774v-1253h-401v971h-373zM1356 1499q0 -76 -51 -113.5t-162 -37.5q-112 0 -163.5 34.5t-51.5 116.5
q0 154 215 154q213 0 213 -154z" />
    <glyph glyph-name="fl" unicode="fl" horiz-adv-x="1402" 
d="M1286 0h-397v1372q-93 14 -150 14q-99 0 -136.5 -26.5t-37.5 -81.5v-25h166v-282h-166v-971h-393v971h-141v282h139v39q0 58 17 107t58 94.5t105 77t164 50.5t229 19q104 0 277 -18.5t266 -22.5v-1599z" />
    <glyph glyph-name=".notdef" horiz-adv-x="1298" 
d="M102 0v1536h1094v-1536h-1094zM328 225h643v1086h-643v-1086z" />
    <glyph glyph-name=".null" horiz-adv-x="0" 
 />
    <glyph glyph-name=".null" horiz-adv-x="0" 
 />
    <glyph glyph-name="nonmarkingreturn" horiz-adv-x="682" 
 />
    <glyph glyph-name="CR" unicode="&#xd;" horiz-adv-x="501" 
 />
    <glyph glyph-name="space" unicode=" " horiz-adv-x="501" 
 />
    <glyph glyph-name="exclam" unicode="!" horiz-adv-x="620" 
d="M467 465h-311l-60 1071h428zM530 158q0 -183 -213 -183q-110 0 -160.5 43t-50.5 140q0 184 211 184q213 0 213 -184z" />
    <glyph glyph-name="quotedbl" unicode="&#x22;" horiz-adv-x="937" 
d="M526 1567h373l-65 -596h-254zM82 1567h373l-66 -596h-254z" />
    <glyph glyph-name="numbersign" unicode="#" horiz-adv-x="1282" 
d="M55 631h181l43 258h-224v287h264l56 360h315l-55 -360h137l55 360h308l-56 -360h148v-287h-189l-43 -258h230l2 -293h-273l-51 -338h-307l51 338h-139l-53 -338h-314l52 338h-138v293zM594 889l-43 -258h139l43 258h-139z" />
    <glyph glyph-name="dollar" unicode="$" horiz-adv-x="1200" 
d="M567 -162l-213 19l21 129q-191 23 -307 84q4 31 20 153.5t29 198.5q158 -81 313 -109l49 291q-69 25 -122.5 50.5t-111.5 67t-96 90t-63 119.5t-25 156q0 228 144.5 348t433.5 126l23 131l233 -21l-23 -127q113 -15 191 -47l-21 -340q-107 27 -231 43l-47 -264
q63 -23 112 -47t102 -63.5t87.5 -87t57 -116.5t22.5 -153q0 -250 -134 -372t-421 -126zM821 416q0 36 -33 62t-98 52l-41 -233q172 11 172 119zM422 1106q0 -33 31 -56.5t92 -45.5l35 206q-158 -8 -158 -104z" />
    <glyph glyph-name="percent" unicode="%" horiz-adv-x="1548" 
d="M713 1194q0 -178 -86.5 -269t-251.5 -91q-332 0 -332 360q0 185 80 270.5t254 85.5q169 0 252.5 -84.5t83.5 -271.5zM453 1194q0 72 -18 98.5t-58 26.5t-57 -26.5t-17 -98.5q0 -70 17.5 -96.5t56.5 -26.5q42 0 59 25.5t17 97.5zM1079 1444l221 -174l-856 -1200l-221 174z
M1505 336q0 -177 -86 -268t-252 -91q-331 0 -331 359q0 186 80 274t253 88q169 0 252.5 -87t83.5 -275zM1245 336q0 69 -18 95t-58 26t-56.5 -25.5t-16.5 -95.5q0 -71 16.5 -96t56.5 -25t58 25.5t18 95.5z" />
    <glyph glyph-name="ampersand" unicode="&#x26;" horiz-adv-x="1505" 
d="M1493 328l-141 -346q-163 64 -326 170q-227 -181 -502 -181q-128 0 -225.5 38t-153.5 102.5t-83 141t-27 163.5q0 95 37.5 178.5t91 141.5t131.5 114q-125 191 -125 321q0 83 24.5 150.5t78.5 123t149.5 86t226.5 30.5q205 0 338 -91t133 -241q0 -54 -20.5 -105.5
t-50.5 -91.5t-80.5 -85t-91.5 -74.5t-103 -71.5q106 -106 213 -187q62 114 88 222h338q-10 -85 -48 -193t-101 -213q118 -63 229 -102zM588 324q86 0 157 36q-125 105 -241 230q-60 -70 -60 -139q0 -63 37.5 -95t106.5 -32zM539 1171q0 -55 47 -135q65 42 100.5 80t36.5 78
q0 39 -24 58.5t-58 19.5q-48 0 -75 -25.5t-27 -75.5z" />
    <glyph glyph-name="quotesingle" unicode="'" horiz-adv-x="491" 
d="M59 1567h373l-65 -596h-254z" />
    <glyph glyph-name="parenleft" unicode="(" horiz-adv-x="763" 
d="M469 1608l289 -25q-122 -191 -181 -428.5t-59 -492.5q0 -254 59.5 -492t180.5 -430l-289 -25q-163 174 -247.5 420.5t-84.5 526.5q0 282 84 525t248 421z" />
    <glyph glyph-name="parenright" unicode=")" horiz-adv-x="763" 
d="M6 1583l289 25q165 -177 248.5 -420t83.5 -526q0 -280 -84.5 -526.5t-247.5 -420.5l-289 25q122 191 181 429t59 493t-59 492.5t-181 428.5z" />
    <glyph glyph-name="asterisk" unicode="*" horiz-adv-x="794" 
d="M313 1595h176l29 -200l193 45l61 -176l-186 -90l106 -177l-135 -104l-154 151l-157 -153l-144 98l107 185l-189 88l68 178l193 -45z" />
    <glyph glyph-name="plus" unicode="+" horiz-adv-x="1239" 
d="M1124 510h-333v-330h-347v330h-331v348h331v330h347v-330h333v-348z" />
    <glyph glyph-name="comma" unicode="," horiz-adv-x="561" 
d="M276 375q110 0 164 -57.5t54 -163.5q0 -90 -65 -225.5t-146 -227.5l-140 33l52 246q-51 24 -89 75t-38 111q0 96 50 152.5t158 56.5z" />
    <glyph glyph-name="hyphen" unicode="-" horiz-adv-x="780" 
d="M84 838h612v-273h-612v273z" />
    <glyph glyph-name="period" unicode="." horiz-adv-x="573" 
d="M506 178q0 -203 -219 -203q-116 0 -167.5 47t-51.5 156q0 205 219 205t219 -205z" />
    <glyph glyph-name="slash" unicode="/" horiz-adv-x="970" 
d="M651 1595h340l-696 -1839h-330z" />
    <glyph glyph-name="zero" unicode="0" horiz-adv-x="1302" 
d="M1235 760q0 -406 -141 -593t-447 -187t-442.5 186t-136.5 594q0 289 60 462t186.5 251.5t336.5 78.5q207 0 333.5 -78.5t188.5 -252t62 -461.5zM825 764q0 142 -9.5 230t-33 133t-52.5 60t-77 15q-67 0 -102.5 -30t-55.5 -126.5t-20 -281.5q0 -118 7 -198t19.5 -128.5
t36 -74t49 -33.5t66.5 -8q48 0 77 15t52 61t33 134.5t10 231.5z" />
    <glyph glyph-name="one" unicode="1" horiz-adv-x="1302" 
d="M311 0v287h199v766l-252 -138l-41 330l467 291h252v-1249h199v-287h-824z" />
    <glyph glyph-name="two" unicode="2" horiz-adv-x="1302" 
d="M1194 1092q0 -76 -26 -151.5t-68 -142t-113 -143.5t-142.5 -142t-176.5 -153v-6h518l-8 -354h-1039v262q53 54 143.5 144.5t135.5 136t111.5 116t99 114t68 96.5t49.5 97t14 85q0 143 -191 143q-161 0 -352 -125l-98 328q225 157 532 157q267 0 405 -125t138 -337z" />
    <glyph glyph-name="three" unicode="3" horiz-adv-x="1302" 
d="M1208 463q0 -230 -153.5 -356.5t-464.5 -126.5q-271 0 -467 114l76 314q195 -95 379 -95q109 0 166 42.5t57 119.5q0 31 -8.5 54.5t-31.5 46t-62.5 36.5t-104 22.5t-152.5 8.5v287q141 0 219 19.5t102.5 51t24.5 84.5q0 123 -202 123q-209 0 -379 -125l-94 316
q96 71 229 113t272 42q265 0 413.5 -118t148.5 -322q0 -214 -193 -317v-4q225 -93 225 -330z" />
    <glyph glyph-name="four" unicode="4" horiz-adv-x="1302" 
d="M1253 270h-127v-270h-385v270h-659l-35 252l582 1014h497v-930h136zM754 606l14 375l10 166l-4 2l-78 -148l-217 -395h275z" />
    <glyph glyph-name="five" unicode="5" horiz-adv-x="1302" 
d="M1208 532q0 -264 -143.5 -408t-446.5 -144q-284 0 -489 112l74 316q105 -49 187.5 -71t187.5 -22q124 0 171.5 44t47.5 139q0 84 -52.5 120.5t-166.5 36.5q-143 0 -281 -41l-143 154l63 768h901l15 -354h-584l-17 -213q80 12 173 12q241 0 372 -114.5t131 -334.5z" />
    <glyph glyph-name="six" unicode="6" horiz-adv-x="1302" 
d="M1231 545q0 -285 -145 -425t-412 -140q-148 0 -258 41.5t-188.5 131t-118 236t-39.5 350.5q0 394 178.5 605.5t521.5 211.5q215 0 369 -57l-29 -342q-137 47 -289 47q-159 0 -237.5 -61.5t-102.5 -192.5l4 -4q112 64 256 64q241 0 365.5 -116.5t124.5 -348.5zM823 551
q0 80 -37.5 118t-123.5 38q-41 0 -94.5 -20t-73.5 -50q1 -127 19.5 -196.5t55 -96.5t101.5 -27q77 0 115 55.5t38 178.5z" />
    <glyph glyph-name="seven" unicode="7" horiz-adv-x="1302" 
d="M1221 1534v-340l-531 -1194h-469l592 1153h-737l20 381h1125z" />
    <glyph glyph-name="eight" unicode="8" horiz-adv-x="1302" 
d="M68 463q0 97 47 187t137 151q-131 124 -131 334q0 200 132.5 310.5t399.5 110.5q271 0 401 -110.5t130 -310.5q0 -189 -142 -314q193 -120 193 -360q0 -238 -147 -359.5t-435 -121.5q-585 0 -585 483zM831 432q0 24 -8 44.5t-19 36.5t-33.5 32t-40 26t-51 23.5t-54 21
t-60.5 21.5q-98 -80 -98 -176q0 -92 47.5 -130t151.5 -38q79 0 122 32t43 107zM508 1116q0 -36 16 -64t48.5 -49t67.5 -35t87 -30q88 69 88 162q0 71 -39.5 105t-124.5 34q-73 0 -108 -29.5t-35 -93.5z" />
    <glyph glyph-name="nine" unicode="9" horiz-adv-x="1302" 
d="M1227 821q0 -437 -166 -639t-508 -202q-132 0 -225.5 17.5t-184.5 55.5l60 328q159 -62 311 -62q147 0 216.5 67t88.5 216l-4 4q-104 -59 -264 -59q-236 0 -359.5 128.5t-123.5 348.5q0 251 141.5 391.5t423.5 140.5q288 0 441 -184.5t153 -550.5zM813 944
q-1 153 -47.5 214t-138.5 61q-81 0 -121.5 -43t-40.5 -136q0 -94 39 -136t131 -42q64 0 111 21.5t67 60.5z" />
    <glyph glyph-name="colon" unicode=":" horiz-adv-x="573" 
d="M506 969q0 -203 -219 -203q-116 0 -167.5 47t-51.5 156q0 205 219 205t219 -205zM506 178q0 -203 -219 -203q-116 0 -167.5 47t-51.5 156q0 205 219 205t219 -205z" />
    <glyph glyph-name="semicolon" unicode=";" horiz-adv-x="575" 
d="M508 969q0 -203 -219 -203q-116 0 -167.5 47t-51.5 156q0 205 219 205t219 -205zM289 375q110 0 163.5 -57.5t53.5 -163.5q0 -90 -65 -225.5t-146 -227.5l-139 33l51 246q-51 24 -89 75t-38 111q0 96 50.5 152.5t158.5 56.5z" />
    <glyph glyph-name="less" unicode="&#x3c;" horiz-adv-x="1239" 
d="M1067 868l-283 -131l-151 -63v-6l149 -68l287 -135v-361l-899 474v190l897 477v-377z" />
    <glyph glyph-name="equal" unicode="=" horiz-adv-x="1239" 
d="M1087 735h-937v293h937v-293zM1087 295h-937v293h937v-293z" />
    <glyph glyph-name="greater" unicode="&#x3e;" horiz-adv-x="1239" 
d="M170 104v361l285 135l151 68v6l-153 65l-281 129v377l897 -477v-190z" />
    <glyph glyph-name="question" unicode="?" horiz-adv-x="1034" 
d="M993 1153q0 -161 -86 -278t-248 -203l-14 -205h-307l-23 344q135 69 204 133.5t69 145.5q0 52 -40.5 82t-115.5 30q-158 0 -272 -96l-137 305q78 64 205.5 103.5t263.5 39.5q245 0 373 -107t128 -294zM700 158q0 -88 -52 -135.5t-159 -47.5q-111 0 -162 43t-51 140
q0 184 213 184q211 0 211 -184z" />
    <glyph glyph-name="at" unicode="@" horiz-adv-x="1863" 
d="M930 1233q114 0 186 -78l35 66l207 -13l-88 -561q-8 -54 -8 -82q0 -127 102 -127q96 0 156.5 97.5t60.5 304.5q0 130 -36.5 238.5t-108 189.5t-185 126.5t-258.5 45.5q-176 0 -312.5 -56t-221.5 -155.5t-128.5 -230.5t-43.5 -287q0 -165 43 -299t128.5 -234.5
t222.5 -155.5t316 -55q113 0 217 20.5t182.5 54t132.5 65.5t97 67l86 -190q-119 -95 -305.5 -159.5t-411.5 -64.5q-434 0 -684 249t-250 702q0 152 39 292t117.5 258t189 205t262 136t328.5 49q183 0 334.5 -61t254.5 -168.5t159.5 -256.5t56.5 -323q0 -137 -27 -248
t-72 -184.5t-106 -123t-126.5 -71.5t-135.5 -22q-199 0 -276 135q-118 -135 -305 -135q-136 0 -224 105.5t-88 301.5q0 167 63 312t176 233t249 88zM979 653l39 281q-17 39 -68 39q-55 0 -100 -54.5t-68.5 -139t-23.5 -177.5q0 -139 86 -139q50 0 86.5 51t48.5 139z" />
    <glyph glyph-name="A" unicode="A" horiz-adv-x="1531" 
d="M1059 0l-68 264h-475l-67 -264h-453l510 1536h512l518 -1536h-477zM754 1198l-39 -162l-111 -430h301l-108 428l-37 164h-6z" />
    <glyph glyph-name="B" unicode="B" horiz-adv-x="1419" 
d="M1356 453q0 -217 -143 -335t-441 -118h-657v1536h659q260 0 395.5 -106.5t135.5 -292.5q0 -234 -201 -324v-4q252 -77 252 -356zM928 483q0 78 -35 111t-121 33h-246v-289h252q84 0 117 30.5t33 114.5zM895 1063q0 71 -30.5 99t-106.5 28h-232v-262h236q73 0 103 30.5
t30 104.5z" />
    <glyph glyph-name="C" unicode="C" horiz-adv-x="1210" 
d="M1161 1503l-43 -352q-140 45 -287 45q-96 0 -155.5 -19.5t-95.5 -70.5t-49 -128.5t-13 -203.5q0 -132 14 -213.5t51.5 -134t97.5 -72.5t157 -20q155 0 284 55l43 -336q-81 -37 -185.5 -59.5t-203.5 -22.5q-356 0 -532 199t-176 606q0 789 737 789q89 0 187 -17.5
t169 -44.5z" />
    <glyph glyph-name="D" unicode="D" horiz-adv-x="1492" 
d="M1425 776q0 -207 -44.5 -356t-134 -241.5t-218.5 -135.5t-305 -43h-608v1536h602q374 0 541 -182t167 -578zM975 778q0 124 -12 198t-44 117.5t-78.5 58.5t-125.5 15h-172v-802h172q79 0 124.5 14t78.5 59t45 125t12 215z" />
    <glyph glyph-name="E" unicode="E" horiz-adv-x="1261" 
d="M543 358h663l-8 -358h-1083v1536h1056l7 -362h-635v-226h524v-327h-524v-263z" />
    <glyph glyph-name="F" unicode="F" horiz-adv-x="1210" 
d="M1176 1165h-633v-258h524l-4 -350h-520v-557h-428v1536h1054z" />
    <glyph glyph-name="G" unicode="G" horiz-adv-x="1376" 
d="M1290 831v-776q-89 -38 -217.5 -61t-253.5 -23q-204 0 -348.5 51t-233 154.5t-129 248.5t-40.5 343q0 399 184 597t582 198q241 0 436 -68l-41 -356q-170 61 -371 61q-86 0 -143 -13t-97 -41t-61 -80t-30 -120.5t-9 -173.5q0 -134 13 -216t48 -132t88 -68t140 -18
q58 0 102 8v485h381z" />
    <glyph glyph-name="H" unicode="H" horiz-adv-x="1505" 
d="M1391 0h-428v594h-420v-594h-428v1536h428v-573h420v573h428v-1536z" />
    <glyph glyph-name="I" unicode="I" horiz-adv-x="704" 
d="M133 0v1536h438v-1536h-438z" />
    <glyph glyph-name="J" unicode="J" horiz-adv-x="1128" 
d="M1014 1536v-948q0 -169 -45 -290t-132.5 -192t-203.5 -103t-271 -32q-174 0 -305 56l23 346q77 -41 213 -41q145 0 215 62t70 200v942h436z" />
    <glyph glyph-name="K" unicode="K" horiz-adv-x="1495" 
d="M1487 0h-512l-318 616h-114v-616h-428v1536h428v-588h121l315 588h485l-413 -731z" />
    <glyph glyph-name="L" unicode="L" horiz-adv-x="1157" 
d="M547 369h579l-8 -369h-1003v1536h432v-1167z" />
    <glyph glyph-name="M" unicode="M" horiz-adv-x="1898" 
d="M115 1536h469l305 -784l57 -156h6l56 154l309 786h467v-1536h-391v647l4 166l-6 2l-58 -158l-252 -657h-280l-252 662l-55 157l-5 -2l3 -166v-651h-377v1536z" />
    <glyph glyph-name="N" unicode="N" horiz-adv-x="1517" 
d="M1403 0h-299l-512 709l-94 137l-4 -2l2 -166v-678h-381v1536h356l459 -659l94 -138l4 2l-4 164v631h379v-1536z" />
    <glyph glyph-name="O" unicode="O" horiz-adv-x="1540" 
d="M1473 768q0 -416 -167 -606.5t-536 -190.5q-363 0 -532.5 194.5t-169.5 602.5q0 409 167 601t535 192t535.5 -192t167.5 -601zM1022 768q0 177 -23.5 266.5t-75.5 123.5t-155 34q-74 0 -119.5 -17t-76 -65.5t-42.5 -129t-12 -212.5q0 -176 24 -267.5t77 -127t153 -35.5
q74 0 119.5 18t76 67.5t42.5 131t12 213.5z" />
    <glyph glyph-name="P" unicode="P" horiz-adv-x="1374" 
d="M1327 987q0 -257 -152.5 -391.5t-486.5 -134.5h-145v-461h-428v1536h573q336 0 487.5 -134t151.5 -415zM885 989q0 122 -41 163.5t-156 41.5h-145v-406h145q57 0 91.5 7.5t60 29.5t35.5 61t10 103z" />
    <glyph glyph-name="Q" unicode="Q" horiz-adv-x="1540" 
d="M1473 768q0 -308 -90 -490t-281 -255l264 -216l-469 -118l-176 284q-338 12 -495.5 206.5t-157.5 588.5q0 409 167 601t535 192t535.5 -192t167.5 -601zM1022 768q0 177 -23.5 266.5t-75.5 123.5t-155 34q-74 0 -119.5 -17t-76 -65.5t-42.5 -129t-12 -212.5
q0 -176 24 -267.5t77 -127t153 -35.5q74 0 119.5 18t76 67.5t42.5 131t12 213.5z" />
    <glyph glyph-name="R" unicode="R" horiz-adv-x="1415" 
d="M1321 1038q0 -154 -60.5 -265t-170.5 -155l333 -618h-499l-226 535h-155v-535h-428v1536h585q312 0 466.5 -121.5t154.5 -376.5zM874 1022q0 100 -36.5 136t-132.5 36h-162v-352h157q99 0 136.5 35.5t37.5 144.5z" />
    <glyph glyph-name="S" unicode="S" horiz-adv-x="1193" 
d="M1151 471q0 -231 -159.5 -365.5t-436.5 -134.5q-271 0 -489 113l53 354q218 -110 432 -110q100 0 145 29t45 87q0 30 -23 54t-62 41.5t-89.5 35t-106 38t-111.5 45.5t-106.5 62.5t-89.5 84t-62 115t-23 151.5q0 104 34 191.5t103 155.5t183.5 106.5t264.5 38.5
q248 0 447 -78l-49 -346q-201 59 -373 59q-115 0 -157 -27t-42 -77q0 -30 23 -54t62 -42t89.5 -35t106 -37t111 -44.5t106 -61.5t89.5 -83t62 -114.5t23 -151.5z" />
    <glyph glyph-name="T" unicode="T" horiz-adv-x="1241" 
d="M1221 1165h-385v-1165h-433v1165h-383l9 371h1183z" />
    <glyph glyph-name="U" unicode="U" horiz-adv-x="1474" 
d="M1378 1536v-987q0 -286 -160 -432t-479 -146t-481 146t-162 432v987h428v-983q0 -109 50.5 -159t166.5 -50q114 0 162.5 49t48.5 160v983h426z" />
    <glyph glyph-name="V" unicode="V" horiz-adv-x="1476" 
d="M1040 1536h445l-508 -1536h-477l-506 1536h471l244 -944l39 -160h6l37 160z" />
    <glyph glyph-name="W" unicode="W" horiz-adv-x="2154" 
d="M856 1536h461l176 -950l29 -164h6l22 164l158 950h424l-356 -1536h-510l-160 926l-25 166h-6l-26 -166l-160 -926h-510l-356 1536h446l154 -956l24 -164h6l27 164z" />
    <glyph glyph-name="X" unicode="X" horiz-adv-x="1476" 
d="M1450 1536l-412 -729l422 -807h-483l-168 365l-64 153h-6l-65 -153l-164 -365h-494l412 793l-405 743h505l146 -313l67 -150h7l67 150l150 313h485z" />
    <glyph glyph-name="Y" unicode="Y" horiz-adv-x="1462" 
d="M-6 1536h479l209 -518l59 -154h7l55 156l201 516h466l-514 -1061v-475h-438v475z" />
    <glyph glyph-name="Z" unicode="Z" horiz-adv-x="1265" 
d="M1198 0h-1143v268l531 762l96 131l-2 4h-612l12 371h1116v-299l-512 -733l-96 -129l2 -6h614z" />
    <glyph glyph-name="bracketleft" unicode="[" horiz-adv-x="751" 
d="M137 -272v1869h608v-264h-251v-1347h251v-258h-608z" />
    <glyph glyph-name="backslash" unicode="\" horiz-adv-x="761" 
d="M-57 1595h321l594 -1839h-319z" />
    <glyph glyph-name="bracketright" unicode="]" horiz-adv-x="751" 
d="M614 1597v-1869h-608v258h252v1347h-252v264h608z" />
    <glyph glyph-name="asciicircum" unicode="^" horiz-adv-x="1302" 
d="M905 950l-254 408l-252 -408h-311l432 697h268l424 -697h-307z" />
    <glyph glyph-name="underscore" unicode="_" horiz-adv-x="835" 
d="M14 -72h809v-225h-809v225z" />
    <glyph glyph-name="grave" unicode="`" 
d="M684 1337h-297l-258 299h442z" />
    <glyph glyph-name="a" unicode="a" horiz-adv-x="1198" 
d="M805 0l-29 102q-128 -122 -325 -122q-187 0 -289.5 106t-102.5 313q0 175 120 285.5t327 110.5q111 0 211 -27v45q0 72 -47.5 107.5t-159.5 35.5q-101 0 -174 -14.5t-168 -48.5l-31 299q192 82 447 82q147 0 248.5 -31.5t162 -97.5t87 -160t26.5 -227v-758h-303zM717 391
v127q-69 19 -135 19q-154 0 -154 -134q0 -127 131 -127q65 0 111.5 32.5t46.5 82.5z" />
    <glyph glyph-name="b" unicode="b" horiz-adv-x="1306" 
d="M1253 631q0 -332 -135 -494t-383 -162q-189 0 -313 117l-45 -92h-266v1583l393 19v-252l-4 -164l6 -4q117 92 276 92q225 0 348 -157.5t123 -485.5zM846 623q0 104 -10 168.5t-34 97.5t-54 44t-80 11q-108 0 -164 -82v-497q58 -86 166 -86q62 0 98 25t57 101.5t21 217.5z
" />
    <glyph glyph-name="c" unicode="c" horiz-adv-x="1003" 
d="M946 1223l-20 -320q-114 31 -191 31q-156 0 -214 -69.5t-58 -246.5q0 -319 264 -319q110 0 205 37l26 -295q-116 -66 -317 -66q-288 0 -438 162.5t-150 480.5q0 654 596 654q75 0 157.5 -13.5t139.5 -35.5z" />
    <glyph glyph-name="d" unicode="d" horiz-adv-x="1304" 
d="M1196 0h-307l-35 98q-126 -123 -322 -123q-479 0 -479 658q0 308 121 475.5t350 167.5q160 0 279 -96l4 4l-4 164v235l393 19v-1602zM803 365v503q-56 70 -160 70q-68 0 -106.5 -28.5t-57 -97.5t-18.5 -194q0 -136 16.5 -206.5t55 -99.5t112.5 -29q56 0 96.5 23.5
t61.5 58.5z" />
    <glyph glyph-name="e" unicode="e" horiz-adv-x="1210" 
d="M705 -23q-652 0 -652 658q0 307 143 473t431 166q255 0 393.5 -146.5t138.5 -437.5q0 -91 -10 -176h-686q12 -112 81.5 -160.5t209.5 -48.5q175 0 329 51l43 -303q-176 -76 -421 -76zM455 762h344q-3 105 -44.5 152t-125.5 47q-90 0 -127.5 -42.5t-46.5 -156.5z" />
    <glyph glyph-name="f" unicode="f" horiz-adv-x="831" 
d="M565 0h-393v971h-141v282h139v50q0 68 27 127.5t79 106.5t138.5 74t197.5 27q113 0 213 -28l-22 -246q-52 12 -107 12q-71 0 -101 -21t-30 -61v-41h236v-282h-236v-971z" />
    <glyph glyph-name="g" unicode="g" horiz-adv-x="1218" 
d="M590 492q-77 0 -137 8q-21 -18 -21 -41q0 -42 66 -45l295 -15q213 -10 310 -91.5t97 -235.5q0 -198 -147.5 -307t-452.5 -109q-266 0 -396 90t-130 238q0 111 86 188q-92 71 -92 186q0 149 153 228q-135 95 -135 293q0 87 27.5 157t86 124.5t157 84t231.5 29.5
q190 0 315 -64l215 64l82 -180l-125 -103q12 -49 12 -112q0 -387 -497 -387zM723 82l-289 18q-28 -36 -28 -67q0 -50 43.5 -72t142.5 -22q149 0 203.5 18.5t54.5 58.5q0 33 -26 47.5t-101 18.5zM592 991q-65 0 -91 -27t-26 -94t26.5 -93.5t82.5 -26.5q72 0 98.5 25.5
t26.5 94.5q0 67 -26 94t-91 27z" />
    <glyph glyph-name="h" unicode="h" horiz-adv-x="1306" 
d="M1214 0h-395v782q0 82 -36.5 121t-114.5 39q-106 0 -164 -72v-870h-393v1583l393 19v-248l-4 -164l6 -4q118 90 289 90q197 0 308 -131t111 -363v-782z" />
    <glyph glyph-name="i" unicode="i" horiz-adv-x="663" 
d="M532 0h-403v1241l403 19v-1260zM545 1499q0 -78 -51 -115.5t-162 -37.5q-113 0 -164 35t-51 118q0 154 215 154q213 0 213 -154z" />
    <glyph glyph-name="j" unicode="j" horiz-adv-x="663" 
d="M537 1260v-1233q0 -103 -31.5 -177.5t-88 -115.5t-124.5 -59.5t-152 -18.5q-101 0 -186 29l18 264q38 -10 70 -10q45 0 71.5 24t26.5 74v1206zM547 1499q0 -76 -51.5 -113.5t-163.5 -37.5t-163.5 34.5t-51.5 116.5q0 154 215 154q112 0 163.5 -38.5t51.5 -115.5z" />
    <glyph glyph-name="k" unicode="k" horiz-adv-x="1300" 
d="M504 1602v-781h139l203 432h430l-297 -569l305 -684h-438l-205 514h-137v-514h-393v1583z" />
    <glyph glyph-name="l" unicode="l" horiz-adv-x="632" 
d="M516 0h-399v1583l399 19v-1602z" />
    <glyph glyph-name="m" unicode="m" horiz-adv-x="1953" 
d="M1862 0h-394v782q0 78 -37.5 118t-107.5 40q-143 0 -143 -152v-788h-396v788q0 80 -35.5 116t-107.5 36q-95 0 -145 -70v-870h-394v1243l283 17l61 -107q139 123 314 123q220 0 323 -156q129 156 351 156q195 0 311.5 -125t116.5 -360v-791z" />
    <glyph glyph-name="n" unicode="n" horiz-adv-x="1298" 
d="M1206 0h-395v782q0 84 -37.5 122t-114.5 38q-50 0 -93.5 -19t-69.5 -53v-870h-394v1245l283 17l55 -99q140 113 332 113q201 0 317.5 -129.5t116.5 -364.5v-782z" />
    <glyph glyph-name="o" unicode="o" horiz-adv-x="1290" 
d="M1237 621q0 -343 -140.5 -496.5t-451.5 -153.5q-309 0 -450.5 153.5t-141.5 496.5t142.5 499t451.5 156t449.5 -155.5t140.5 -499.5zM463 621q0 -139 18.5 -213t56.5 -101.5t109 -27.5q70 0 108 28t56 101.5t18 212.5q0 141 -18 214.5t-55.5 100.5t-108.5 27
q-72 0 -109.5 -27t-56 -100.5t-18.5 -214.5z" />
    <glyph glyph-name="p" unicode="p" horiz-adv-x="1298" 
d="M1245 629q0 -316 -129.5 -482.5t-353.5 -166.5q-165 0 -262 83l-6 -2l4 -165v-218h-396v1565l275 17l72 -99q135 113 319 113q160 0 263 -61.5t158.5 -205.5t55.5 -378zM838 631q0 124 -18 191t-55.5 92.5t-105.5 25.5q-107 0 -161 -80v-483q57 -84 157 -84q45 0 76 13.5
t56.5 49t38 104t12.5 171.5z" />
    <glyph glyph-name="q" unicode="q" horiz-adv-x="1300" 
d="M1196 -322h-395v203l4 164l-4 4q-104 -67 -258 -67q-109 0 -197.5 38.5t-154.5 115t-102 200t-36 285.5q0 317 125 485t375 168q217 0 346 -123l43 100h254v-1573zM801 375v493q-51 68 -160 68q-74 0 -110 -25t-52 -90.5t-16 -199.5q0 -181 40.5 -251.5t143.5 -70.5
q59 0 99.5 21.5t54.5 54.5z" />
    <glyph glyph-name="r" unicode="r" horiz-adv-x="954" 
d="M498 0h-396v1243l314 14l35 -180h6q114 197 321 197q84 0 142 -21l-23 -372q-68 20 -145 20q-116 0 -185 -72.5t-69 -203.5v-625z" />
    <glyph glyph-name="s" unicode="s" horiz-adv-x="1024" 
d="M973 406q0 -202 -121.5 -316.5t-378.5 -114.5q-234 0 -397 78l39 312q75 -39 174.5 -59.5t181.5 -20.5q137 0 137 86q0 28 -23.5 48.5t-62 33t-87.5 28t-100.5 31t-100.5 45t-87.5 67.5t-62 101t-23.5 143q0 182 126.5 294t371.5 112q192 0 365 -70l-29 -307
q-72 29 -169 44t-173 15q-115 0 -115 -71q0 -26 23 -46t60.5 -32t85.5 -27t98.5 -30t98.5 -44t85.5 -65.5t60.5 -97t23 -137.5z" />
    <glyph glyph-name="t" unicode="t" 
d="M805 969h-260v-576q0 -60 30.5 -87t98.5 -27q56 0 96 14l21 -275q-74 -38 -238 -38q-200 0 -301.5 106.5t-101.5 296.5v586h-119v284h139l63 267l312 26v-293h260v-284z" />
    <glyph glyph-name="u" unicode="u" horiz-adv-x="1286" 
d="M1196 1253v-796q0 -480 -553 -480q-276 0 -413.5 122.5t-137.5 357.5v796h393v-790q0 -76 38 -113t122 -37q82 0 119 36t37 114v790h395z" />
    <glyph glyph-name="v" unicode="v" horiz-adv-x="1353" 
d="M913 1253h428l-438 -1253h-457l-434 1253h428l193 -727l41 -159h6l39 159z" />
    <glyph glyph-name="w" unicode="w" horiz-adv-x="1845" 
d="M725 1253h410l129 -739l26 -164h6l21 164l108 739h385l-268 -1253h-481l-100 655l-21 166h-6l-23 -166l-104 -655h-481l-289 1253h395l117 -741l24 -164h7l22 164z" />
    <glyph glyph-name="x" unicode="x" horiz-adv-x="1306" 
d="M831 0l-129 289l-61 153h-6l-62 -155l-118 -287h-435l359 631l-352 622h456l115 -268l64 -154h6l61 154l115 268h436l-334 -614l340 -639h-455z" />
    <glyph glyph-name="y" unicode="y" horiz-adv-x="1357" 
d="M362 -72q67 0 110.5 22t68.5 79l4 12l-533 1212h447l221 -667l49 -158h6l35 162l158 663h418l-414 -1224q-71 -199 -192.5 -290t-305.5 -91q-124 0 -225 39l29 266q62 -25 124 -25z" />
    <glyph glyph-name="z" unicode="z" horiz-adv-x="1097" 
d="M1020 987l-406 -543l-100 -125l2 -6h524l-8 -313h-969v266l404 541l100 127l-2 4h-489l12 315h932v-266z" />
    <glyph glyph-name="braceleft" unicode="{" horiz-adv-x="811" 
d="M592 897q0 -156 -117 -231q117 -72 117 -228q0 -58 -8.5 -147t-8.5 -133q0 -67 41 -112.5t117 -45.5h72v-281h-53q-282 0 -405.5 99t-123.5 291q0 56 13.5 170.5t13.5 162.5q0 56 -32 96t-81 54v149q49 14 81 54t32 96q0 48 -13.5 163t-13.5 171q0 192 123.5 290.5
t405.5 98.5h53v-281h-72q-76 0 -117 -45t-41 -112q0 -44 8.5 -133t8.5 -146z" />
    <glyph glyph-name="bar" unicode="|" horiz-adv-x="606" 
d="M152 -365v2012h305v-2012h-305z" />
    <glyph glyph-name="braceright" unicode="}" horiz-adv-x="811" 
d="M219 438q0 156 117 228q-117 75 -117 231q0 57 9.5 146t9.5 133q0 67 -41.5 112t-116.5 45h-74v281h53q284 0 406.5 -98.5t122.5 -290.5q0 -56 -13.5 -171t-13.5 -163q0 -56 32 -96t81 -54v-149q-49 -14 -81 -54t-32 -96q0 -48 13.5 -162.5t13.5 -170.5q0 -94 -28 -164
t-89 -122t-164 -78t-248 -26h-53v281h74q75 0 116.5 45.5t41.5 112.5q0 44 -9.5 133t-9.5 147z" />
    <glyph glyph-name="asciitilde" unicode="~" horiz-adv-x="1302" 
d="M340 1171h-221q12 435 321 435q55 0 117.5 -20t108.5 -43.5t99.5 -43.5t92.5 -20q42 0 70 30t35 68h219q-4 -216 -87 -326t-233 -110q-70 0 -147.5 32.5t-146 64.5t-115.5 32q-44 0 -75.5 -29.5t-37.5 -69.5z" />
    <glyph glyph-name="uni00A0" unicode="&#xa0;" horiz-adv-x="501" 
 />
    <glyph glyph-name="exclamdown" unicode="&#xa1;" horiz-adv-x="618" 
d="M150 874h321l45 -1144h-414zM92 1161q0 182 211 182q111 0 161 -42.5t50 -139.5q0 -184 -211 -184t-211 184z" />
    <glyph glyph-name="cent" unicode="&#xa2;" horiz-adv-x="1028" 
d="M956 1223l-20 -320q-114 31 -191 31q-156 0 -214 -69.5t-58 -246.5q0 -319 264 -319q110 0 205 37l27 -295q-77 -44 -205 -59l-16 -228h-304l19 242q-197 47 -298.5 204t-101.5 418q0 577 465 644l21 231h303l-23 -238q67 -11 127 -32z" />
    <glyph glyph-name="sterling" unicode="&#xa3;" horiz-adv-x="1263" 
d="M80 606l-17 301h95q-37 109 -37 185q0 77 20 144t67.5 128.5t120 105t185.5 69.5t256 26q196 0 383 -58l-49 -348q-141 43 -287 43q-258 0 -258 -160q0 -64 23 -135h491v-301h-420q2 -12 2 -37q0 -152 -116 -227l4 -6q149 37 342 37q165 0 327 -25q0 -2 -8 -179.5
t-12 -184.5q-255 30 -512 30q-317 0 -600 -24l-19 356q83 10 135 69t52 132q0 19 -4 59h-164z" />
    <glyph glyph-name="currency" unicode="&#xa4;" horiz-adv-x="1271" 
d="M215 748q0 97 43 188l-149 151l202 209l158 -159q75 34 168 34q91 0 166 -34l160 159l202 -209l-151 -153q43 -82 43 -186q0 -82 -33 -166l139 -140l-202 -209l-136 136q-85 -45 -188 -45q-105 0 -193 45l-135 -138l-203 211l140 140q-31 79 -31 166zM469 754
q0 -67 48.5 -114.5t117.5 -47.5t117.5 47.5t48.5 114.5q0 68 -48.5 116t-117.5 48t-117.5 -48t-48.5 -116z" />
    <glyph glyph-name="yen" unicode="&#xa5;" horiz-adv-x="1460" 
d="M233 770h175l-365 766h481l168 -600l41 -160h6l39 160l168 600h471l-354 -766h190v-203h-280v-75h280v-203h-280v-289h-473v289h-267v203h267v75h-267v203z" />
    <glyph glyph-name="brokenbar" unicode="&#xa6;" horiz-adv-x="606" 
d="M152 762v885h305v-885h-305zM152 -332v871h305v-871h-305z" />
    <glyph glyph-name="section" unicode="&#xa7;" horiz-adv-x="1175" 
d="M70 651q0 89 41 170t118 135q-125 106 -125 244q0 188 134.5 286.5t388.5 98.5q106 0 222 -20t195 -56l-24 -284q-195 65 -371 65q-66 0 -101.5 -19t-35.5 -54q0 -29 33.5 -54.5t87 -48t118.5 -48.5t130 -63.5t118.5 -84t87 -119t33.5 -160.5q0 -89 -41 -170t-118 -137
q124 -106 124 -242q0 -190 -134 -288.5t-388 -98.5q-105 0 -221.5 20.5t-196.5 57.5l25 282q189 -63 371 -63q137 0 137 74q0 26 -26 49t-69 41t-97.5 42t-111.5 48t-111.5 62t-97.5 82t-69 109.5t-26 143.5zM739 598q0 28 -16.5 54t-51.5 51t-68.5 44t-88.5 46
q-63 -37 -63 -101q0 -54 56.5 -97t168.5 -97q63 38 63 100z" />
    <glyph glyph-name="dieresis" unicode="&#xa8;" 
d="M379 1499q0 -75 -38.5 -112t-121.5 -37t-121.5 34.5t-38.5 114.5q0 154 160 154q83 0 121.5 -38.5t38.5 -115.5zM780 1499q0 -75 -38 -112t-121 -37t-121.5 34.5t-38.5 114.5q0 154 160 154q83 0 121 -38.5t38 -115.5z" />
    <glyph glyph-name="copyright" unicode="&#xa9;" horiz-adv-x="1742" 
d="M70 774q0 162 63.5 310t171 255t256 170.5t311.5 63.5q162 0 310.5 -63.5t255.5 -170.5t171 -255t64 -310q0 -163 -64 -311.5t-171.5 -255.5t-255.5 -170.5t-310 -63.5q-217 0 -402 107.5t-292.5 292t-107.5 401.5zM264 772q0 -164 80 -304t220 -223t308 -83
q166 0 307 82t222.5 222.5t81.5 305.5q0 121 -48.5 232t-130 191.5t-195 128.5t-237.5 48q-167 0 -307 -81t-220.5 -219t-80.5 -300zM1227 1169q-11 -126 -27 -266q-42 25 -103.5 40t-115.5 15q-113 0 -172 -50.5t-59 -135.5q0 -90 60 -139t177 -49q59 0 120 16t97 37
q31 -225 35 -256q-62 -57 -160.5 -98t-201.5 -41q-148 0 -268 71t-186.5 192t-66.5 265q0 102 37 195.5t103 166t166 115.5t219 43q204 0 346 -121z" />
    <glyph glyph-name="ordfeminine" unicode="&#xaa;" horiz-adv-x="940" 
d="M614 651l-26 76q-92 -92 -236 -92t-225.5 88t-81.5 258q0 144 94.5 236t249.5 92q80 0 152 -21v31q0 47 -36 70.5t-126 23.5q-71 0 -125 -10.5t-123 -38.5l-25 262q164 66 347 66q229 0 323 -101t94 -325v-615h-256zM539 975v96q-33 10 -82 10q-51 0 -75 -22.5t-24 -73.5
q0 -88 84 -88q40 0 68.5 21.5t28.5 56.5z" />
    <glyph glyph-name="guillemotleft" unicode="&#xab;" horiz-adv-x="1368" 
d="M1270 838l-289 -189l289 -186v-291l-668 465v27l668 464v-290zM707 838l-289 -189l289 -186v-291l-668 465v27l668 464v-290z" />
    <glyph glyph-name="logicalnot" unicode="&#xac;" horiz-adv-x="1302" 
d="M809 528h-633v324h950v-623h-317v299z" />
    <glyph glyph-name="uni00AD" unicode="&#xad;" horiz-adv-x="780" 
d="M84 838h612v-273h-612v273z" />
    <glyph glyph-name="registered" unicode="&#xae;" horiz-adv-x="890" 
d="M39 1296q0 170 120.5 291t289.5 121q167 0 286 -121t119 -291q0 -167 -119 -287t-286 -120q-169 0 -289.5 120t-120.5 287zM143 1296q0 -125 90 -214t216 -89q125 0 214 89.5t89 213.5q0 126 -89 216t-214 90q-126 0 -216 -90t-90 -216zM653 1368q0 -80 -59 -115l61 -157
h-163l-43 135h-33v-135h-158v420h203q98 0 145 -40t47 -108zM502 1360q0 33 -41 33h-45v-66h47q39 0 39 33z" />
    <glyph glyph-name="macron" unicode="&#xaf;" 
d="M772 1606v-230h-700v230h700z" />
    <glyph glyph-name="degree" unicode="&#xb0;" horiz-adv-x="696" 
d="M47 1372q0 127 87 215t214 88q126 0 213.5 -88.5t87.5 -214.5t-87.5 -214.5t-213.5 -88.5t-213.5 88.5t-87.5 214.5zM219 1372q0 -56 36 -91.5t93 -35.5t93 35.5t36 91.5t-36 92.5t-93 36.5t-93 -36.5t-36 -92.5z" />
    <glyph glyph-name="plusminus" unicode="&#xb1;" horiz-adv-x="1302" 
d="M1139 670h-318v-287h-346v287h-311v319h311v295h346v-295h318v-319zM1137 37h-973v282h973v-282z" />
    <glyph glyph-name="twosuperior" unicode="&#xb2;" horiz-adv-x="788" 
d="M727 1554q0 -52 -20 -96.5t-65 -87.5t-91 -75.5t-125 -82.5v-6h297l-4 -211h-641v166q49 41 121.5 100t106.5 87.5t72.5 65t53 63.5t14.5 53q0 65 -104 65q-94 0 -221 -67l-62 201q138 83 334 83q166 0 250 -71t84 -187z" />
    <glyph glyph-name="threesuperior" unicode="&#xb3;" horiz-adv-x="788" 
d="M739 1237q0 -254 -374 -254q-179 0 -299 70l55 190q124 -57 241 -57t117 63q0 22 -13 36t-61 24t-135 10v172q85 0 130.5 8t59 20.5t13.5 34.5q0 52 -111 52q-137 0 -241 -66l-62 189q62 39 145 61t169 22q165 0 256.5 -63.5t91.5 -173.5t-111 -164v-4q129 -49 129 -170z
" />
    <glyph glyph-name="acute" unicode="&#xb4;" 
d="M377 1636h444l-254 -299h-293z" />
    <glyph glyph-name="uni00B5" unicode="&#xb5;" horiz-adv-x="1296" 
d="M668 -18q-148 0 -222 112l-4 -2q18 -250 37 -401l-377 -29v1591h394v-790q0 -66 44 -106t117 -40q72 0 113 35t41 103v798h395v-1243l-280 -22l-45 75q-88 -81 -213 -81z" />
    <glyph glyph-name="paragraph" unicode="&#xb6;" horiz-adv-x="1480" 
d="M705 -336h-343v1254q-149 8 -239 90t-90 233q0 131 93.5 213t252.5 82h1042l-16 -305h-150v-1567h-342v1567h-211z" />
    <glyph glyph-name="periodcentered" unicode="&#xb7;" horiz-adv-x="622" 
d="M528 709q0 -203 -219 -203q-116 0 -167.5 47t-51.5 156q0 204 219 204t219 -204z" />
    <glyph glyph-name="cedilla" unicode="&#xb8;" 
d="M190 -385l158 420l258 4l-69 -424h-347z" />
    <glyph glyph-name="onesuperior" unicode="&#xb9;" horiz-adv-x="600" 
d="M504 1802v-807h-268v514l-156 -82l-23 211l277 164h170z" />
    <glyph glyph-name="ordmasculine" unicode="&#xba;" horiz-adv-x="1036" 
d="M977 1165q0 -283 -108.5 -404.5t-350.5 -121.5q-240 0 -349.5 122t-109.5 404q0 280 111 404.5t348 124.5q241 0 350 -124t109 -405zM403 1165q0 -111 12 -167t35 -74.5t68 -18.5q46 0 69 19t34.5 74.5t11.5 166.5q0 110 -11.5 165.5t-34.5 74t-69 18.5q-45 0 -68 -18
t-35 -73.5t-12 -166.5z" />
    <glyph glyph-name="guillemotright" unicode="&#xbb;" horiz-adv-x="1368" 
d="M653 172v291l289 186l-289 189v290l670 -464v-27zM90 172v291l289 186l-289 189v290l670 -464v-27z" />
    <glyph glyph-name="onequarter" unicode="&#xbc;" horiz-adv-x="1849" 
d="M616 1536v-807h-268v514l-155 -82l-23 211l276 164h170zM1782 131h-70v-131h-248v131h-415l-21 148l365 528h319v-471h76zM1473 336l16 242l-12 2l-64 -107l-92 -131l2 -6h150zM1311 1536h274l-1012 -1536h-272z" />
    <glyph glyph-name="onehalf" unicode="&#xbd;" horiz-adv-x="1849" 
d="M1272 1536h274l-1011 -1536h-273zM1774 559q0 -51 -19.5 -95t-64 -86.5t-91 -76t-124.5 -82.5v-6h294l-4 -213h-641v166q50 43 121.5 101t106.5 87.5t73 66t53 63.5t15 53q0 65 -104 65q-95 0 -222 -70l-61 203q139 84 334 84q166 0 250 -71.5t84 -188.5zM627 1536v-807
h-269v514l-155 -82l-23 211l277 164h170z" />
    <glyph glyph-name="threequarters" unicode="&#xbe;" horiz-adv-x="1849" 
d="M1688 131h-70v-131h-248v131h-416l-20 148l364 528h320v-471h76zM1378 336l17 242l-13 2l-63 -107l-92 -131l2 -6h149zM1292 1536h275l-1012 -1536h-272zM768 971q0 -123 -92.5 -188.5t-282.5 -65.5q-180 0 -299 69l56 191q124 -57 241 -57t117 63q0 22 -13 36t-61 24
t-135 10v172q85 0 130.5 8t59 20.5t13.5 34.5q0 51 -111 51q-139 0 -241 -65l-62 188q130 84 313 84q166 0 257.5 -63.5t91.5 -173.5t-111 -164v-4q129 -49 129 -170z" />
    <glyph glyph-name="questiondown" unicode="&#xbf;" horiz-adv-x="999" 
d="M33 195q0 304 336 481l14 205h307l21 -344q-134 -69 -202.5 -133.5t-68.5 -145.5q0 -52 40 -82.5t114 -30.5q160 0 274 99l138 -307q-78 -64 -205.5 -104t-263.5 -40q-245 0 -374.5 107.5t-129.5 294.5zM328 1190q0 182 211 182q111 0 162 -42.5t51 -139.5
q0 -184 -213 -184q-211 0 -211 184z" />
    <glyph glyph-name="Agrave" unicode="&#xc0;" horiz-adv-x="1531" 
d="M1059 0l-68 264h-475l-67 -264h-453l510 1536h512l518 -1536h-477zM754 1198l-39 -162l-111 -430h301l-108 428l-37 164h-6zM948 1620h-317l-271 252h457z" />
    <glyph glyph-name="Aacute" unicode="&#xc1;" horiz-adv-x="1531" 
d="M1059 0l-68 264h-475l-67 -264h-453l510 1536h512l518 -1536h-477zM754 1198l-39 -162l-111 -430h301l-108 428l-37 164h-6zM692 1868h492l-295 -250h-314z" />
    <glyph glyph-name="Acircumflex" unicode="&#xc2;" horiz-adv-x="1531" 
d="M1059 0l-68 264h-475l-67 -264h-453l510 1536h512l518 -1536h-477zM754 1198l-39 -162l-111 -430h301l-108 428l-37 164h-6zM545 1868h420l206 -250h-337l-78 92l-78 -92h-332z" />
    <glyph glyph-name="Atilde" unicode="&#xc3;" horiz-adv-x="1531" 
d="M1059 0l-68 264h-475l-67 -264h-453l510 1536h512l518 -1536h-477zM754 1198l-39 -162l-111 -430h301l-108 428l-37 164h-6zM557 1620l-176 2q3 117 66 188.5t169 71.5q64 0 125.5 -16t107.5 -31.5t71 -15.5q26 0 38.5 9t16.5 34l168 -2q-3 -119 -68 -190t-170 -71
q-63 0 -121 16.5t-100.5 33t-67.5 16.5q-23 0 -39.5 -13t-19.5 -32z" />
    <glyph glyph-name="Adieresis" unicode="&#xc4;" horiz-adv-x="1531" 
d="M1059 0l-68 264h-475l-67 -264h-453l510 1536h512l518 -1536h-477zM754 1198l-39 -162l-111 -430h301l-108 428l-37 164h-6zM709 1753q0 -141 -158 -141q-81 0 -119.5 33t-38.5 108q0 145 158 145t158 -145zM1124 1753q0 -71 -38 -106t-121 -35q-80 0 -119 33t-39 108
q0 71 40 108t118 37q83 0 121 -36.5t38 -108.5z" />
    <glyph glyph-name="Aring" unicode="&#xc5;" horiz-adv-x="1531" 
d="M449 1645q0 110 68 166.5t233 56.5q311 0 311 -223q0 -87 -35 -136l510 -1509h-477l-68 264h-475l-67 -264h-453l496 1493q-43 49 -43 152zM754 1198l-39 -162l-111 -430h301l-108 428l-37 164h-6zM649 1630q0 -34 21.5 -48.5t89.5 -14.5q60 0 82 14t22 49
q0 37 -21.5 54.5t-82.5 17.5q-67 0 -89 -17t-22 -55z" />
    <glyph glyph-name="AE" unicode="&#xc6;" horiz-adv-x="2191" 
d="M2109 1174h-622l8 -226h502v-327h-488l11 -263h616l-8 -358h-1028l-10 268h-459l-117 -268h-506l809 1536h1286zM1053 1245l-64 -153l-213 -488h301l-16 473l-2 166z" />
    <glyph glyph-name="Ccedilla" unicode="&#xc7;" horiz-adv-x="1210" 
d="M494 -385l137 367q-283 37 -423 234t-140 560q0 789 737 789q89 0 187 -17.5t169 -44.5l-43 -352q-140 45 -287 45q-96 0 -155.5 -19.5t-95.5 -70.5t-49 -128.5t-13 -203.5q0 -132 14 -213.5t51.5 -134t97.5 -72.5t157 -20q155 0 284 55l43 -336q-118 -55 -266 -73
l-59 -365h-346z" />
    <glyph glyph-name="Egrave" unicode="&#xc8;" horiz-adv-x="1261" 
d="M543 358h663l-8 -358h-1083v1536h1056l7 -362h-635v-226h524v-327h-524v-263zM848 1620h-318l-270 252h457z" />
    <glyph glyph-name="Eacute" unicode="&#xc9;" horiz-adv-x="1261" 
d="M543 358h663l-8 -358h-1083v1536h1056l7 -362h-635v-226h524v-327h-524v-263zM592 1868h491l-295 -250h-313z" />
    <glyph glyph-name="Ecircumflex" unicode="&#xca;" horiz-adv-x="1261" 
d="M543 358h663l-8 -358h-1083v1536h1056l7 -362h-635v-226h524v-327h-524v-263zM444 1868h420l207 -250h-338l-78 92l-77 -92h-332z" />
    <glyph glyph-name="Edieresis" unicode="&#xcb;" horiz-adv-x="1261" 
d="M543 358h663l-8 -358h-1083v1536h1056l7 -362h-635v-226h524v-327h-524v-263zM608 1753q0 -70 -37.5 -105.5t-119.5 -35.5q-81 0 -119.5 33t-38.5 108q0 145 158 145q157 0 157 -145zM1024 1753q0 -70 -38.5 -105.5t-121.5 -35.5q-80 0 -118.5 33t-38.5 108
q0 145 157 145q160 0 160 -145z" />
    <glyph glyph-name="Igrave" unicode="&#xcc;" horiz-adv-x="704" 
d="M133 0v1536h438v-1536h-438zM541 1620h-318l-270 252h457z" />
    <glyph glyph-name="Iacute" unicode="&#xcd;" horiz-adv-x="704" 
d="M133 0v1536h438v-1536h-438zM283 1868h491l-295 -250h-313z" />
    <glyph glyph-name="Icircumflex" unicode="&#xce;" horiz-adv-x="704" 
d="M133 0v1536h438v-1536h-438zM137 1868h420l207 -250h-338l-78 92l-78 -92h-331z" />
    <glyph glyph-name="Idieresis" unicode="&#xcf;" horiz-adv-x="704" 
d="M133 0v1536h438v-1536h-438zM301 1753q0 -141 -158 -141q-81 0 -119 33t-38 108q0 145 157 145q158 0 158 -145zM717 1753q0 -70 -38.5 -105.5t-121.5 -35.5q-80 0 -119 33t-39 108q0 71 40 108t118 37q160 0 160 -145z" />
    <glyph glyph-name="Eth" unicode="&#xd0;" horiz-adv-x="1517" 
d="M1450 776q0 -207 -44.5 -356t-134 -241.5t-218.5 -135.5t-305 -43h-609v674h-108v241h108v621h602q374 0 541.5 -182t167.5 -578zM999 778q0 124 -12 198t-44 117.5t-78.5 58.5t-125.5 15h-172v-252h142v-241h-142v-309h172q79 0 124.5 14t78.5 59t45 125t12 215z" />
    <glyph glyph-name="Ntilde" unicode="&#xd1;" horiz-adv-x="1517" 
d="M1403 0h-299l-512 709l-94 137l-4 -2l2 -166v-678h-381v1536h356l459 -659l94 -138l4 2l-4 164v631h379v-1536zM559 1620l-176 2q3 117 66 188.5t169 71.5q64 0 125.5 -16t107.5 -31.5t71 -15.5q26 0 38.5 9t16.5 34l168 -2q-3 -119 -68 -190t-170 -71q-63 0 -121 16.5
t-100.5 33t-67.5 16.5q-23 0 -39.5 -13t-19.5 -32z" />
    <glyph glyph-name="Ograve" unicode="&#xd2;" horiz-adv-x="1540" 
d="M1473 768q0 -416 -167 -606.5t-536 -190.5q-363 0 -532.5 194.5t-169.5 602.5q0 409 167 601t535 192t535.5 -192t167.5 -601zM1022 768q0 177 -23.5 266.5t-75.5 123.5t-155 34q-74 0 -119.5 -17t-76 -65.5t-42.5 -129t-12 -212.5q0 -176 24 -267.5t77 -127t153 -35.5
q74 0 119.5 18t76 67.5t42.5 131t12 213.5zM981 1620h-317l-271 252h457z" />
    <glyph glyph-name="Oacute" unicode="&#xd3;" horiz-adv-x="1540" 
d="M1473 768q0 -416 -167 -606.5t-536 -190.5q-363 0 -532.5 194.5t-169.5 602.5q0 409 167 601t535 192t535.5 -192t167.5 -601zM1022 768q0 177 -23.5 266.5t-75.5 123.5t-155 34q-74 0 -119.5 -17t-76 -65.5t-42.5 -129t-12 -212.5q0 -176 24 -267.5t77 -127t153 -35.5
q74 0 119.5 18t76 67.5t42.5 131t12 213.5zM705 1868h491l-295 -250h-313z" />
    <glyph glyph-name="Ocircumflex" unicode="&#xd4;" horiz-adv-x="1540" 
d="M1473 768q0 -416 -167 -606.5t-536 -190.5q-363 0 -532.5 194.5t-169.5 602.5q0 409 167 601t535 192t535.5 -192t167.5 -601zM1022 768q0 177 -23.5 266.5t-75.5 123.5t-155 34q-74 0 -119.5 -17t-76 -65.5t-42.5 -129t-12 -212.5q0 -176 24 -267.5t77 -127t153 -35.5
q74 0 119.5 18t76 67.5t42.5 131t12 213.5zM559 1868h420l207 -250h-338l-78 92l-78 -92h-332z" />
    <glyph glyph-name="Otilde" unicode="&#xd5;" horiz-adv-x="1540" 
d="M1473 768q0 -416 -167 -606.5t-536 -190.5q-363 0 -532.5 194.5t-169.5 602.5q0 409 167 601t535 192t535.5 -192t167.5 -601zM1022 768q0 177 -23.5 266.5t-75.5 123.5t-155 34q-74 0 -119.5 -17t-76 -65.5t-42.5 -129t-12 -212.5q0 -176 24 -267.5t77 -127t153 -35.5
q74 0 119.5 18t76 67.5t42.5 131t12 213.5zM571 1620l-176 2q3 117 66.5 188.5t169.5 71.5q64 0 125 -16t107 -31.5t71 -15.5q26 0 38.5 9t16.5 34l168 -2q-3 -120 -67.5 -190.5t-169.5 -70.5q-63 0 -121 16.5t-100.5 33t-67.5 16.5q-23 0 -40 -13t-20 -32z" />
    <glyph glyph-name="Odieresis" unicode="&#xd6;" horiz-adv-x="1540" 
d="M1473 768q0 -416 -167 -606.5t-536 -190.5q-363 0 -532.5 194.5t-169.5 602.5q0 409 167 601t535 192t535.5 -192t167.5 -601zM1022 768q0 177 -23.5 266.5t-75.5 123.5t-155 34q-74 0 -119.5 -17t-76 -65.5t-42.5 -129t-12 -212.5q0 -176 24 -267.5t77 -127t153 -35.5
q74 0 119.5 18t76 67.5t42.5 131t12 213.5zM723 1753q0 -141 -158 -141q-81 0 -119 33t-38 108q0 145 157 145q158 0 158 -145zM1139 1753q0 -70 -38.5 -105.5t-121.5 -35.5q-80 0 -119 33t-39 108q0 71 40 108t118 37q160 0 160 -145z" />
    <glyph glyph-name="multiply" unicode="&#xd7;" horiz-adv-x="1239" 
d="M1102 412l-228 -234l-256 254l-253 -256l-228 234l256 254l-262 258l225 235l265 -262l262 262l225 -233l-264 -260z" />
    <glyph glyph-name="Oslash" unicode="&#xd8;" horiz-adv-x="1540" 
d="M248 -39l-199 176l115 137q-96 182 -96 494q0 409 167 601t535 192q275 0 436 -109l99 115l196 -181l-119 -139q88 -183 88 -479q0 -417 -165.5 -607t-534.5 -190q-268 0 -428 103zM516 768q0 -94 2 -133l4 -2l107 125l325 372q-54 62 -186 62q-99 0 -151 -34t-76.5 -125
t-24.5 -265zM1022 768v117l-4 2l-109 -127l-319 -365q54 -57 180 -57q100 0 152.5 36t76 127.5t23.5 266.5z" />
    <glyph glyph-name="Ugrave" unicode="&#xd9;" horiz-adv-x="1474" 
d="M1378 1536v-987q0 -286 -160 -432t-479 -146t-481 146t-162 432v987h428v-983q0 -109 50.5 -159t166.5 -50q114 0 162.5 49t48.5 160v983h426zM930 1620h-318l-270 252h457z" />
    <glyph glyph-name="Uacute" unicode="&#xda;" horiz-adv-x="1474" 
d="M1378 1536v-987q0 -286 -160 -432t-479 -146t-481 146t-162 432v987h428v-983q0 -109 50.5 -159t166.5 -50q114 0 162.5 49t48.5 160v983h426zM674 1868h491l-295 -250h-313z" />
    <glyph glyph-name="Ucircumflex" unicode="&#xdb;" horiz-adv-x="1474" 
d="M1378 1536v-987q0 -286 -160 -432t-479 -146t-481 146t-162 432v987h428v-983q0 -109 50.5 -159t166.5 -50q114 0 162.5 49t48.5 160v983h426zM526 1868h420l207 -250h-338l-78 92l-78 -92h-331z" />
    <glyph glyph-name="Udieresis" unicode="&#xdc;" horiz-adv-x="1474" 
d="M1378 1536v-987q0 -286 -160 -432t-479 -146t-481 146t-162 432v987h428v-983q0 -109 50.5 -159t166.5 -50q114 0 162.5 49t48.5 160v983h426zM690 1753q0 -141 -158 -141q-81 0 -119 33t-38 108q0 145 157 145q158 0 158 -145zM1106 1753q0 -70 -38.5 -105.5
t-121.5 -35.5q-80 0 -119 33t-39 108q0 71 40 108t118 37q160 0 160 -145z" />
    <glyph glyph-name="Yacute" unicode="&#xdd;" horiz-adv-x="1462" 
d="M-6 1536h479l209 -518l59 -154h7l55 156l201 516h466l-514 -1061v-475h-438v475zM672 1868h491l-295 -250h-313z" />
    <glyph glyph-name="Thorn" unicode="&#xde;" horiz-adv-x="1378" 
d="M1327 768q0 -127 -36 -222t-112.5 -164t-202 -104.5t-298.5 -35.5h-135v-242h-428v1536h428v-219h135q343 0 496 -134t153 -415zM885 770q0 122 -42.5 162.5t-166.5 40.5h-133v-404h135q61 0 97 7.5t62.5 29.5t37 61t10.5 103z" />
    <glyph glyph-name="germandbls" unicode="&#xdf;" horiz-adv-x="1376" 
d="M111 0v987q0 576 553 576q218 0 351.5 -108.5t133.5 -270.5q0 -54 -22 -104t-48.5 -80t-48.5 -61t-22 -50q0 -13 18 -29.5t46.5 -35t63 -42t68.5 -57t62.5 -73t46.5 -95.5t18 -121q0 -208 -139.5 -332t-366.5 -124q-175 0 -268 59l18 319q28 -18 79 -29.5t104 -11.5
q170 0 170 107q0 44 -35.5 84.5t-86 74t-101 68.5t-86 84t-35.5 105q0 49 29 100t63 86t63 75.5t29 69.5q0 36 -29.5 57t-83.5 21q-83 0 -117 -50.5t-34 -176.5v-1022h-393z" />
    <glyph glyph-name="agrave" unicode="&#xe0;" horiz-adv-x="1198" 
d="M805 0l-29 102q-128 -122 -325 -122q-187 0 -289.5 106t-102.5 313q0 175 120 285.5t327 110.5q111 0 211 -27v45q0 72 -47.5 107.5t-159.5 35.5q-101 0 -174 -14.5t-168 -48.5l-31 299q192 82 447 82q147 0 248.5 -31.5t162 -97.5t87 -160t26.5 -227v-758h-303zM717 391
v127q-69 19 -135 19q-154 0 -154 -134q0 -127 131 -127q65 0 111.5 32.5t46.5 82.5zM776 1337h-297l-258 299h443z" />
    <glyph glyph-name="aacute" unicode="&#xe1;" horiz-adv-x="1198" 
d="M805 0l-29 102q-128 -122 -325 -122q-187 0 -289.5 106t-102.5 313q0 175 120 285.5t327 110.5q111 0 211 -27v45q0 72 -47.5 107.5t-159.5 35.5q-101 0 -174 -14.5t-168 -48.5l-31 299q192 82 447 82q147 0 248.5 -31.5t162 -97.5t87 -160t26.5 -227v-758h-303zM717 391
v127q-69 19 -135 19q-154 0 -154 -134q0 -127 131 -127q65 0 111.5 32.5t46.5 82.5zM506 1636h444l-254 -299h-293z" />
    <glyph glyph-name="acircumflex" unicode="&#xe2;" horiz-adv-x="1198" 
d="M805 0l-29 102q-128 -122 -325 -122q-187 0 -289.5 106t-102.5 313q0 175 120 285.5t327 110.5q111 0 211 -27v45q0 72 -47.5 107.5t-159.5 35.5q-101 0 -174 -14.5t-168 -48.5l-31 299q192 82 447 82q147 0 248.5 -31.5t162 -97.5t87 -160t26.5 -227v-758h-303zM717 391
v127q-69 19 -135 19q-154 0 -154 -134q0 -127 131 -127q65 0 111.5 32.5t46.5 82.5zM420 1636h342l199 -299h-289l-72 142h-12l-74 -142h-289z" />
    <glyph glyph-name="atilde" unicode="&#xe3;" horiz-adv-x="1198" 
d="M805 0l-29 102q-128 -122 -325 -122q-187 0 -289.5 106t-102.5 313q0 175 120 285.5t327 110.5q111 0 211 -27v45q0 72 -47.5 107.5t-159.5 35.5q-101 0 -174 -14.5t-168 -48.5l-31 299q192 82 447 82q147 0 248.5 -31.5t162 -97.5t87 -160t26.5 -227v-758h-303zM717 391
v127q-69 19 -135 19q-154 0 -154 -134q0 -127 131 -127q65 0 111.5 32.5t46.5 82.5zM406 1354h-179q3 129 66 212t168 83q49 0 92.5 -14.5t69.5 -32t57.5 -32t58.5 -14.5q46 0 64 70l176 -2q-3 -131 -67 -211t-167 -80q-48 0 -92 14t-70 31t-57.5 31t-58.5 14
q-25 0 -40.5 -19.5t-20.5 -49.5z" />
    <glyph glyph-name="adieresis" unicode="&#xe4;" horiz-adv-x="1198" 
d="M805 0l-29 102q-128 -122 -325 -122q-187 0 -289.5 106t-102.5 313q0 175 120 285.5t327 110.5q111 0 211 -27v45q0 72 -47.5 107.5t-159.5 35.5q-101 0 -174 -14.5t-168 -48.5l-31 299q192 82 447 82q147 0 248.5 -31.5t162 -97.5t87 -160t26.5 -227v-758h-303zM717 391
v127q-69 19 -135 19q-154 0 -154 -134q0 -127 131 -127q65 0 111.5 32.5t46.5 82.5zM559 1499q0 -75 -38.5 -112t-121.5 -37t-121 34.5t-38 114.5q0 154 159 154q83 0 121.5 -38.5t38.5 -115.5zM961 1499q0 -75 -38.5 -112t-121.5 -37t-121.5 34.5t-38.5 114.5
q0 154 160 154q83 0 121.5 -38.5t38.5 -115.5z" />
    <glyph glyph-name="aring" unicode="&#xe5;" horiz-adv-x="1198" 
d="M805 0l-29 102q-128 -122 -325 -122q-187 0 -289.5 106t-102.5 313q0 175 120 285.5t327 110.5q111 0 211 -27v45q0 72 -47.5 107.5t-159.5 35.5q-101 0 -174 -14.5t-168 -48.5l-31 299q192 82 447 82q147 0 248.5 -31.5t162 -97.5t87 -160t26.5 -227v-758h-303zM717 391
v127q-69 19 -135 19q-154 0 -154 -134q0 -127 131 -127q65 0 111.5 32.5t46.5 82.5zM309 1520q0 94 67 144t220 50q148 0 218.5 -51.5t70.5 -142.5q0 -102 -67.5 -148.5t-221.5 -46.5q-149 0 -218 45t-69 150zM498 1518q0 -29 21 -41.5t83 -12.5q56 0 79.5 13t23.5 41
q0 26 -23 39.5t-80 13.5q-60 0 -82 -12.5t-22 -40.5z" />
    <glyph glyph-name="ae" unicode="&#xe6;" horiz-adv-x="1841" 
d="M584 1272q249 0 358 -109q133 111 342 111q234 0 370 -148t136 -436q0 -91 -10 -176h-686q13 -112 82 -160.5t208 -48.5q170 0 330 57l43 -309q-176 -76 -422 -76q-303 0 -458 162q-138 -159 -388 -159q-430 0 -430 419q0 175 120 285.5t327 110.5q111 0 211 -27v45
q0 72 -47.5 107.5t-159.5 35.5q-101 0 -174 -14.5t-168 -48.5l-31 299q198 80 447 80zM717 401v117q-69 19 -135 19q-154 0 -154 -134q0 -127 131 -127q67 0 112.5 34t45.5 91zM1085 762h345q-3 105 -45.5 152t-124.5 47q-90 0 -128 -43t-47 -156z" />
    <glyph glyph-name="ccedilla" unicode="&#xe7;" horiz-adv-x="1003" 
d="M352 -385l140 373q-216 38 -327.5 197t-111.5 433q0 654 596 654q75 0 157.5 -13.5t139.5 -35.5l-20 -320q-114 31 -191 31q-156 0 -214 -69.5t-58 -246.5q0 -319 264 -319q110 0 205 37l26 -295q-78 -45 -200 -59l-60 -367h-346z" />
    <glyph glyph-name="egrave" unicode="&#xe8;" horiz-adv-x="1210" 
d="M705 -23q-652 0 -652 658q0 307 143 473t431 166q255 0 393.5 -146.5t138.5 -437.5q0 -91 -10 -176h-686q12 -112 81.5 -160.5t209.5 -48.5q175 0 329 51l43 -303q-176 -76 -421 -76zM455 762h344q-3 105 -44.5 152t-125.5 47q-90 0 -127.5 -42.5t-46.5 -156.5zM809 1337
h-297l-258 299h442z" />
    <glyph glyph-name="eacute" unicode="&#xe9;" horiz-adv-x="1210" 
d="M705 -23q-652 0 -652 658q0 307 143 473t431 166q255 0 393.5 -146.5t138.5 -437.5q0 -91 -10 -176h-686q12 -112 81.5 -160.5t209.5 -48.5q175 0 329 51l43 -303q-176 -76 -421 -76zM455 762h344q-3 105 -44.5 152t-125.5 47q-90 0 -127.5 -42.5t-46.5 -156.5zM539 1636
h444l-254 -299h-293z" />
    <glyph glyph-name="ecircumflex" unicode="&#xea;" horiz-adv-x="1210" 
d="M705 -23q-652 0 -652 658q0 307 143 473t431 166q255 0 393.5 -146.5t138.5 -437.5q0 -91 -10 -176h-686q12 -112 81.5 -160.5t209.5 -48.5q175 0 329 51l43 -303q-176 -76 -421 -76zM455 762h344q-3 105 -44.5 152t-125.5 47q-90 0 -127.5 -42.5t-46.5 -156.5zM453 1636
h342l198 -299h-288l-72 142h-12l-74 -142h-289z" />
    <glyph glyph-name="edieresis" unicode="&#xeb;" horiz-adv-x="1210" 
d="M705 -23q-652 0 -652 658q0 307 143 473t431 166q255 0 393.5 -146.5t138.5 -437.5q0 -91 -10 -176h-686q12 -112 81.5 -160.5t209.5 -48.5q175 0 329 51l43 -303q-176 -76 -421 -76zM455 762h344q-3 105 -44.5 152t-125.5 47q-90 0 -127.5 -42.5t-46.5 -156.5zM565 1499
q0 -75 -38 -112t-121 -37t-121.5 34.5t-38.5 114.5q0 154 160 154q83 0 121 -38.5t38 -115.5zM967 1499q0 -75 -38.5 -112t-121.5 -37t-121.5 34.5t-38.5 114.5q0 154 160 154q83 0 121.5 -38.5t38.5 -115.5z" />
    <glyph glyph-name="igrave" unicode="&#xec;" horiz-adv-x="663" 
d="M532 0h-403v1241l403 19v-1260zM522 1337h-297l-258 299h443z" />
    <glyph glyph-name="iacute" unicode="&#xed;" horiz-adv-x="663" 
d="M532 0h-403v1241l403 19v-1260zM252 1636h444l-254 -299h-292z" />
    <glyph glyph-name="icircumflex" unicode="&#xee;" horiz-adv-x="663" 
d="M532 0h-403v1241l403 19v-1260zM166 1636h342l199 -299h-289l-72 142h-12l-74 -142h-289z" />
    <glyph glyph-name="idieresis" unicode="&#xef;" horiz-adv-x="663" 
d="M532 0h-403v1241l403 19v-1260zM301 1499q0 -75 -38.5 -112t-121.5 -37t-121 34.5t-38 114.5q0 154 159 154q83 0 121.5 -38.5t38.5 -115.5zM702 1499q0 -75 -38 -112t-121 -37t-121.5 34.5t-38.5 114.5q0 154 160 154q83 0 121 -38.5t38 -115.5z" />
    <glyph glyph-name="eth" unicode="&#xf0;" horiz-adv-x="1292" 
d="M1044 1462l-139 -78q151 -151 242.5 -333t91.5 -363q0 -376 -144 -543.5t-446 -167.5q-107 0 -193 17t-163 59t-128.5 109t-81.5 171t-30 240q0 259 127 396t361 137q130 0 223 -41l4 4q-64 88 -143 164l-179 -98l-135 145l146 82q-64 43 -162 94l276 172
q94 -50 168 -102l176 100zM463 559q0 -107 21 -167t56.5 -80.5t94.5 -20.5q102 0 147.5 71t46.5 238q0 101 -47.5 144.5t-142.5 43.5q-98 0 -137 -50t-39 -179z" />
    <glyph glyph-name="ntilde" unicode="&#xf1;" horiz-adv-x="1298" 
d="M1206 0h-395v782q0 84 -37.5 122t-114.5 38q-50 0 -93.5 -19t-69.5 -53v-870h-394v1245l283 17l55 -99q140 113 332 113q201 0 317.5 -129.5t116.5 -364.5v-782zM477 1354h-178q3 129 65.5 212t167.5 83q49 0 93 -14.5t70 -32t57.5 -32t58.5 -14.5q45 0 63 70l177 -2
q-3 -131 -67 -211t-167 -80q-48 0 -92 14t-70 31t-57.5 31t-58.5 14q-25 0 -41 -19.5t-21 -49.5z" />
    <glyph glyph-name="ograve" unicode="&#xf2;" horiz-adv-x="1290" 
d="M1237 621q0 -343 -140.5 -496.5t-451.5 -153.5q-309 0 -450.5 153.5t-141.5 496.5t142.5 499t451.5 156t449.5 -155.5t140.5 -499.5zM463 621q0 -139 18.5 -213t56.5 -101.5t109 -27.5q70 0 108 28t56 101.5t18 212.5q0 141 -18 214.5t-55.5 100.5t-108.5 27
q-72 0 -109.5 -27t-56 -100.5t-18.5 -214.5zM829 1337h-297l-258 299h443z" />
    <glyph glyph-name="oacute" unicode="&#xf3;" horiz-adv-x="1290" 
d="M1237 621q0 -343 -140.5 -496.5t-451.5 -153.5q-309 0 -450.5 153.5t-141.5 496.5t142.5 499t451.5 156t449.5 -155.5t140.5 -499.5zM463 621q0 -139 18.5 -213t56.5 -101.5t109 -27.5q70 0 108 28t56 101.5t18 212.5q0 141 -18 214.5t-55.5 100.5t-108.5 27
q-72 0 -109.5 -27t-56 -100.5t-18.5 -214.5zM559 1636h445l-254 -299h-293z" />
    <glyph glyph-name="ocircumflex" unicode="&#xf4;" horiz-adv-x="1290" 
d="M1237 621q0 -343 -140.5 -496.5t-451.5 -153.5q-309 0 -450.5 153.5t-141.5 496.5t142.5 499t451.5 156t449.5 -155.5t140.5 -499.5zM463 621q0 -139 18.5 -213t56.5 -101.5t109 -27.5q70 0 108 28t56 101.5t18 212.5q0 141 -18 214.5t-55.5 100.5t-108.5 27
q-72 0 -109.5 -27t-56 -100.5t-18.5 -214.5zM473 1636h342l199 -299h-289l-72 142h-12l-74 -142h-288z" />
    <glyph glyph-name="otilde" unicode="&#xf5;" horiz-adv-x="1290" 
d="M1237 621q0 -343 -140.5 -496.5t-451.5 -153.5q-309 0 -450.5 153.5t-141.5 496.5t142.5 499t451.5 156t449.5 -155.5t140.5 -499.5zM463 621q0 -139 18.5 -213t56.5 -101.5t109 -27.5q70 0 108 28t56 101.5t18 212.5q0 141 -18 214.5t-55.5 100.5t-108.5 27
q-72 0 -109.5 -27t-56 -100.5t-18.5 -214.5zM459 1354h-178q3 129 65.5 212t167.5 83q49 0 93 -14.5t70 -32t57.5 -32t58.5 -14.5q45 0 63 70l176 -2q-3 -131 -67 -211t-166 -80q-48 0 -92 14t-70.5 31t-58 31t-58.5 14q-25 0 -40.5 -19.5t-20.5 -49.5z" />
    <glyph glyph-name="odieresis" unicode="&#xf6;" horiz-adv-x="1290" 
d="M1237 621q0 -343 -140.5 -496.5t-451.5 -153.5q-309 0 -450.5 153.5t-141.5 496.5t142.5 499t451.5 156t449.5 -155.5t140.5 -499.5zM463 621q0 -139 18.5 -213t56.5 -101.5t109 -27.5q70 0 108 28t56 101.5t18 212.5q0 141 -18 214.5t-55.5 100.5t-108.5 27
q-72 0 -109.5 -27t-56 -100.5t-18.5 -214.5zM604 1499q0 -75 -38.5 -112t-121.5 -37t-121 34.5t-38 114.5q0 154 159 154q83 0 121.5 -38.5t38.5 -115.5zM1006 1499q0 -75 -38.5 -112t-121.5 -37t-121.5 34.5t-38.5 114.5q0 154 160 154q83 0 121.5 -38.5t38.5 -115.5z" />
    <glyph glyph-name="divide" unicode="&#xf7;" horiz-adv-x="1239" 
d="M858 1102q0 -178 -237 -178q-121 0 -179.5 39.5t-58.5 138.5q0 89 61 134.5t177 45.5q237 0 237 -180zM858 266q0 -176 -237 -176q-121 0 -179.5 39.5t-58.5 136.5q0 90 61 136.5t177 46.5q237 0 237 -183zM1130 510h-1021v348h1021v-348z" />
    <glyph glyph-name="oslash" unicode="&#xf8;" horiz-adv-x="1290" 
d="M215 -39l-162 143l84 101q-84 147 -84 416q0 343 142.5 499t451.5 156q211 0 344 -74l74 88l162 -143l-80 -96q90 -153 90 -430q0 -343 -140.5 -496.5t-451.5 -153.5q-224 0 -356 78zM829 621q0 52 2 77l-4 2l-110 -125l-213 -229q38 -67 143 -67q70 0 108 28t56 101.5
t18 212.5zM463 621v-54h6l104 121l207 221q-38 54 -133 54q-72 0 -109.5 -27t-56 -100.5t-18.5 -214.5z" />
    <glyph glyph-name="ugrave" unicode="&#xf9;" horiz-adv-x="1286" 
d="M1196 1253v-796q0 -480 -553 -480q-276 0 -413.5 122.5t-137.5 357.5v796h393v-790q0 -76 38 -113t122 -37q82 0 119 36t37 114v790h395zM827 1337h-297l-258 299h443z" />
    <glyph glyph-name="uacute" unicode="&#xfa;" horiz-adv-x="1286" 
d="M1196 1253v-796q0 -480 -553 -480q-276 0 -413.5 122.5t-137.5 357.5v796h393v-790q0 -76 38 -113t122 -37q82 0 119 36t37 114v790h395zM557 1636h444l-253 -299h-293z" />
    <glyph glyph-name="ucircumflex" unicode="&#xfb;" horiz-adv-x="1286" 
d="M1196 1253v-796q0 -480 -553 -480q-276 0 -413.5 122.5t-137.5 357.5v796h393v-790q0 -76 38 -113t122 -37q82 0 119 36t37 114v790h395zM471 1636h342l199 -299h-289l-72 142h-12l-74 -142h-289z" />
    <glyph glyph-name="udieresis" unicode="&#xfc;" horiz-adv-x="1286" 
d="M1196 1253v-796q0 -480 -553 -480q-276 0 -413.5 122.5t-137.5 357.5v796h393v-790q0 -76 38 -113t122 -37q82 0 119 36t37 114v790h395zM602 1499q0 -75 -38.5 -112t-121.5 -37t-121 34.5t-38 114.5q0 154 159 154q83 0 121.5 -38.5t38.5 -115.5zM1004 1499
q0 -75 -38.5 -112t-121.5 -37t-121.5 34.5t-38.5 114.5q0 154 160 154q83 0 121.5 -38.5t38.5 -115.5z" />
    <glyph glyph-name="yacute" unicode="&#xfd;" horiz-adv-x="1357" 
d="M362 -72q67 0 110.5 22t68.5 79l4 12l-533 1212h447l221 -667l49 -158h6l35 162l158 663h418l-414 -1224q-71 -199 -192.5 -290t-305.5 -91q-124 0 -225 39l29 266q62 -25 124 -25zM606 1636h445l-254 -299h-293z" />
    <glyph glyph-name="thorn" unicode="&#xfe;" horiz-adv-x="1306" 
d="M1253 629q0 -315 -129.5 -482t-351.5 -167q-159 0 -264 77l-6 -2l4 -166v-211h-395v1905l393 19v-265l-4 -163l6 -5q127 105 295 105q108 0 189.5 -34.5t141.5 -109.5t90.5 -200.5t30.5 -300.5zM844 631q0 125 -17.5 191t-54 92t-104.5 26q-108 0 -162 -80v-483
q57 -84 156 -84q46 0 77 13.5t56 49t37 103.5t12 172z" />
    <glyph glyph-name="ydieresis" unicode="&#xff;" horiz-adv-x="1357" 
d="M362 -72q67 0 110.5 22t68.5 79l4 12l-533 1212h447l221 -667l49 -158h6l35 162l158 663h418l-414 -1224q-71 -199 -192.5 -290t-305.5 -91q-124 0 -225 39l29 266q62 -25 124 -25zM641 1499q0 -75 -38.5 -112t-121.5 -37t-121 34.5t-38 114.5q0 154 159 154
q83 0 121.5 -38.5t38.5 -115.5zM1042 1499q0 -75 -38 -112t-121 -37t-121.5 34.5t-38.5 114.5q0 154 160 154q83 0 121 -38.5t38 -115.5z" />
    <glyph glyph-name="dotlessi" unicode="&#x131;" horiz-adv-x="663" 
d="M532 0h-403v1241l403 19v-1260z" />
    <glyph glyph-name="IJ" unicode="&#x132;" horiz-adv-x="1806" 
d="M133 0v1536h438v-1536h-438zM1692 1536v-948q0 -169 -45 -290t-132.5 -192t-203.5 -103t-271 -32q-174 0 -305 56l23 346q77 -41 213 -41q145 0 214.5 61.5t69.5 200.5v942h437z" />
    <glyph glyph-name="ij" unicode="&#x133;" horiz-adv-x="1329" 
d="M545 0h-404v1241l404 19v-1260zM557 1499q0 -78 -51 -115.5t-162 -37.5q-113 0 -164 35t-51 118q0 154 215 154q213 0 213 -154zM1214 1260v-1233q0 -103 -31.5 -177.5t-88 -115.5t-124 -59.5t-151.5 -18.5q-101 0 -186 29l18 264q38 -10 70 -10q45 0 71.5 24t26.5 74
v1206zM1225 1499q0 -76 -51.5 -113.5t-163.5 -37.5t-163.5 34.5t-51.5 116.5q0 154 215 154q112 0 163.5 -38.5t51.5 -115.5z" />
    <glyph glyph-name="Lslash" unicode="&#x141;" horiz-adv-x="1239" 
d="M629 369h579l-8 -369h-1003v551l-134 -53l-28 323l162 66v649h432v-492l338 136l37 -338l-375 -142v-331z" />
    <glyph glyph-name="lslash" unicode="&#x142;" horiz-adv-x="782" 
d="M43 600l-2 324l147 65v594l400 19v-453l157 74v-316l-157 -76v-831h-400v668z" />
    <glyph glyph-name="OE" unicode="&#x152;" horiz-adv-x="2160" 
d="M2097 0h-1042v88l-4 2q-131 -119 -365 -119q-304 0 -461 198t-157 599q0 403 155 598t469 195q221 0 359 -109l4 2v82h1013l9 -362h-635v-226h524v-327h-524v-263h663zM1022 768q0 177 -23.5 266.5t-75.5 123.5t-155 34q-74 0 -119.5 -17t-76 -65.5t-42.5 -129
t-12 -212.5q0 -176 24 -267.5t77 -127t153 -35.5q74 0 119.5 18t76 67.5t42.5 131t12 213.5z" />
    <glyph glyph-name="oe" unicode="&#x153;" horiz-adv-x="1986" 
d="M1495 -23q-310 0 -451 150q-126 -156 -428 -156q-289 0 -426 154.5t-137 495.5q0 340 138.5 497.5t424.5 157.5q287 0 418 -143q128 141 383 141q245 0 381.5 -147t136.5 -437q0 -74 -12 -176h-684q12 -112 82 -160.5t209 -48.5q170 0 330 57l43 -309q-80 -34 -189 -55
t-219 -21zM463 621q0 -140 19 -213.5t57 -101t110 -27.5q70 0 107.5 28t55 101.5t17.5 212.5q0 141 -18 214.5t-55 100.5t-109 27t-109.5 -27t-56 -100.5t-18.5 -214.5zM1231 762h342q-3 105 -44.5 152t-123.5 47q-90 0 -127.5 -42.5t-46.5 -156.5z" />
    <glyph glyph-name="Scaron" unicode="&#x160;" horiz-adv-x="1193" 
d="M1151 471q0 -231 -159.5 -365.5t-436.5 -134.5q-271 0 -489 113l53 354q218 -110 432 -110q100 0 145 29t45 87q0 30 -23 54t-62 41.5t-89.5 35t-106 38t-111.5 45.5t-106.5 62.5t-89.5 84t-62 115t-23 151.5q0 104 34 191.5t103 155.5t183.5 106.5t264.5 38.5
q248 0 447 -78l-49 -346q-201 59 -373 59q-115 0 -157 -27t-42 -77q0 -30 23 -54t62 -42t89.5 -35t106 -37t111 -44.5t106 -61.5t89.5 -83t62 -114.5t23 -151.5zM856 1618h-418l-202 250h335l78 -101l80 101h334z" />
    <glyph glyph-name="scaron" unicode="&#x161;" horiz-adv-x="1024" 
d="M973 406q0 -202 -121.5 -316.5t-378.5 -114.5q-234 0 -397 78l39 312q75 -39 174.5 -59.5t181.5 -20.5q137 0 137 86q0 28 -23.5 48.5t-62 33t-87.5 28t-100.5 31t-100.5 45t-87.5 67.5t-62 101t-23.5 143q0 182 126.5 294t371.5 112q192 0 365 -70l-29 -307
q-72 29 -169 44t-173 15q-115 0 -115 -71q0 -26 23 -46t60.5 -32t85.5 -27t98.5 -30t98.5 -44t85.5 -65.5t60.5 -97t23 -137.5zM707 1337h-345l-192 299h287l71 -153h13l71 153h293z" />
    <glyph glyph-name="Ydieresis" unicode="&#x178;" horiz-adv-x="1462" 
d="M-6 1536h479l209 -518l59 -154h7l55 156l201 516h466l-514 -1061v-475h-438v475zM690 1753q0 -141 -158 -141q-81 0 -119 33t-38 108q0 145 157 145q158 0 158 -145zM1106 1753q0 -70 -38.5 -105.5t-121.5 -35.5q-80 0 -119 33t-39 108q0 71 40 108t118 37
q160 0 160 -145z" />
    <glyph glyph-name="Zcaron" unicode="&#x17d;" horiz-adv-x="1265" 
d="M1198 0h-1143v268l531 762l96 131l-2 4h-612l12 371h1116v-299l-512 -733l-96 -129l2 -6h614zM860 1618h-418l-202 250h335l78 -101l80 101h334z" />
    <glyph glyph-name="zcaron" unicode="&#x17e;" horiz-adv-x="1097" 
d="M1020 987l-406 -543l-100 -125l2 -6h524l-8 -313h-969v266l404 541l100 127l-2 4h-489l12 315h932v-266zM727 1337h-344l-193 299h287l72 -153h12l72 153h293z" />
    <glyph glyph-name="florin" unicode="&#x192;" horiz-adv-x="897" 
d="M319 -319h-393l277 1282h-127l61 288h125l12 64q30 135 157 225t333 90q107 0 205 -26l-76 -246q-46 12 -100 12q-110 0 -123 -65l-11 -54h228l-62 -288h-229z" />
    <glyph glyph-name="circumflex" unicode="&#x2c6;" 
d="M248 1636h342l198 -299h-288l-72 142h-12l-74 -142h-289z" />
    <glyph glyph-name="caron" unicode="&#x2c7;" 
d="M594 1337h-344l-193 299h287l72 -153h12l72 153h293z" />
    <glyph glyph-name="breve" unicode="&#x2d8;" 
d="M502 1636h266q0 -158 -84 -237.5t-266 -79.5q-189 0 -268.5 80t-79.5 237h260q3 -127 88 -127q84 0 84 127z" />
    <glyph glyph-name="dotaccent" unicode="&#x2d9;" 
d="M635 1499q0 -76 -51.5 -113.5t-163.5 -37.5q-111 0 -162 34.5t-51 116.5q0 154 213 154q112 0 163.5 -38.5t51.5 -115.5z" />
    <glyph glyph-name="ring" unicode="&#x2da;" 
d="M135 1520q0 94 67 144t220 50q148 0 218.5 -51.5t70.5 -142.5q0 -102 -67.5 -148.5t-221.5 -46.5q-149 0 -218 45t-69 150zM324 1518q0 -29 21 -41.5t83 -12.5q56 0 79 13t23 41q0 27 -22.5 40t-79.5 13q-60 0 -82 -12.5t-22 -40.5z" />
    <glyph glyph-name="ogonek" unicode="&#x2db;" 
d="M561 -393q-135 0 -204.5 53t-69.5 143q0 181 235 248l156 -51q-96 -23 -96 -98q0 -66 94 -66q45 0 88 19l31 -197q-97 -51 -234 -51z" />
    <glyph glyph-name="tilde" unicode="&#x2dc;" 
d="M236 1354h-179q3 129 66 212t168 83q49 0 92.5 -14.5t69.5 -32t57.5 -32t58.5 -14.5q46 0 64 70l176 -2q-3 -131 -67 -211t-167 -80q-48 0 -92 14t-70 31t-57.5 31t-58.5 14q-25 0 -40.5 -19.5t-20.5 -49.5z" />
    <glyph glyph-name="hungarumlaut" unicode="&#x2dd;" 
d="M178 1636h391l-221 -299h-250zM625 1636h399l-254 -299h-285z" />
    <glyph glyph-name="Delta" unicode="&#x394;" horiz-adv-x="1505" 
d="M893 1542l569 -1542h-1423l571 1542h283zM748 1028l-52 -160l-184 -538h465l-176 538l-47 160h-6z" />
    <glyph glyph-name="Omega" unicode="&#x3a9;" horiz-adv-x="1529" 
d="M766 1559q160 0 286 -38.5t217.5 -116t140 -202t48.5 -289.5q0 -372 -287 -579v-6h289v-328h-647v479q46 39 78 75.5t61 86.5t43.5 113.5t14.5 140.5q0 165 -59.5 233t-184.5 68t-184.5 -68t-59.5 -233q0 -101 28 -182t67 -130.5t102 -103.5v-479h-647v328h280l2 6
q-282 202 -282 577q0 318 185.5 483t508.5 165z" />
    <glyph glyph-name="mu" unicode="&#x3bc;" horiz-adv-x="1296" 
d="M668 -18q-148 0 -222 112l-4 -2q18 -250 37 -401l-377 -29v1591h394v-790q0 -66 44 -106t117 -40q72 0 113 35t41 103v798h395v-1243l-280 -22l-45 75q-88 -81 -213 -81z" />
    <glyph glyph-name="pi" unicode="&#x3c0;" horiz-adv-x="1402" 
d="M811 367v561h-207v-928h-395v922q-68 -5 -121 -29l-82 295q105 65 354 65h973v-325h-127v-561q0 -54 22.5 -75.5t82.5 -21.5v-282q-150 0 -246 20t-153 67.5t-79 116t-22 175.5z" />
    <glyph glyph-name="endash" unicode="&#x2013;" horiz-adv-x="1036" 
d="M84 838h868v-273h-868v273z" />
    <glyph glyph-name="emdash" unicode="&#x2014;" horiz-adv-x="1415" 
d="M84 838h1247v-273h-1247v273z" />
    <glyph glyph-name="quoteleft" unicode="&#x2018;" horiz-adv-x="544" 
d="M276 1006q-109 0 -162 58t-53 163q0 90 64.5 224.5t144.5 227.5l142 -32l-54 -246q51 -24 89 -74.5t38 -109.5q0 -97 -50.5 -154t-158.5 -57z" />
    <glyph glyph-name="quoteright" unicode="&#x2019;" horiz-adv-x="546" 
d="M268 1591q110 0 163.5 -57.5t53.5 -163.5q0 -90 -65 -224.5t-146 -227.5l-139 32l51 246q-51 24 -89 75t-38 111q0 96 50.5 152.5t158.5 56.5z" />
    <glyph glyph-name="quotesinglbase" unicode="&#x201a;" horiz-adv-x="546" 
d="M268 375q110 0 163.5 -57.5t53.5 -163.5q0 -90 -65 -225.5t-146 -227.5l-139 33l51 246q-51 24 -89 75t-38 111q0 96 50.5 152.5t158.5 56.5z" />
    <glyph glyph-name="quotedblleft" unicode="&#x201c;" horiz-adv-x="1034" 
d="M276 1006q-109 0 -162 58t-53 163q0 90 64.5 224.5t144.5 227.5l142 -32l-54 -246q51 -24 89 -74.5t38 -109.5q0 -97 -50.5 -154t-158.5 -57zM766 1006q-109 0 -163 58.5t-54 164.5q0 89 64.5 223t144.5 229l141 -34l-51 -244q51 -26 89 -76t38 -110q0 -97 -51 -154
t-158 -57z" />
    <glyph glyph-name="quotedblright" unicode="&#x201d;" horiz-adv-x="1034" 
d="M268 1585q110 0 163.5 -57.5t53.5 -163.5q0 -90 -65 -225.5t-146 -227.5l-139 33l51 246q-51 24 -89 75t-38 111q0 96 50.5 152.5t158.5 56.5zM756 1587q110 0 163.5 -57.5t53.5 -163.5q0 -90 -65 -225.5t-146 -227.5l-139 33l51 246q-51 24 -89 75t-38 111
q0 96 50.5 152.5t158.5 56.5z" />
    <glyph glyph-name="quotedblbase" unicode="&#x201e;" horiz-adv-x="1034" 
d="M758 375q110 0 163.5 -57.5t53.5 -163.5q0 -90 -65 -225.5t-146 -227.5l-139 33l51 246q-51 24 -89 75t-38 111q0 96 50.5 152.5t158.5 56.5zM268 375q110 0 163.5 -57.5t53.5 -163.5q0 -90 -65 -225.5t-146 -227.5l-139 33l51 246q-51 24 -89 75t-38 111
q0 96 50.5 152.5t158.5 56.5z" />
    <glyph glyph-name="dagger" unicode="&#x2020;" horiz-adv-x="995" 
d="M41 1272l293 -27l-33 357h391l-28 -357l290 27v-352l-290 24l28 -1247h-391l33 1247l-293 -24v352z" />
    <glyph glyph-name="daggerdbl" unicode="&#x2021;" horiz-adv-x="995" 
d="M954 395v-352l-290 27l28 -373h-391l33 373l-293 -27v352l297 -22l-4 571l-293 -24v352l293 -27l-33 357h391l-28 -357l290 27v-352l-290 24v-571z" />
    <glyph glyph-name="bullet" unicode="&#x2022;" horiz-adv-x="856" 
d="M74 659q0 353 348 353q354 0 354 -353q0 -179 -88 -266.5t-266 -87.5q-175 0 -261.5 87.5t-86.5 266.5z" />
    <glyph glyph-name="ellipsis" unicode="&#x2026;" horiz-adv-x="1619" 
d="M1552 178q0 -203 -219 -203q-116 0 -167.5 47t-51.5 156q0 205 219 205t219 -205zM1034 178q0 -203 -219 -203q-116 0 -167.5 47t-51.5 156q0 205 219 205t219 -205zM506 178q0 -203 -219 -203q-116 0 -167.5 47t-51.5 156q0 205 219 205t219 -205z" />
    <glyph glyph-name="perthousand" unicode="&#x2030;" horiz-adv-x="2254" 
d="M713 1194q0 -178 -86.5 -269t-251.5 -91q-332 0 -332 360q0 185 80 270.5t254 85.5q169 0 252.5 -84.5t83.5 -271.5zM453 1194q0 72 -18 98.5t-58 26.5t-58 -26.5t-18 -98.5q0 -70 18.5 -96.5t57.5 -26.5q42 0 59 25.5t17 97.5zM1079 1444l224 -174l-859 -1200l-221 174z
M1505 336q0 -177 -86 -268t-252 -91q-331 0 -331 359q0 186 80 274t253 88q169 0 252.5 -87t83.5 -275zM1245 336q0 69 -18 95t-58 26t-57.5 -26t-17.5 -95q0 -71 17.5 -96t57.5 -25t58 25.5t18 95.5zM2212 336q0 -177 -86 -268t-252 -91q-332 0 -332 359q0 186 80 274
t254 88q169 0 252.5 -87t83.5 -275zM1954 336q0 69 -18.5 95t-59.5 26q-40 0 -58 -26t-18 -95q0 -70 18 -95.5t58 -25.5q41 0 59.5 25.5t18.5 95.5z" />
    <glyph glyph-name="guilsinglleft" unicode="&#x2039;" horiz-adv-x="794" 
d="M713 838l-289 -189l289 -186v-291l-668 465v27l668 464v-290z" />
    <glyph glyph-name="guilsinglright" unicode="&#x203a;" horiz-adv-x="794" 
d="M80 172v291l289 186l-289 189v290l670 -464v-27z" />
    <glyph glyph-name="fraction" unicode="&#x2044;" horiz-adv-x="651" 
d="M741 1536h275l-1012 -1536h-272z" />
    <glyph glyph-name="uni2070" unicode="&#x2070;" horiz-adv-x="804" 
d="M766 1395q0 -207 -87.5 -308.5t-275.5 -101.5q-189 0 -275.5 101.5t-86.5 308.5q0 218 85.5 317.5t276.5 99.5q190 0 276.5 -100t86.5 -317zM502 1397q0 84 -11.5 129.5t-31.5 60.5t-56 15q-56 0 -78 -41t-22 -166q0 -123 22 -163t78 -40q36 0 56 14.5t31.5 60
t11.5 130.5z" />
    <glyph glyph-name="uni2074" unicode="&#x2074;" horiz-adv-x="804" 
d="M778 1126h-69v-131h-248v131h-416l-20 148l364 528h320v-471h75zM469 1331l16 242l-12 2l-63 -107l-93 -131l2 -6h150z" />
    <glyph glyph-name="uni2075" unicode="&#x2075;" horiz-adv-x="804" 
d="M752 1276q0 -136 -86 -213.5t-275 -77.5q-191 0 -309 55l39 195q125 -47 250 -47q67 0 91.5 16t24.5 51q0 58 -116 58q-99 0 -176 -15l-101 88l45 416h559l9 -217h-359l-6 -76q58 4 98 4q148 0 230 -60.5t82 -176.5z" />
    <glyph glyph-name="uni2076" unicode="&#x2076;" horiz-adv-x="804" 
d="M766 1280q0 -146 -91.5 -221.5t-258.5 -75.5q-182 0 -278.5 101t-96.5 302q0 200 110.5 313t319.5 113q148 0 238 -32l-15 -203q-95 25 -184 25q-88 0 -135 -25t-66 -76l4 -4q69 29 144 29q151 0 230 -62t79 -184zM502 1280q0 63 -90 63q-24 0 -54.5 -7.5t-42.5 -20.5
q2 -68 25.5 -97.5t79.5 -29.5q82 0 82 92z" />
    <glyph glyph-name="uni2077" unicode="&#x2077;" horiz-adv-x="804" 
d="M758 1800v-217l-322 -588h-309l262 435l88 135l-4 4h-434l14 231h705z" />
    <glyph glyph-name="uni2078" unicode="&#x2078;" horiz-adv-x="804" 
d="M37 1243q0 48 26 94t76 78q-67 64 -67 170q0 108 81.5 167.5t249.5 59.5t250 -60.5t82 -166.5q0 -91 -71 -155q104 -65 104 -187q0 -127 -91 -193.5t-274 -66.5q-366 0 -366 260zM504 1225q0 30 -35.5 47t-111.5 39q-10 3 -15 4q-47 -31 -47 -74q0 -36 27.5 -51.5
t87.5 -15.5q94 0 94 51zM322 1573q0 -28 34 -44t101 -30q37 26 37 62q0 63 -93 63q-79 0 -79 -51z" />
    <glyph glyph-name="uni2079" unicode="&#x2079;" horiz-adv-x="804" 
d="M762 1425q0 -442 -416 -442q-142 0 -260 41l39 203q98 -37 201 -37q168 0 192 125l-4 4q-61 -41 -160 -41q-160 0 -236.5 67.5t-76.5 182.5q0 129 87.5 208t260.5 79q373 0 373 -390zM494 1499q0 62 -25 86.5t-84 24.5q-47 0 -67.5 -17.5t-20.5 -54.5q0 -39 20 -57.5
t74 -18.5q36 0 64.5 11t38.5 26z" />
    <glyph glyph-name="uni207A" unicode="&#x207a;" horiz-adv-x="806" 
d="M725 1288h-211v-209h-225v209h-209v225h209v211h225v-211h211v-225z" />
    <glyph glyph-name="uni207B" unicode="&#x207b;" horiz-adv-x="806" 
d="M705 1305h-619v215h619v-215z" />
    <glyph glyph-name="uni207C" unicode="&#x207c;" horiz-adv-x="806" 
d="M700 1452h-591v190h591v-190zM700 1167h-591v191h591v-191z" />
    <glyph glyph-name="uni207D" unicode="&#x207d;" horiz-adv-x="464" 
d="M299 1862l172 -19q-131 -195 -131 -477q0 -279 131 -477l-172 -19q-199 179 -199 496t199 496z" />
    <glyph glyph-name="uni207E" unicode="&#x207e;" horiz-adv-x="464" 
d="M-10 1843l176 19q196 -179 196 -496t-196 -496l-176 19q133 197 133 477q0 288 -133 477z" />
    <glyph glyph-name="uni2080" unicode="&#x2080;" horiz-adv-x="804" 
d="M766 78q0 -207 -87.5 -308.5t-275.5 -101.5q-189 0 -275.5 101.5t-86.5 308.5q0 219 85.5 318.5t276.5 99.5q190 0 276.5 -99.5t86.5 -318.5zM502 80q0 85 -11.5 131t-31.5 61t-56 15q-37 0 -57.5 -15.5t-31.5 -61t-11 -130.5t11 -130t31.5 -60t57.5 -15q36 0 56 15
t31.5 60.5t11.5 129.5z" />
    <glyph glyph-name="uni2081" unicode="&#x2081;" horiz-adv-x="600" 
d="M504 487v-809h-268v517l-156 -82l-23 209l277 165h170z" />
    <glyph glyph-name="uni2082" unicode="&#x2082;" horiz-adv-x="788" 
d="M727 238q0 -51 -19.5 -95t-64 -86.5t-91 -76t-124.5 -82.5v-7h295l-4 -213h-641v166q50 43 122 101.5t106 87.5t72.5 65.5t53 63.5t14.5 53q0 66 -104 66q-94 0 -221 -70l-62 203q139 84 334 84q166 0 250 -71.5t84 -188.5z" />
    <glyph glyph-name="uni2083" unicode="&#x2083;" horiz-adv-x="788" 
d="M739 -80q0 -252 -374 -252q-182 0 -299 68l55 192q121 -59 241 -59q117 0 117 65q0 21 -12.5 34.5t-61 23.5t-135.5 10v172q84 0 130.5 9t59.5 21.5t13 33.5q0 51 -111 51q-137 0 -241 -66l-62 191q62 39 145.5 61.5t168.5 22.5q165 0 256.5 -65t91.5 -175t-111 -164v-4
q129 -50 129 -170z" />
    <glyph glyph-name="uni2084" unicode="&#x2084;" horiz-adv-x="804" 
d="M778 -190h-69v-132h-248v132h-416l-20 147l364 528h320v-471h75zM469 14l16 242l-12 2l-63 -106l-93 -132l2 -6h150z" />
    <glyph glyph-name="uni2085" unicode="&#x2085;" horiz-adv-x="804" 
d="M752 -41q0 -136 -86 -213.5t-275 -77.5q-183 0 -309 56l39 194q133 -47 250 -47q66 0 91 17t25 51q0 57 -116 57q-99 0 -176 -12l-101 86l45 415h559l9 -217h-359l-6 -73q58 4 98 4q148 0 230 -62t82 -178z" />
    <glyph glyph-name="uni2086" unicode="&#x2086;" horiz-adv-x="804" 
d="M766 -37q0 -145 -91.5 -220t-258.5 -75q-183 0 -279 100.5t-96 301.5t110.5 314.5t319.5 113.5q147 0 238 -35l-15 -203q-85 25 -184 25q-86 0 -132.5 -25t-66.5 -74l4 -4q61 27 142 27q151 0 230 -62t79 -184zM502 -37q0 64 -90 64q-23 0 -54 -7.5t-43 -21.5
q2 -68 25 -96.5t80 -28.5q82 0 82 90z" />
    <glyph glyph-name="uni2087" unicode="&#x2087;" horiz-adv-x="804" 
d="M758 485v-219l-322 -588h-309l262 435l88 135l-4 4h-434l14 233h705z" />
    <glyph glyph-name="uni2088" unicode="&#x2088;" horiz-adv-x="804" 
d="M37 -72q0 104 102 170q-67 64 -67 170q0 109 81.5 169.5t249.5 60.5t250 -62t82 -168q0 -89 -71 -153q104 -63 104 -187q0 -262 -365 -262q-366 0 -366 262zM504 -92q0 31 -35.5 48.5t-107.5 38.5q-13 3 -19 5q-47 -31 -47 -74q0 -37 27.5 -53t87.5 -16q94 0 94 51z
M322 258q0 -28 34 -44t101 -30q37 26 37 60q0 63 -93 63q-79 0 -79 -49z" />
    <glyph glyph-name="uni2089" unicode="&#x2089;" horiz-adv-x="804" 
d="M762 111q0 -443 -416 -443q-142 0 -260 41l39 201q100 -35 201 -35q167 0 192 125l-4 4q-65 -41 -160 -41q-160 0 -236.5 67t-76.5 181q0 129 87.5 208t260.5 79q373 0 373 -387zM494 182q0 62 -25 86.5t-84 24.5q-47 0 -67.5 -17t-20.5 -55q0 -39 20 -56.5t74 -17.5
q36 0 64.5 11t38.5 24z" />
    <glyph glyph-name="uni208A" unicode="&#x208a;" horiz-adv-x="806" 
d="M725 -29h-211v-209h-225v209h-209v228h209v209h225v-209h211v-228z" />
    <glyph glyph-name="uni208B" unicode="&#x208b;" horiz-adv-x="806" 
d="M705 -12h-619v215h619v-215z" />
    <glyph glyph-name="uni208C" unicode="&#x208c;" horiz-adv-x="806" 
d="M700 135h-591v193h591v-193zM700 -150h-591v193h591v-193z" />
    <glyph glyph-name="uni208D" unicode="&#x208d;" horiz-adv-x="464" 
d="M299 549l172 -17q-131 -198 -131 -479q0 -279 131 -477l-172 -18q-199 179 -199 495q0 320 199 496z" />
    <glyph glyph-name="uni208E" unicode="&#x208e;" horiz-adv-x="464" 
d="M-10 532l176 17q196 -176 196 -496q0 -316 -196 -495l-176 18q133 197 133 477q0 287 -133 479z" />
    <glyph glyph-name="franc" unicode="&#x20a3;" horiz-adv-x="1265" 
d="M18 434h119v1102h1055l6 -371h-633v-231h467l-4 -350h-463v-150h137v-272h-137v-162h-428v162h-119v272z" />
    <glyph glyph-name="lira" unicode="&#x20a4;" horiz-adv-x="1286" 
d="M102 793l-18 200h53q-10 52 -10 99q0 77 20 144t67.5 128.5t120 105t185 69.5t254.5 26q196 0 383 -58l-49 -348q-138 43 -287 43q-136 0 -196 -47.5t-60 -126.5v-35h520v-200h-462l18 -72h444v-197h-430q-16 -122 -110 -180l4 -6q141 35 340 35q165 0 328 -25
q-1 -3 -9 -180t-10 -184q-258 30 -514 30q-318 0 -598 -24l-18 356q74 9 124 60t58 118h-133l-13 197h123q-3 13 -22 72h-103z" />
    <glyph glyph-name="peseta" unicode="&#x20a7;" horiz-adv-x="1748" 
d="M813 1034q0 -262 -92.5 -375.5t-312.5 -113.5h-43v-545h-285v1536h328q146 0 233 -47.5t129.5 -157.5t42.5 -297zM1227 719h-94v-455q0 -41 45 -41q5 0 15 1t15 1l6 -221q-12 -9 -44 -15.5t-64 -6.5q-109 0 -166 72.5t-57 205.5v459h-43v219h55l41 195l197 24v-219h94
v-219zM1710 291q0 -316 -272 -316q-102 0 -164 41l8 244q68 -33 137 -33q32 0 49 15.5t17 40.5q0 21 -17 39t-43 31t-56 36t-56 51.5t-43 82t-17 122.5q0 57 16.5 109.5t47.5 96.5t83 70.5t118 26.5q97 0 157 -43l-16 -237q-53 26 -125 26q-27 0 -38 -10.5t-11 -32.5
q0 -21 16.5 -39t41.5 -31.5t54.5 -37t54.5 -52t41.5 -80.5t16.5 -120zM512 1032q0 131 -19 169t-85 38h-43v-412h43q42 0 62.5 13t31 57t10.5 135z" />
    <glyph glyph-name="Euro" unicode="&#x20ac;" horiz-adv-x="1214" 
d="M975 717l-43 -195h-330q32 -122 109 -173.5t202 -51.5q102 0 220 47l28 -291q-143 -73 -352 -73q-531 0 -621 542h-157l2 195h135v74h-135l-2 204h155q50 256 216.5 402.5t422.5 146.5q194 0 334 -57l-72 -318q-79 29 -169 29q-128 0 -203 -49t-109 -154h434l-43 -202
l-419 -2v-74h397z" />
    <glyph glyph-name="trademark" unicode="&#x2122;" horiz-adv-x="1454" 
d="M1405 942h-205v164l4 166l-6 2l-51 -160l-57 -172h-166l-60 166l-51 160l-4 -2l2 -164v-160h-201v602h291l62 -180l49 -158h6l47 158l59 180h281v-602zM559 1348h-147v-406h-238v406h-149v196h534v-196z" />
    <glyph glyph-name="uni2126" unicode="&#x2126;" horiz-adv-x="1529" 
d="M766 1559q160 0 286 -38.5t217.5 -116t140 -202t48.5 -289.5q0 -372 -287 -579v-6h289v-328h-647v479q46 39 78 75.5t61 86.5t43.5 113.5t14.5 140.5q0 165 -59.5 233t-184.5 68t-184.5 -68t-59.5 -233q0 -101 28 -182t67 -130.5t102 -103.5v-479h-647v328h280l2 6
q-282 202 -282 577q0 318 185.5 483t508.5 165z" />
    <glyph glyph-name="onethird" unicode="&#x2153;" horiz-adv-x="1849" 
d="M1255 1536h275l-1012 -1536h-272zM1753 242q0 -252 -373 -252q-184 0 -299 67l56 193q123 -60 241 -60q117 0 117 66q0 21 -12.5 34.5t-61 23.5t-135.5 10v172q85 0 130.5 8t59 20.5t13.5 34.5q0 51 -111 51q-139 0 -241 -65l-62 190q62 39 145.5 61.5t168.5 22.5
q165 0 256.5 -64.5t91.5 -174.5t-111 -164v-4q127 -49 127 -170zM594 1536v-807h-268v514l-156 -82l-23 211l277 164h170z" />
    <glyph glyph-name="twothirds" unicode="&#x2154;" horiz-adv-x="1849" 
d="M733 1288q0 -52 -20 -96.5t-65 -87.5t-91 -75.5t-125 -82.5v-6h297l-4 -211h-641v166q45 38 104 85.5t92 74.5t71 60.5t57 56t32 47.5t13 47q0 63 -105 63q-94 0 -221 -67l-61 200q139 84 333 84q166 0 250 -71t84 -187zM1300 1536h275l-1012 -1536h-272zM1786 242
q0 -252 -373 -252q-184 0 -299 67l55 193q123 -60 242 -60q117 0 117 66q0 21 -12.5 34.5t-61 23.5t-135.5 10v172q85 0 130.5 8t59 20.5t13.5 34.5q0 51 -111 51q-140 0 -242 -65l-61 190q135 84 313 84q165 0 256.5 -64.5t91.5 -174.5q0 -111 -110 -164v-4
q127 -49 127 -170z" />
    <glyph glyph-name="oneeighth" unicode="&#x215b;" horiz-adv-x="1849" 
d="M596 1536v-807h-268v514l-156 -82l-22 211l276 164h170zM1237 1536h274l-1011 -1536h-273zM1008 248q0 48 26 94.5t76 77.5q-68 65 -68 170q0 109 82 169t250 60t250 -61.5t82 -167.5q0 -89 -72 -154q105 -64 105 -186q0 -262 -365 -262q-366 0 -366 260zM1475 229
q0 15 -9 27t-34.5 24t-40 17t-56.5 18q-5 2 -7.5 2.5t-7 2l-7.5 2.5q-47 -35 -47 -74q0 -38 27.5 -54t86.5 -16q95 0 95 51zM1292 580q0 -28 34 -44t101 -30q37 26 37 59q0 64 -92 64q-80 0 -80 -49z" />
    <glyph glyph-name="threeeighths" unicode="&#x215c;" horiz-adv-x="1849" 
d="M768 971q0 -123 -92.5 -188.5t-282.5 -65.5q-180 0 -299 69l56 191q124 -57 241 -57t117 63q0 22 -13 36t-61 24t-135 10v172q85 0 130.5 8t59 20.5t13.5 34.5q0 51 -111 51q-139 0 -241 -65l-62 188q130 84 313 84q166 0 257.5 -63.5t91.5 -173.5t-111 -164v-4
q129 -49 129 -170zM1288 1536h275l-1012 -1536h-272zM1049 248q0 48 26 94.5t76 77.5q-68 65 -68 170q0 109 82 169t250 60t250 -61.5t82 -167.5q0 -89 -72 -154q105 -64 105 -186q0 -262 -365 -262q-366 0 -366 260zM1516 229q0 15 -9 27t-34.5 24t-40 17t-56.5 18
q-5 2 -7.5 2.5t-7 2l-7.5 2.5q-47 -35 -47 -74q0 -38 27.5 -54t86.5 -16q95 0 95 51zM1333 580q0 -28 34 -44t101 -30q37 26 37 59q0 64 -92 64q-80 0 -80 -49z" />
    <glyph glyph-name="fiveeighths" unicode="&#x215d;" horiz-adv-x="1849" 
d="M778 1010q0 -136 -85.5 -213.5t-274.5 -77.5q-191 0 -309 55l38 195q125 -47 250 -47q67 0 92 16t25 51q0 58 -117 58q-99 0 -176 -15l-100 88l45 416h559l8 -217h-358l-6 -76q58 4 98 4q148 0 229.5 -60.5t81.5 -176.5zM1274 1536h274l-1011 -1536h-273zM1040 248
q0 48 26.5 94.5t76.5 77.5q-68 65 -68 170q0 109 82 169t250 60t250 -61.5t82 -167.5q0 -89 -72 -154q105 -64 105 -186q0 -262 -365 -262q-367 0 -367 260zM1507 229q0 43 -140 86q-3 2 -5 2.5t-5 1.5t-5.5 1.5t-5.5 1.5q-48 -36 -48 -74t27.5 -54t87.5 -16q94 0 94 51z
M1325 580q0 -28 34 -44t101 -30q37 26 37 59q0 64 -92 64q-80 0 -80 -49z" />
    <glyph glyph-name="seveneighths" unicode="&#x215e;" horiz-adv-x="1849" 
d="M860 1534v-217l-321 -588h-310l263 434l88 135l-5 5h-434l15 231h704zM1245 1536h275l-1012 -1536h-272zM1016 248q0 48 26 94.5t76 77.5q-67 64 -67 170q0 109 81.5 169t249.5 60t250 -61.5t82 -167.5q0 -89 -72 -154q105 -64 105 -186q0 -262 -365 -262
q-366 0 -366 260zM1483 229q0 15 -9 27t-34.5 24t-40 17t-56.5 18q-5 2 -7.5 2.5t-7 2l-7.5 2.5q-47 -35 -47 -74q0 -38 27.5 -54t87.5 -16q94 0 94 51zM1300 580q0 -28 34 -44t102 -30q37 26 37 59q0 64 -93 64q-80 0 -80 -49z" />
    <glyph glyph-name="partialdiff" unicode="&#x2202;" horiz-adv-x="1323" 
d="M633 1104q126 0 233 -66l4 4q-28 95 -99 141t-193 46q-202 0 -373 -92l-92 264q122 77 242 113t292 36q86 0 169.5 -22t167 -75.5t146 -134t101.5 -208.5t39 -287q0 -192 -44.5 -347t-131 -268.5t-223 -175t-312.5 -61.5q-253 0 -379.5 130t-126.5 376q0 298 156.5 462.5
t423.5 164.5zM848 668q0 62 -41 103.5t-119 41.5q-108 0 -168.5 -92.5t-60.5 -278.5q0 -85 42.5 -128.5t121.5 -43.5q104 0 164.5 107t60.5 291z" />
    <glyph glyph-name="uni2206" unicode="&#x2206;" horiz-adv-x="1505" 
d="M893 1542l569 -1542h-1423l571 1542h283zM748 1028l-52 -160l-184 -538h465l-176 538l-47 160h-6z" />
    <glyph glyph-name="product" unicode="&#x220f;" horiz-adv-x="1550" 
d="M625 -336h-371v1587l-186 23l-9 262h1434l-6 -260l-184 -23v-1589h-371v1561h-307v-1561z" />
    <glyph glyph-name="summation" unicode="&#x2211;" horiz-adv-x="1419" 
d="M1153 580l-424 -476l-111 -116l3 -6h737l-8 -318h-1239v209l624 748l-624 682v233h1210l8 -324h-682l-2 -4l113 -116l395 -433v-79z" />
    <glyph glyph-name="minus" unicode="&#x2212;" horiz-adv-x="1239" 
d="M1108 510h-977v348h977v-348z" />
    <glyph glyph-name="uni2219" unicode="&#x2219;" horiz-adv-x="622" 
d="M528 709q0 -203 -219 -203q-116 0 -167.5 47t-51.5 156q0 204 219 204t219 -204z" />
    <glyph glyph-name="radical" unicode="&#x221a;" horiz-adv-x="1298" 
d="M8 702v345h436l129 -455l43 -160h7l36 162l254 1001h416l-465 -1595h-469l-235 702h-152z" />
    <glyph glyph-name="infinity" unicode="&#x221e;" horiz-adv-x="1597" 
d="M1118 283q-194 0 -315 118q-111 -118 -318 -118q-181 0 -298 111.5t-117 305.5q0 192 104.5 306t302.5 114q195 0 316 -121q114 121 319 121q179 0 297.5 -112t118.5 -306q0 -192 -105.5 -305.5t-304.5 -113.5zM1098 807q-55 0 -88 -40.5t-68 -123.5q63 -70 150 -70
q55 0 84.5 34t29.5 91q0 53 -30.5 81t-77.5 28zM498 596q54 0 87 40.5t68 123.5q-62 69 -147 69q-55 0 -85 -32.5t-30 -87.5t30.5 -84t76.5 -29z" />
    <glyph glyph-name="uni2224" unicode="&#x2224;" horiz-adv-x="622" 
d="M528 709q0 -203 -219 -203q-116 0 -167.5 47t-51.5 156q0 204 219 204t219 -204z" />
    <glyph glyph-name="logicaland" unicode="&#x2227;" horiz-adv-x="622" 
d="M528 709q0 -203 -219 -203q-116 0 -167.5 47t-51.5 156q0 204 219 204t219 -204z" />
    <glyph glyph-name="integral" unicode="&#x222b;" horiz-adv-x="688" 
d="M545 1231l-4 -1151q0 -230 -124.5 -331t-396.5 -101l-8 246q68 0 100.5 39.5t32.5 132.5v1165q0 206 127 305.5t396 99.5l8 -243q-66 0 -98.5 -38.5t-32.5 -123.5z" />
    <glyph glyph-name="approxequal" unicode="&#x2248;" horiz-adv-x="1302" 
d="M877 692q-93 0 -239.5 41t-211.5 41q-132 0 -244 -59v295q117 57 244 57q91 0 238.5 -42t212.5 -42q122 0 243 59v-292q-119 -58 -243 -58zM877 254q-93 0 -239.5 42t-211.5 42q-132 0 -244 -59v292q123 60 244 60q91 0 238.5 -42t212.5 -42q126 0 243 57v-293
q-117 -57 -243 -57z" />
    <glyph glyph-name="notequal" unicode="&#x2260;" horiz-adv-x="1302" 
d="M788 1270l248 -117l-59 -125h143v-293h-282l-70 -147h352v-293h-489l-117 -246l-248 117l62 129h-146v293h283l70 147h-353v293h492z" />
    <glyph glyph-name="lessequal" unicode="&#x2264;" horiz-adv-x="1302" 
d="M1133 999l-506 -96l-164 -26v-7l164 -26l508 -92v-357l-975 297v371l973 299v-363zM1135 51h-967v305h967v-305z" />
    <glyph glyph-name="greaterequal" unicode="&#x2265;" horiz-adv-x="1302" 
d="M162 395v357l506 92l166 26v7l-166 26l-506 96l2 363l971 -299v-371zM1128 51h-968v305h968v-305z" />
    <glyph glyph-name="dotmath" unicode="&#x22c5;" horiz-adv-x="622" 
d="M528 709q0 -203 -219 -203q-116 0 -167.5 47t-51.5 156q0 204 219 204t219 -204z" />
    <glyph glyph-name="lozenge" unicode="&#x25ca;" horiz-adv-x="1296" 
d="M39 715l608 706l610 -706l-610 -709zM440 717l207 -242l209 240l-209 243z" />
    <glyph glyph-name="parenleft.case" horiz-adv-x="763" 
d="M469 1714l289 -24q-122 -191 -181 -429t-59 -493q0 -254 59.5 -492t180.5 -430l-289 -24q-163 174 -247.5 420t-84.5 526q0 282 84 525t248 421z" />
    <glyph glyph-name="parenright.case" horiz-adv-x="763" 
d="M6 1690l289 24q165 -177 248.5 -420t83.5 -526q0 -280 -84.5 -526t-247.5 -420l-289 24q122 191 181 429t59 493t-59 493t-181 429z" />
    <glyph glyph-name="hyphen.case" horiz-adv-x="780" 
d="M84 903h612v-272h-612v272z" />
    <glyph glyph-name="bracketleft.case" horiz-adv-x="751" 
d="M137 -168v1870h608v-264h-251v-1348h251v-258h-608z" />
    <glyph glyph-name="bracketright.case" horiz-adv-x="751" 
d="M614 1702v-1870h-608v258h252v1348h-252v264h608z" />
    <glyph glyph-name="grave.case" 
d="M643 1620h-317l-271 252h457z" />
    <glyph glyph-name="braceleft.case" horiz-adv-x="811" 
d="M592 997q0 -156 -117 -231q117 -72 117 -227q0 -58 -8.5 -147.5t-8.5 -133.5q0 -67 41 -112.5t117 -45.5h72v-280h-53q-282 0 -405.5 98.5t-123.5 290.5q0 56 13.5 171t13.5 163q0 56 -31.5 95.5t-81.5 53.5v150q50 14 81.5 53.5t31.5 95.5q0 48 -13.5 163t-13.5 171
q0 192 123.5 290.5t405.5 98.5h53v-280h-72q-76 0 -117 -45.5t-41 -112.5q0 -44 8.5 -133t8.5 -146z" />
    <glyph glyph-name="braceright.case" horiz-adv-x="811" 
d="M219 539q0 155 117 227q-117 75 -117 231q0 57 9.5 146t9.5 133q0 67 -41.5 112.5t-116.5 45.5h-74v280h53q284 0 406.5 -98.5t122.5 -290.5q0 -56 -13.5 -171t-13.5 -163q0 -56 31.5 -95.5t81.5 -53.5v-150q-50 -14 -81.5 -53.5t-31.5 -95.5q0 -48 13.5 -163t13.5 -171
q0 -192 -122.5 -290.5t-406.5 -98.5h-53v280h74q75 0 116.5 45.5t41.5 112.5q0 44 -9.5 133.5t-9.5 147.5z" />
    <glyph glyph-name="dieresis.case" 
d="M371 1753q0 -141 -158 -141q-81 0 -119.5 33t-38.5 108q0 145 158 145t158 -145zM786 1753q0 -71 -38 -106t-121 -35q-80 0 -119 33t-39 108q0 71 40 108t118 37q83 0 121 -36.5t38 -108.5z" />
    <glyph glyph-name="guillemotleft.case" horiz-adv-x="1368" 
d="M1270 954l-289 -188l289 -186v-291l-668 465v26l668 465v-291zM707 954l-289 -188l289 -186v-291l-668 465v26l668 465v-291z" />
    <glyph glyph-name="uni00AD.case" horiz-adv-x="780" 
d="M84 903h612v-272h-612v272z" />
    <glyph glyph-name="macron.case" 
d="M770 1823v-187h-702v187h702z" />
    <glyph glyph-name="acute.case" 
d="M336 1868h491l-295 -250h-313z" />
    <glyph glyph-name="guillemotright.case" horiz-adv-x="1368" 
d="M653 289v291l289 186l-289 188v291l670 -465v-26zM90 289v291l289 186l-289 188v291l670 -465v-26z" />
    <glyph glyph-name="circumflex.case" 
d="M205 1868h420l206 -250h-337l-78 92l-78 -92h-332z" />
    <glyph glyph-name="caron.case" 
d="M625 1618h-418l-203 250h336l78 -101l80 101h333z" />
    <glyph glyph-name="breve.case" 
d="M504 1870h291q0 -132 -90.5 -198t-284.5 -66q-199 0 -285 67.5t-86 196.5h287q1 -41 23 -57.5t63 -16.5q82 0 82 74z" />
    <glyph glyph-name="dotaccent.case" 
d="M641 1741q0 -70 -50 -103.5t-171 -33.5q-123 0 -173 31t-50 106q0 71 51.5 105t171.5 34q121 0 171 -34t50 -105z" />
    <glyph glyph-name="ring.case" 
d="M106 1665q0 110 68.5 166.5t233.5 56.5q311 0 311 -223q0 -120 -70.5 -172.5t-240.5 -52.5q-162 0 -232 50.5t-70 174.5zM307 1651q0 -34 22 -49t89 -15q60 0 82 14.5t22 49.5q0 37 -21.5 54t-82.5 17q-67 0 -89 -16.5t-22 -54.5z" />
    <glyph glyph-name="ogonek.case" 
d="M524 53l174 -53q-50 0 -84 -29t-34 -67q0 -68 94 -68q51 0 88 19l31 -199q-104 -51 -234 -51q-134 0 -205 54t-71 146q0 187 241 248z" />
    <glyph glyph-name="tilde.case" 
d="M213 1620l-176 2q3 117 66 188.5t169 71.5q64 0 125 -16t107 -31.5t71 -15.5q27 0 39.5 9.5t16.5 33.5l168 -2q-3 -119 -68 -190t-170 -71q-63 0 -121 16.5t-100.5 33t-67.5 16.5q-23 0 -39.5 -13t-19.5 -32z" />
    <glyph glyph-name="hungarumlaut.case" 
d="M84 1868h389l-184 -252h-248zM528 1868h398l-236 -252h-280z" />
    <glyph glyph-name="endash.case" horiz-adv-x="1036" 
d="M84 903h868v-272h-868v272z" />
    <glyph glyph-name="emdash.case" horiz-adv-x="1415" 
d="M84 903h1247v-272h-1247v272z" />
    <glyph glyph-name="guilsinglleft.case" horiz-adv-x="794" 
d="M713 954l-289 -188l289 -186v-291l-668 465v26l668 465v-291z" />
    <glyph glyph-name="guilsinglright.case" horiz-adv-x="794" 
d="M80 289v291l289 186l-289 188v291l670 -465v-26z" />
    <glyph glyph-name="dollar.dnom" horiz-adv-x="706" 
d="M328 938h200l-14 -147q46 -6 131 -31l-29 -201q-130 31 -202 31q-107 0 -107 -35q0 -14 20 -24t52.5 -17t71.5 -15.5t78.5 -25.5t72 -41t52.5 -66t20 -98q0 -97 -55.5 -163t-159.5 -87l-10 -124h-201l8 118q-110 16 -193 58l31 206q70 -33 122 -48t114 -15q100 0 100 39
q0 18 -37.5 29t-91 24t-107 35t-91 73.5t-37.5 127.5q0 96 60.5 165.5t186.5 88.5z" />
    <glyph glyph-name="parenleft.dnom" horiz-adv-x="464" 
d="M299 866l172 -16q-131 -198 -131 -479q0 -279 131 -477l-172 -19q-199 179 -199 496q0 319 199 495z" />
    <glyph glyph-name="parenright.dnom" horiz-adv-x="464" 
d="M-10 850l176 16q196 -176 196 -495q0 -317 -196 -496l-176 19q133 197 133 477q0 287 -133 479z" />
    <glyph glyph-name="plus.dnom" horiz-adv-x="806" 
d="M725 293h-211v-209h-225v209h-209v227h209v209h225v-209h211v-227z" />
    <glyph glyph-name="comma.dnom" horiz-adv-x="372" 
d="M178 227q139 0 139 -131q0 -60 -40.5 -139t-90.5 -129l-94 18l33 138q-32 16 -56 45.5t-24 66.5q0 131 133 131z" />
    <glyph glyph-name="period.dnom" horiz-adv-x="372" 
d="M328 109q0 -62 -34 -93.5t-108 -31.5q-76 0 -108.5 28t-32.5 97q0 127 141 127q75 0 108.5 -32t33.5 -95z" />
    <glyph glyph-name="zero.dnom" horiz-adv-x="804" 
d="M766 399q0 -207 -87.5 -308t-275.5 -101q-189 0 -275.5 101t-86.5 308q0 219 85.5 318.5t276.5 99.5q190 0 276.5 -99.5t86.5 -318.5zM502 401q0 85 -11.5 131t-31.5 61t-56 15q-37 0 -57.5 -15.5t-31.5 -61t-11 -130.5q0 -123 22 -163.5t78 -40.5q36 0 56 14.5t31.5 60
t11.5 129.5z" />
    <glyph glyph-name="one.dnom" horiz-adv-x="600" 
d="M504 809v-809h-268v516l-156 -82l-23 209l277 166h170z" />
    <glyph glyph-name="two.dnom" horiz-adv-x="788" 
d="M727 559q0 -51 -19.5 -95t-64 -86.5t-91 -76t-124.5 -82.5v-6h295l-4 -213h-641v166q50 43 122 101.5t106 87.5t72.5 65.5t53 63.5t14.5 53q0 65 -104 65q-94 0 -221 -70l-62 203q139 84 334 84q166 0 250 -71.5t84 -188.5z" />
    <glyph glyph-name="three.dnom" horiz-adv-x="788" 
d="M743 242q0 -252 -372 -252q-184 0 -299 67l55 193q123 -60 242 -60q116 0 116 66q0 21 -12.5 34.5t-61 23.5t-135.5 10v172q85 0 130.5 8t59 20.5t13.5 34.5q0 51 -110 51q-140 0 -242 -65l-61 190q135 84 313 84q165 0 256.5 -64.5t91.5 -174.5t-111 -164v-4
q127 -49 127 -170z" />
    <glyph glyph-name="four.dnom" horiz-adv-x="804" 
d="M778 131h-69v-131h-248v131h-416l-20 148l364 528h320v-471h75zM469 336l16 242l-12 2l-63 -107l-93 -131l2 -6h150z" />
    <glyph glyph-name="five.dnom" horiz-adv-x="804" 
d="M752 281q0 -136 -86 -213.5t-275 -77.5q-186 0 -309 55l39 195q133 -47 250 -47q66 0 91 16.5t25 50.5q0 57 -116 57q-99 0 -176 -12l-101 86l45 416h559l9 -217h-359l-6 -74q58 4 98 4q148 0 230 -61.5t82 -177.5z" />
    <glyph glyph-name="six.dnom" horiz-adv-x="804" 
d="M766 285q0 -145 -91.5 -220t-258.5 -75q-183 0 -279 100t-96 301t110.5 314.5t319.5 113.5q140 0 238 -35l-15 -202q-81 24 -184 24q-87 0 -133.5 -24.5t-65.5 -75.5l4 -4q64 28 142 28q151 0 230 -61.5t79 -183.5zM502 285q0 63 -90 63q-23 0 -54 -7.5t-43 -21.5
q2 -68 25 -96t80 -28q82 0 82 90z" />
    <glyph glyph-name="seven.dnom" horiz-adv-x="804" 
d="M758 807v-219l-322 -588h-309l262 434l88 135l-4 4h-434l14 234h705z" />
    <glyph glyph-name="eight.dnom" horiz-adv-x="804" 
d="M37 248q0 48 26 94.5t76 77.5q-67 64 -67 170q0 109 81.5 169t249.5 60t250 -61.5t82 -167.5q0 -90 -71 -154q104 -63 104 -186q0 -262 -365 -262q-366 0 -366 260zM504 229q0 15 -9 27t-34.5 24t-40 17t-56.5 18q-5 2 -7.5 2.5t-7 2l-7.5 2.5q-47 -35 -47 -74
q0 -38 27.5 -54t87.5 -16q94 0 94 51zM322 580q0 -28 34 -44t101 -30q37 26 37 59q0 64 -93 64q-79 0 -79 -49z" />
    <glyph glyph-name="nine.dnom" horiz-adv-x="804" 
d="M762 432q0 -442 -416 -442q-142 0 -260 41l39 200q103 -36 201 -36q167 0 192 127l-4 4q-64 -43 -160 -43q-160 0 -236.5 67.5t-76.5 181.5q0 129 87.5 208t260.5 79q373 0 373 -387zM494 504q0 62 -24.5 86t-84.5 24q-47 0 -67.5 -16.5t-20.5 -54.5q0 -39 20 -56.5
t74 -17.5q36 0 64.5 11t38.5 24z" />
    <glyph glyph-name="equal.dnom" horiz-adv-x="806" 
d="M700 457h-591v192h591v-192zM700 172h-591v193h591v-193z" />
    <glyph glyph-name="cent.dnom" horiz-adv-x="706" 
d="M662 764l-13 -201q-75 21 -139 21q-107 0 -145.5 -38t-38.5 -134q0 -179 180 -179q55 0 149 25l17 -182q-55 -34 -144 -43l-12 -139h-207l13 147q-134 29 -203.5 124t-69.5 247q0 162 78 260.5t240 118.5l16 147h207l-15 -152q42 -8 87 -22z" />
    <glyph glyph-name="minus.dnom" horiz-adv-x="806" 
d="M705 309h-619v215h619v-215z" />
    <glyph glyph-name="zero.lf" horiz-adv-x="1271" 
d="M1219 760q0 -406 -140.5 -593t-445.5 -187q-307 0 -443.5 186t-136.5 594q0 289 60.5 462t187 251.5t336.5 78.5q206 0 332.5 -78.5t188 -252t61.5 -461.5zM809 764q0 142 -9.5 230t-33 133t-52.5 60t-77 15q-67 0 -102.5 -30t-55.5 -126.5t-20 -281.5q0 -118 7 -198
t19.5 -128.5t36 -74t49 -33.5t66.5 -8q49 0 78 15t52 61.5t32.5 134.5t9.5 231z" />
    <glyph glyph-name="one.lf" horiz-adv-x="960" 
d="M817 1536v-1536h-428v1051l-250 -138l-41 330l467 293h252z" />
    <glyph glyph-name="two.lf" horiz-adv-x="1234" 
d="M1153 1092q0 -76 -26 -151.5t-68 -142t-113 -143.5t-142.5 -142t-176.5 -153v-6h518l-8 -354h-1039v262q51 52 126.5 127.5l120 120t104 106.5t94 102t73 90t58.5 88t33.5 78.5t13.5 76.5q0 143 -191 143q-160 0 -354 -125l-98 328q225 157 532 157q267 0 405 -125
t138 -337z" />
    <glyph glyph-name="three.lf" horiz-adv-x="1234" 
d="M1169 463q0 -230 -153.5 -356.5t-464.5 -126.5q-271 0 -467 114l76 314q195 -95 379 -95q109 0 166 42.5t57 119.5q0 31 -8.5 54.5t-31.5 46t-62.5 36.5t-104 22.5t-152.5 8.5v287q141 0 219 19.5t103 51t25 84.5q0 123 -203 123q-209 0 -379 -125l-94 316q96 71 229 113
t272 42q265 0 413.5 -118t148.5 -322q0 -214 -193 -317v-4q225 -93 225 -330z" />
    <glyph glyph-name="four.lf" horiz-adv-x="1298" 
d="M1249 270h-127v-270h-385v270h-659l-35 252l584 1014h495v-930h135zM752 606l12 373l10 166l-4 2l-80 -148l-215 -393h277z" />
    <glyph glyph-name="five.lf" horiz-adv-x="1206" 
d="M1153 532q0 -264 -143.5 -408t-448.5 -144q-282 0 -487 112l73 316q105 -49 187.5 -71t185.5 -22q125 0 172 43.5t47 139.5q0 83 -52.5 120t-164.5 37q-146 0 -280 -41l-144 154l64 768h901l14 -354h-585l-15 -213q79 12 170 12q242 0 374 -114.5t132 -334.5z" />
    <glyph glyph-name="six.lf" horiz-adv-x="1259" 
d="M1214 545q0 -285 -146 -425t-413 -140q-148 0 -257.5 41.5t-188 131t-117.5 236t-39 350.5q0 395 178 606t521 211q214 0 368 -57l-26 -342q-137 47 -289 47q-160 0 -239 -61.5t-103 -192.5l4 -4q116 64 258 64q240 0 364.5 -117t124.5 -348zM807 551q0 80 -38 118
t-124 38q-42 0 -95 -20t-75 -50q1 -126 20 -196t56 -97t102 -27q76 0 115 55.5t39 178.5z" />
    <glyph glyph-name="seven.lf" horiz-adv-x="1259" 
d="M1198 1536v-342l-528 -1194h-469l594 1161h-738l19 375h1122z" />
    <glyph glyph-name="eight.lf" horiz-adv-x="1271" 
d="M53 463q0 97 47.5 187t137.5 151q-132 125 -132 334q0 201 132.5 311t400.5 110q270 0 399 -110.5t129 -310.5q0 -192 -141 -314q193 -118 193 -360q0 -238 -146 -359.5t-434 -121.5q-586 0 -586 483zM817 432q0 24 -8 44.5t-19 36.5t-33.5 32t-40 26t-51 23.5t-54 21
t-60.5 21.5q-98 -77 -98 -176q0 -92 47 -130t149 -38q81 0 124.5 32t43.5 107zM492 1116q0 -36 16 -64t48.5 -49t67.5 -35t87 -30q90 68 90 162q0 71 -39.5 105t-126.5 34q-73 0 -108 -29.5t-35 -93.5z" />
    <glyph glyph-name="nine.lf" horiz-adv-x="1265" 
d="M1212 821q0 -438 -165.5 -639.5t-507.5 -201.5q-132 0 -226.5 17.5t-183.5 55.5l59 328q159 -62 312 -62q147 0 216 67.5t87 215.5l-4 4q-104 -59 -262 -59q-236 0 -360 128.5t-124 348.5q0 251 141.5 391.5t423.5 140.5q288 0 441 -184.5t153 -550.5zM799 944
q-1 154 -48 214.5t-141 60.5q-80 0 -119.5 -43t-39.5 -136q0 -94 39 -136t131 -42q64 0 111 21.5t67 60.5z" />
    <glyph glyph-name="dollar.numr" horiz-adv-x="706" 
d="M328 1665h200l-14 -147q59 -8 131 -29l-29 -201q-130 31 -202 31q-107 0 -107 -35q0 -19 38 -31t92 -24.5t107.5 -34t91.5 -72.5t38 -127q0 -96 -55 -160.5t-160 -86.5l-10 -125h-201l8 118q-107 12 -193 56l31 209q68 -34 120.5 -49t115.5 -15q100 0 100 37
q0 13 -20 22.5t-52 17t-71 17t-78 26.5t-71 42t-52 67.5t-20 98.5q0 96 60.5 164.5t186.5 87.5z" />
    <glyph glyph-name="parenleft.numr" horiz-adv-x="464" 
d="M299 1595l172 -18q-131 -195 -131 -477q0 -279 131 -477l-172 -19q-199 179 -199 496q0 316 199 495z" />
    <glyph glyph-name="parenright.numr" horiz-adv-x="464" 
d="M-10 1577l176 18q196 -179 196 -495q0 -317 -196 -496l-176 19q133 197 133 477q0 288 -133 477z" />
    <glyph glyph-name="plus.numr" horiz-adv-x="806" 
d="M725 1022h-211v-209h-225v209h-209v225h209v211h225v-211h211v-225z" />
    <glyph glyph-name="comma.numr" horiz-adv-x="372" 
d="M178 956q139 0 139 -129q0 -62 -40.5 -142t-90.5 -128l-94 16l33 140q-31 13 -55.5 43.5t-24.5 66.5q0 133 133 133z" />
    <glyph glyph-name="period.numr" horiz-adv-x="372" 
d="M328 838q0 -63 -33.5 -95t-108.5 -32q-76 0 -108.5 28.5t-32.5 98.5q0 63 33.5 94t107.5 31q75 0 108.5 -31t33.5 -94z" />
    <glyph glyph-name="zero.numr" horiz-adv-x="804" 
d="M766 1128q0 -207 -87.5 -308t-275.5 -101q-189 0 -275.5 101t-86.5 308q0 218 85.5 318t276.5 100q190 0 276.5 -100.5t86.5 -317.5zM502 1130q0 84 -11.5 129.5t-31.5 60.5t-56 15q-56 0 -78 -41t-22 -166q0 -85 11 -129t31 -58.5t58 -14.5q54 0 76.5 40.5t22.5 163.5z
" />
    <glyph glyph-name="one.numr" horiz-adv-x="600" 
d="M504 1536v-807h-268v514l-156 -82l-23 211l277 164h170z" />
    <glyph glyph-name="two.numr" horiz-adv-x="788" 
d="M727 1288q0 -52 -20 -96.5t-65 -87.5t-91 -75.5t-125 -82.5v-6h297l-4 -211h-641v166q49 41 122 100t106.5 87.5t72 65.5t53 64t14.5 54q0 63 -104 63q-94 0 -221 -67l-62 200q139 84 334 84q166 0 250 -71t84 -187z" />
    <glyph glyph-name="three.numr" horiz-adv-x="788" 
d="M739 971q0 -254 -374 -254q-180 0 -299 69l55 191q124 -57 241 -57t117 63q0 22 -13 36t-61 24t-135 10v172q85 0 130.5 8t59 20.5t13.5 34.5q0 51 -111 51q-139 0 -241 -65l-62 188q130 84 314 84q165 0 256.5 -63.5t91.5 -173.5t-111 -164v-4q129 -49 129 -170z" />
    <glyph glyph-name="four.numr" horiz-adv-x="804" 
d="M778 860h-69v-131h-248v131h-416l-20 148l364 528h320v-471h75zM469 1065l16 242l-12 2l-63 -107l-93 -131l2 -6h150z" />
    <glyph glyph-name="five.numr" horiz-adv-x="804" 
d="M752 1010q0 -136 -86 -213.5t-275 -77.5q-191 0 -309 55l39 195q125 -47 250 -47q67 0 91.5 16t24.5 51q0 58 -116 58q-99 0 -176 -15l-101 88l45 416h559l9 -217h-359l-6 -76q58 4 98 4q148 0 230 -60.5t82 -176.5z" />
    <glyph glyph-name="six.numr" horiz-adv-x="804" 
d="M766 1014q0 -146 -91.5 -221.5t-258.5 -75.5q-182 0 -278.5 101t-96.5 302q0 200 110.5 314t319.5 114q140 0 238 -35l-15 -202q-91 24 -184 24q-88 0 -135 -24.5t-66 -75.5l4 -4q69 29 144 29q151 0 230 -62t79 -184zM502 1014q0 63 -90 63q-24 0 -54.5 -7.5
t-42.5 -20.5q2 -68 25.5 -97.5t79.5 -29.5q82 0 82 92z" />
    <glyph glyph-name="seven.numr" horiz-adv-x="804" 
d="M758 1534v-217l-322 -588h-309l262 434l88 135l-4 5h-434l14 231h705z" />
    <glyph glyph-name="eight.numr" horiz-adv-x="804" 
d="M37 977q0 48 26 94t76 78q-67 64 -67 170q0 108 81.5 168.5t249.5 60.5t250 -61.5t82 -167.5q0 -92 -71 -156q104 -65 104 -186q0 -127 -91 -193.5t-274 -66.5q-366 0 -366 260zM504 958q0 16 -9.5 28.5t-37 24.5t-44 17t-61.5 18q-2 1 -3 1t-3 1t-4 1q-47 -31 -47 -74
q0 -36 28 -52t87 -16q94 0 94 51zM322 1307q0 -28 34 -44t101 -30q37 26 37 61q0 64 -93 64q-79 0 -79 -51z" />
    <glyph glyph-name="nine.numr" horiz-adv-x="804" 
d="M762 1159q0 -442 -416 -442q-142 0 -260 41l39 203q98 -37 201 -37q167 0 192 125l-4 4q-61 -41 -160 -41q-160 0 -236.5 67.5t-76.5 182.5q0 129 87.5 207.5t260.5 78.5q373 0 373 -389zM494 1233q0 62 -24.5 86t-84.5 24q-47 0 -67.5 -17t-20.5 -54q0 -39 20 -56.5
t74 -17.5q37 0 65 10.5t38 24.5z" />
    <glyph glyph-name="equal.numr" horiz-adv-x="806" 
d="M700 1186h-591v190h591v-190zM700 901h-591v191h591v-191z" />
    <glyph glyph-name="cent.numr" horiz-adv-x="706" 
d="M662 1493l-13 -201q-90 21 -139 21q-106 0 -145 -39t-39 -135q0 -176 180 -176q59 0 149 24l17 -184q-65 -35 -144 -43l-12 -137h-207l13 145q-134 29 -203.5 124t-69.5 247q0 162 78 261t240 120l16 147h207l-15 -151q35 -6 87 -23z" />
    <glyph glyph-name="minus.numr" horiz-adv-x="806" 
d="M705 1038h-619v215h619v-215z" />
    <glyph glyph-name="numbersign.osf" horiz-adv-x="1239" 
d="M57 557h158l37 209h-193v262h230l47 301h303l-47 -301h164l47 301h297l-47 -301h125v-262h-162l-33 -209h195l2 -264h-234l-47 -293h-295l45 293h-170l-45 -293h-301l45 293h-121v264zM555 766l-35 -209h164l35 209h-164z" />
    <glyph glyph-name="dollar.osf" horiz-adv-x="1026" 
d="M977 406q0 -165 -81.5 -272.5t-250.5 -141.5l-18 -238h-303l16 230q-150 16 -260 69l39 312q75 -39 174.5 -59.5t181.5 -20.5q137 0 137 86q0 28 -23.5 48.5t-62 33t-87.5 28t-100 31t-100 45t-87.5 67.5t-62 101t-23.5 143q0 154 90.5 259t267.5 135l20 231h301
l-20 -233q112 -19 203 -56l-29 -307q-72 29 -169 44t-173 15q-115 0 -115 -71q0 -26 23 -46t60.5 -32t85.5 -27t98.5 -30t98.5 -44t85.5 -65.5t60.5 -97t23 -137.5z" />
    <glyph glyph-name="zero.osf" horiz-adv-x="1253" 
d="M1196 659q0 -346 -138 -512.5t-433 -166.5q-297 0 -431.5 166t-134.5 513q0 363 134.5 527t435.5 164q297 0 432 -164.5t135 -526.5zM797 662q0 147 -20 226t-54 104.5t-94 25.5q-64 0 -99.5 -26.5t-55 -105t-19.5 -224.5q0 -115 10 -186t33 -108.5t53 -50t78 -12.5
q61 0 95 25.5t53.5 104.5t19.5 227z" />
    <glyph glyph-name="one.osf" horiz-adv-x="929" 
d="M774 1329v-1329h-407v881l-238 -127l-39 313l438 262h246z" />
    <glyph glyph-name="two.osf" horiz-adv-x="1167" 
d="M1100 934q0 -70 -23 -135t-60 -120t-102 -117t-131.5 -113.5t-165.5 -122.5v-7h478l-9 -319h-991v248q58 52 141 124.5t130 113.5t107 96.5t92 91.5t64 78t45 77.5t13 69.5q0 119 -178 119q-156 0 -344 -111l-94 301q222 140 512 140q130 0 230 -31t162 -87t93 -130.5
t31 -165.5z" />
    <glyph glyph-name="three.osf" horiz-adv-x="1155" 
d="M1087 373q0 -285 -225.5 -435t-648.5 -159l-35 307q145 4 250.5 27t164 61.5t85.5 85t27 102.5q0 70 -46.5 107.5t-154.5 38.5q-64 0 -127 -14l-19 260q130 13 200 33t97 48t27 74q0 113 -190 113q-193 0 -355 -107l-86 304q88 61 212.5 97t254.5 36q251 0 388.5 -108
t137.5 -281q0 -190 -141 -287q184 -91 184 -303z" />
    <glyph glyph-name="four.osf" horiz-adv-x="1247" 
d="M1204 115h-121v-322l-368 -18v340h-649l-33 250l592 985l458 -27v-903h129zM729 420l19 420l10 166l-4 2l-82 -148l-250 -440h307z" />
    <glyph glyph-name="five.osf" horiz-adv-x="1144" 
d="M1092 383q0 -285 -225.5 -443.5t-659.5 -158.5l-37 319q266 0 396 67t130 179q0 123 -209 123q-134 0 -268 -43l-131 152l62 753h860l14 -352h-555l-14 -203q96 15 159 15q222 0 350 -107t128 -301z" />
    <glyph glyph-name="six.osf" horiz-adv-x="1222" 
d="M1169 543q0 -285 -141 -424t-397 -139q-280 0 -429 168.5t-149 510.5q0 171 48.5 317t132 249.5t195 176.5t237 109t258.5 37l59 -323q-211 -1 -341 -79.5t-177 -209.5l4 -4q111 57 231 57q229 0 349 -114t120 -332zM778 541q0 77 -36.5 114t-118.5 37q-42 0 -90 -18
t-70 -47q1 -123 19.5 -191.5t53.5 -94.5t97 -26q145 0 145 226z" />
    <glyph glyph-name="seven.osf" horiz-adv-x="1165" 
d="M1102 1329v-321l-510 -1198h-447l539 1159h-627l23 360h1022z" />
    <glyph glyph-name="eight.osf" horiz-adv-x="1255" 
d="M53 399q0 84 45 161.5t129 131.5q-118 103 -118 285q0 178 128.5 274.5t391.5 96.5q265 0 391.5 -98.5t126.5 -274.5q0 -157 -125 -266q180 -104 180 -312q0 -207 -143.5 -314.5t-429.5 -107.5q-576 0 -576 424zM803 377q0 25 -13.5 46t-32 35t-55 29.5t-64 24
t-76.5 23.5q-18 5 -27 8q-93 -64 -93 -137q0 -71 48 -103.5t149 -32.5q164 0 164 107zM485 958q0 -23 12.5 -42.5t30 -32t51.5 -26t60 -21t74 -19.5q75 53 75 121q0 61 -37.5 90t-125.5 29q-140 0 -140 -99z" />
    <glyph glyph-name="nine.osf" horiz-adv-x="1212" 
d="M1159 715q0 -197 -45.5 -354.5t-124.5 -264t-191 -177t-241 -102t-278 -32.5l-39 315q193 3 326.5 79t174.5 224l-4 5q-91 -54 -227 -54q-211 0 -334 120t-123 357q0 246 140 382.5t409 136.5q274 0 415.5 -161.5t141.5 -473.5zM760 756q0 147 -38.5 201.5t-127.5 54.5
q-74 0 -109.5 -40t-35.5 -130t34 -128t119 -38q127 0 158 80z" />
    <glyph glyph-name="cent.osf" horiz-adv-x="1013" 
d="M946 1223l-20 -320q-114 31 -191 31q-156 0 -214 -69.5t-58 -246.5q0 -319 264 -319q110 0 205 37l26 -295q-77 -44 -206 -59l-17 -228h-303l19 242q-196 47 -297 204t-101 418q0 577 463 644l21 231h303l-21 -238q67 -11 127 -32z" />
    <glyph glyph-name="sterling.osf" horiz-adv-x="1200" 
d="M92 518l-14 273h84q-25 80 -25 139q0 68 17.5 127t60.5 114t109.5 94.5t171.5 63t239 23.5q181 0 359 -49l-47 -310q-144 37 -273 37q-126 0 -179.5 -34.5t-53.5 -100.5q0 -46 14 -104h457v-273h-396q0 -5 1 -13.5t1 -12.5q0 -127 -92 -189l4 -6q132 33 314 33
q157 0 301 -25l-19 -319q-228 26 -481 26q-280 0 -551 -20l-12 315q73 7 115.5 54.5t42.5 107.5q0 17 -4 49h-144z" />
    <glyph glyph-name="currency.osf" horiz-adv-x="1239" 
d="M207 664q0 100 41 184l-146 149l199 203l154 -156q75 35 163 35q86 0 164 -35l156 158l199 -205l-148 -149q43 -88 43 -184q0 -81 -33 -162l136 -137l-199 -205l-131 131q-85 -43 -187 -43q-103 0 -188 43l-131 -131l-197 205l136 137q-31 76 -31 162zM457 670
q0 -66 47 -112t114 -46t113.5 46t46.5 112t-46.5 111.5t-113.5 45.5q-68 0 -114.5 -45.5t-46.5 -111.5z" />
    <glyph glyph-name="yen.osf" horiz-adv-x="1239" 
d="M172 643h154l-326 686h428l143 -465l47 -157h7l43 157l143 465h420l-318 -686h170v-178h-249v-70h249v-176h-249v-219h-426v219h-236v176h236v70h-236v178z" />
    <glyph glyph-name="franc.osf" horiz-adv-x="1239" 
d="M61 377h109v952h985l8 -332h-600v-186h441l-5 -309h-436v-125h127v-240h-127v-137h-393v137h-109v240z" />
    <glyph glyph-name="lira.osf" horiz-adv-x="1239" 
d="M111 686l-17 170h53q-6 34 -6 72q0 56 13 107t40.5 99.5t75 87t113 68.5t158.5 46t207 16q183 0 362 -52l-47 -309q-132 39 -277 39q-130 0 -184.5 -35.5t-54.5 -101.5q0 -25 2 -37h477v-170h-432l18 -63h414v-168h-401q-12 -98 -93 -152l5 -6q135 33 317 33
q151 0 309 -23l-20 -321q-231 26 -486 26q-283 0 -557 -20l-14 315q70 6 111.5 48t46.5 100h-119l-12 168h110l-20 63h-92z" />
    <glyph glyph-name="peseta.osf" horiz-adv-x="1239" 
d="M567 905q0 -128 -12 -204.5t-44.5 -124.5t-84 -65t-137.5 -17h-33v-494h-213v1329h244q109 0 167 -34.5t85.5 -125.5t27.5 -264zM874 645h-69v-432q0 -31 33 -31q4 0 11 2t11 2l2 -184q-28 -16 -80 -16q-79 0 -122.5 56t-43.5 169v434h-30v184h39l34 175l142 22v-197h73
v-184zM1214 252q0 -137 -50 -202.5t-152 -65.5q-70 0 -113 24l4 197q47 -21 88 -21q49 0 49 66q0 22 -15.5 41t-38 39t-44.5 47.5t-37.5 78t-15.5 117.5q0 65 19.5 123.5t65.5 100t111 41.5q64 0 109 -31l-10 -203q-40 19 -80 19q-39 0 -39 -48q0 -24 15.5 -44.5t37.5 -40.5
t43.5 -46.5t37 -76t15.5 -115.5zM350 905q0 82 -5.5 119t-17 48t-38.5 11h-33v-358h33q25 0 36.5 9.5t18 48.5t6.5 122z" />
    <glyph glyph-name="Euro.osf" horiz-adv-x="1239" 
d="M1186 1282l-94 -297q-95 31 -193 31q-125 0 -196 -32.5t-103 -104.5h457l-60 -183h-432v-67h412l-59 -174h-314q77 -158 287 -158q127 0 244 49l12 -291q-137 -80 -369 -80q-270 0 -434.5 123t-214.5 357h-82v174h64v67h-64v183h84q101 471 664 471q106 0 212.5 -18.5
t178.5 -49.5z" />
    <glyph glyph-name="exclam.sc" horiz-adv-x="587" 
d="M440 410h-288l-58 919h395zM496 141q0 -164 -195 -164q-103 0 -149 38t-46 126q0 168 195 168t195 -168z" />
    <glyph glyph-name="ampersand.sc" horiz-adv-x="1378" 
d="M1368 301l-129 -317q-150 55 -295 145q-201 -156 -457 -156q-118 0 -207 33.5t-139 91t-74 124.5t-24 143q0 213 231 372q-106 156 -106 273q0 72 21.5 130.5t69 107t134.5 75.5t207 27q187 0 310.5 -80t123.5 -209q0 -47 -19 -92.5t-45.5 -79.5t-72.5 -72.5t-82.5 -63.5
t-93.5 -61q92 -85 186 -151q47 79 78 188h313q-18 -165 -131 -346q111 -56 201 -82zM549 291q64 0 127 26q-99 79 -207 187q-43 -56 -43 -111q0 -102 123 -102zM508 1008q0 -49 39 -111q58 37 87.5 66.5t29.5 62.5q-3 61 -72 61q-84 0 -84 -79z" />
    <glyph glyph-name="question.sc" horiz-adv-x="960" 
d="M915 989q0 -266 -303 -414l-12 -163h-287l-20 295q122 56 184 107t62 118q0 42 -35 66t-103 24q-146 0 -247 -84l-129 281q71 57 188 92t242 35q225 0 342.5 -95.5t117.5 -261.5zM647 141q0 -164 -192 -164q-104 0 -149.5 37.5t-45.5 126.5q0 168 195 168q192 0 192 -168
z" />
    <glyph glyph-name="grave.sc" 
d="M645 1393h-289l-262 258h434z" />
    <glyph glyph-name="a.sc" horiz-adv-x="1411" 
d="M969 0l-62 223h-428l-63 -223h-420l469 1329h469l481 -1329h-446zM694 997l-43 -161l-86 -306h258l-84 306l-39 161h-6z" />
    <glyph glyph-name="b.sc" horiz-adv-x="1284" 
d="M1245 393q0 -188 -130 -290.5t-400 -102.5h-609v1329h609q236 0 358.5 -94t122.5 -254q0 -201 -176 -279v-4q225 -67 225 -305zM848 422q0 61 -30 87t-105 26h-226v-230h232q74 0 101.5 25t27.5 92zM819 913q0 56 -27 78.5t-92 22.5h-213v-209h218q63 0 88.5 24t25.5 84z
" />
    <glyph glyph-name="c.sc" horiz-adv-x="1099" 
d="M1051 1300l-41 -321q-128 41 -265 41q-86 0 -140 -17t-86 -60t-44 -107t-12 -168q0 -212 59.5 -288.5t227.5 -76.5q139 0 264 51l39 -305q-164 -74 -359 -74q-322 0 -485.5 174.5t-163.5 520.5q0 331 167.5 507.5t512.5 176.5q162 0 326 -54z" />
    <glyph glyph-name="d.sc" horiz-adv-x="1353" 
d="M1307 668q0 -347 -160 -507.5t-479 -160.5h-562v1329h558q338 0 490.5 -161.5t152.5 -499.5zM891 672q0 134 -22 202.5t-70 93.5t-142 25h-153v-659h153q57 0 93 7.5t65.5 27t44.5 58t23 97.5t8 148z" />
    <glyph glyph-name="e.sc" horiz-adv-x="1159" 
d="M504 326h608l-8 -326h-998v1329h973l6 -332h-581v-174h479v-295h-479v-202z" />
    <glyph glyph-name="f.sc" horiz-adv-x="1130" 
d="M1085 989h-581v-203h485l-2 -317h-483v-469h-398v1329h971z" />
    <glyph glyph-name="g.sc" horiz-adv-x="1239" 
d="M1161 717v-672q-79 -32 -195.5 -51t-228.5 -19q-187 0 -320.5 45.5t-215 135.5t-119 215t-37.5 293q0 341 169 515.5t531 174.5q220 0 400 -60l-37 -325q-151 53 -340 53q-96 0 -154 -16t-92 -59.5t-45.5 -106.5t-11.5 -170q0 -148 23.5 -224t77.5 -106.5t159 -30.5
q43 0 86 6v402h350z" />
    <glyph glyph-name="h.sc" horiz-adv-x="1384" 
d="M1278 0h-397v502h-377v-502h-398v1329h398v-489h377v489h397v-1329z" />
    <glyph glyph-name="i.sc" horiz-adv-x="638" 
d="M117 0v1329h405v-1329h-405z" />
    <glyph glyph-name="j.sc" horiz-adv-x="913" 
d="M821 1329v-831q0 -273 -131.5 -398t-382.5 -125q-164 0 -270 50l20 311q72 -37 172 -37q111 0 150 44t39 155v831h403z" />
    <glyph glyph-name="k.sc" horiz-adv-x="1374" 
d="M1368 0h-477l-283 522h-104v-522h-398v1329h396v-502h112l285 502h451l-381 -631z" />
    <glyph glyph-name="l.sc" horiz-adv-x="1067" 
d="M506 336h530l-8 -336h-922v1329h400v-993z" />
    <glyph glyph-name="m.sc" horiz-adv-x="1742" 
d="M106 1329h433l268 -647l61 -154h6l60 154l272 647h430v-1329h-362v586l4 166l-6 2l-55 -158l-224 -596h-256l-221 580l-55 157l-4 -2l2 -166v-569h-353v1329z" />
    <glyph glyph-name="n.sc" horiz-adv-x="1394" 
d="M1290 0h-319l-418 596l-92 139l-4 -2l2 -166v-567h-353v1329h326l408 -569l94 -135l4 2l-4 164l2 538h354v-1329z" />
    <glyph glyph-name="o.sc" horiz-adv-x="1382" 
d="M1335 664q0 -352 -154 -520.5t-491 -168.5q-332 0 -488.5 172t-156.5 517q0 346 155 516t490 170q336 0 490.5 -169.5t154.5 -516.5zM920 664q0 144 -21 218.5t-69 104t-140 29.5q-89 0 -136.5 -29.5t-69 -104.5t-21.5 -218q0 -142 21.5 -218t69.5 -106.5t138 -30.5
t137.5 30.5t69 106.5t21.5 218z" />
    <glyph glyph-name="p.sc" horiz-adv-x="1261" 
d="M1217 846q0 -463 -584 -463h-129v-383h-398v1329h527q306 0 445 -119.5t139 -363.5zM807 848q0 101 -36 135.5t-138 34.5h-131v-338h131q101 0 137.5 32t36.5 136z" />
    <glyph glyph-name="q.sc" horiz-adv-x="1390" 
d="M1339 664q0 -246 -74 -401t-231 -226l223 -221l-456 -60l-154 221q-308 12 -453 183.5t-145 503.5q0 346 155 516t490 170q336 0 490.5 -169.5t154.5 -516.5zM924 664q0 144 -21 218.5t-69 104t-140 29.5q-89 0 -136.5 -29.5t-69 -104.5t-21.5 -218q0 -142 21.5 -218
t69.5 -106.5t138 -30.5t137.5 30.5t69 106.5t21.5 218z" />
    <glyph glyph-name="r.sc" horiz-adv-x="1308" 
d="M1214 893q0 -132 -54.5 -231t-151.5 -138l301 -524h-465l-203 446h-137v-446h-398v1329h543q565 0 565 -436zM799 877q0 84 -31.5 113.5t-118.5 29.5h-145v-295h143q86 0 119 30.5t33 121.5z" />
    <glyph glyph-name="s.sc" horiz-adv-x="1099" 
d="M1061 414q0 -201 -147.5 -320t-399.5 -119q-248 0 -451 99l50 323q204 -98 399 -98q90 0 129 22t39 66q0 29 -34 51t-87.5 39t-119 36.5t-131 51t-119 74.5t-87.5 115.5t-34 165.5q0 90 30.5 166t93 136.5t167.5 95t243 34.5q230 0 412 -68l-45 -315q-204 53 -348 53
q-102 0 -138.5 -21t-36.5 -61q0 -30 34 -52.5t88 -38.5t119.5 -34.5t131.5 -49t120 -72.5t88 -114t34 -165z" />
    <glyph glyph-name="t.sc" horiz-adv-x="1136" 
d="M1118 995h-348v-995h-403v995h-349l9 334h1083z" />
    <glyph glyph-name="u.sc" horiz-adv-x="1359" 
d="M1268 1329v-842q0 -512 -586 -512q-291 0 -439.5 129.5t-148.5 382.5v842h395v-837q0 -93 45.5 -136t147.5 -43q104 0 146 41t42 138v837h398z" />
    <glyph glyph-name="v.sc" horiz-adv-x="1361" 
d="M954 1329h414l-469 -1329h-436l-469 1329h438l215 -786l41 -160h6l41 160z" />
    <glyph glyph-name="w.sc" horiz-adv-x="1982" 
d="M786 1329h428l162 -805l31 -162h6l23 164l133 803h391l-328 -1329h-471l-141 766l-25 166h-6l-26 -166l-140 -766h-473l-327 1329h415l129 -813l23 -164h6l29 162z" />
    <glyph glyph-name="x.sc" horiz-adv-x="1363" 
d="M1339 1329l-381 -633l388 -696h-451l-137 285l-68 151h-6l-70 -151l-137 -285h-461l379 686l-372 643h473l118 -237l72 -150h6l70 148l123 239h454z" />
    <glyph glyph-name="y.sc" horiz-adv-x="1351" 
d="M-6 1329h448l183 -440l59 -154h6l58 154l176 440h434l-473 -917v-412h-408v412z" />
    <glyph glyph-name="z.sc" horiz-adv-x="1175" 
d="M1110 0h-1051v242l461 618l101 127l-3 4h-546l12 338h1022v-272l-444 -590l-101 -125l2 -6h551z" />
    <glyph glyph-name="exclamdown.sc" horiz-adv-x="618" 
d="M150 879h321l45 -1065h-414zM92 1188q0 182 211 182q111 0 161 -42.5t50 -139.5q0 -184 -211 -184t-211 184z" />
    <glyph glyph-name="dieresis.sc" 
d="M369 1528q0 -65 -36.5 -97t-115.5 -32q-78 0 -114.5 30t-36.5 99q0 129 151 129q152 0 152 -129zM778 1528q0 -65 -36 -97t-115 -32q-78 0 -115 30t-37 99q0 129 152 129q151 0 151 -129z" />
    <glyph glyph-name="macron.sc" 
d="M770 1620v-203h-698v203h698z" />
    <glyph glyph-name="acute.sc" 
d="M403 1651h467l-311 -258h-319z" />
    <glyph glyph-name="cedilla.sc" 
d="M190 -385l158 420l258 4l-69 -424h-347z" />
    <glyph glyph-name="questiondown.sc" horiz-adv-x="1030" 
d="M43 195q0 303 334 481l14 203h309l21 -342q-135 -69 -203.5 -133t-68.5 -146q0 -52 40 -82.5t115 -30.5q158 0 275 99l137 -307q-80 -64 -207 -104t-264 -40q-245 0 -373.5 107.5t-128.5 294.5zM338 1188q0 182 211 182q111 0 161 -42.5t50 -139.5q0 -184 -211 -184
t-211 184z" />
    <glyph glyph-name="germandbls.sc" horiz-adv-x="1433" 
d="M1153 809l-442 -440l-441 440l441 442zM1130 809l-419 420l-105 -105l105 -104l-209 -211l104 -104l211 210l105 -106l-211 -209l106 -104z" />
    <glyph glyph-name="agrave.sc" horiz-adv-x="1411" 
d="M969 0l-62 223h-428l-63 -223h-420l469 1329h469l481 -1329h-446zM694 997l-43 -161l-86 -306h258l-84 306l-39 161h-6zM905 1393h-289l-262 258h434z" />
    <glyph glyph-name="aacute.sc" horiz-adv-x="1411" 
d="M969 0l-62 223h-428l-63 -223h-420l469 1329h469l481 -1329h-446zM694 997l-43 -161l-86 -306h258l-84 306l-39 161h-6zM676 1651h467l-312 -258h-319z" />
    <glyph glyph-name="acircumflex.sc" horiz-adv-x="1411" 
d="M969 0l-62 223h-428l-63 -223h-420l469 1329h469l481 -1329h-446zM694 997l-43 -161l-86 -306h258l-84 306l-39 161h-6zM524 1651h338l199 -258h-289l-76 123l-78 -123h-288z" />
    <glyph glyph-name="atilde.sc" horiz-adv-x="1411" 
d="M969 0l-62 223h-428l-63 -223h-420l469 1329h469l481 -1329h-446zM694 997l-43 -161l-86 -306h258l-84 306l-39 161h-6zM510 1440l-176 2q3 109 65.5 178.5t165.5 69.5q61 0 112 -19t90.5 -38t72.5 -19q48 0 61 55h176q-2 -111 -65.5 -179.5t-165.5 -68.5
q-60 0 -111.5 19t-90.5 38t-71 19q-25 0 -41.5 -15.5t-21.5 -41.5z" />
    <glyph glyph-name="adieresis.sc" horiz-adv-x="1411" 
d="M969 0l-62 223h-428l-63 -223h-420l469 1329h469l481 -1329h-446zM694 997l-43 -161l-86 -306h258l-84 306l-39 161h-6zM643 1528q0 -65 -36.5 -97t-114.5 -32t-115 30t-37 99q0 129 152 129q151 0 151 -129zM1053 1528q0 -65 -36.5 -97t-115.5 -32q-78 0 -114.5 30
t-36.5 99q0 129 151 129q152 0 152 -129z" />
    <glyph glyph-name="aring.sc" horiz-adv-x="1411" 
d="M393 1456q0 102 70.5 156.5t232.5 54.5q157 0 232.5 -56.5t75.5 -154.5q0 -99 -62 -149l473 -1307h-446l-62 223h-428l-63 -223h-420l459 1303q-62 53 -62 153zM694 997l-43 -161l-86 -306h258l-84 306l-39 161h-6zM592 1456q0 -31 23 -45t87 -14q59 0 84 14t25 45
q0 60 -109 60q-62 0 -86 -15t-24 -45z" />
    <glyph glyph-name="ae.sc" horiz-adv-x="1996" 
d="M1927 999h-567l6 -176h457v-295h-445l6 -202h566l-8 -326h-949l-8 223h-418l-106 -223h-473l751 1329h1180zM952 1036l-69 -151l-170 -357h260l-12 340l-3 166z" />
    <glyph glyph-name="ccedilla.sc" horiz-adv-x="1099" 
d="M348 -385l144 381q-447 100 -447 674q0 331 167.5 507.5t512.5 176.5q162 0 326 -54l-41 -321q-128 41 -265 41q-86 0 -140 -17t-86 -60t-44 -107t-12 -168q0 -212 59.5 -288.5t227.5 -76.5q139 0 264 51l39 -305q-126 -59 -299 -72l-60 -362h-346z" />
    <glyph glyph-name="egrave.sc" horiz-adv-x="1159" 
d="M504 326h608l-8 -326h-998v1329h973l6 -332h-581v-174h479v-295h-479v-202zM825 1393h-288l-263 258h435z" />
    <glyph glyph-name="eacute.sc" horiz-adv-x="1159" 
d="M504 326h608l-8 -326h-998v1329h973l6 -332h-581v-174h479v-295h-479v-202zM596 1651h467l-311 -258h-320z" />
    <glyph glyph-name="ecircumflex.sc" horiz-adv-x="1159" 
d="M504 326h608l-8 -326h-998v1329h973l6 -332h-581v-174h479v-295h-479v-202zM442 1651h338l199 -258h-289l-76 123l-77 -123h-289z" />
    <glyph glyph-name="edieresis.sc" horiz-adv-x="1159" 
d="M504 326h608l-8 -326h-998v1329h973l6 -332h-581v-174h479v-295h-479v-202zM563 1528q0 -65 -36 -97t-115 -32q-78 0 -115 30t-37 99q0 129 152 129q151 0 151 -129zM973 1528q0 -65 -36.5 -97t-115.5 -32q-78 0 -114.5 30t-36.5 99q0 129 151 129q152 0 152 -129z" />
    <glyph glyph-name="igrave.sc" horiz-adv-x="638" 
d="M117 0v1329h405v-1329h-405zM524 1393h-288l-263 258h435z" />
    <glyph glyph-name="iacute.sc" horiz-adv-x="638" 
d="M117 0v1329h405v-1329h-405zM297 1651h467l-311 -258h-320z" />
    <glyph glyph-name="icircumflex.sc" horiz-adv-x="638" 
d="M117 0v1329h405v-1329h-405zM143 1651h338l199 -258h-289l-76 123l-77 -123h-289z" />
    <glyph glyph-name="idieresis.sc" horiz-adv-x="638" 
d="M117 0v1329h405v-1329h-405zM262 1528q0 -65 -36 -97t-115 -32q-78 0 -115 30t-37 99q0 129 152 129q151 0 151 -129zM672 1528q0 -65 -36.5 -97t-115.5 -32q-78 0 -114.5 30t-36.5 99q0 129 151 129q152 0 152 -129z" />
    <glyph glyph-name="eth.sc" horiz-adv-x="1374" 
d="M1327 668q0 -347 -160 -507.5t-479 -160.5h-561v557h-109v262h109v510h557q338 0 490.5 -161.5t152.5 -499.5zM911 672q0 135 -22 203t-69.5 93t-141.5 25h-154v-174h166v-262h-166v-223h154q57 0 93 7.5t65.5 27t44.5 58t22.5 97.5t7.5 148z" />
    <glyph glyph-name="ntilde.sc" horiz-adv-x="1394" 
d="M1290 0h-319l-418 596l-92 139l-4 -2l2 -166v-567h-353v1329h326l408 -569l94 -135l4 2l-4 164l2 538h354v-1329zM500 1440l-176 2q3 109 65.5 178.5t165.5 69.5q61 0 111.5 -19t90 -38t72.5 -19q49 0 62 55h176q-2 -111 -65.5 -179.5t-165.5 -68.5q-60 0 -111.5 19
t-90.5 38t-71 19q-25 0 -41.5 -15.5t-21.5 -41.5z" />
    <glyph glyph-name="ograve.sc" horiz-adv-x="1382" 
d="M1335 664q0 -352 -154 -520.5t-491 -168.5q-332 0 -488.5 172t-156.5 517q0 346 155 516t490 170q336 0 490.5 -169.5t154.5 -516.5zM920 664q0 144 -21 218.5t-69 104t-140 29.5q-89 0 -136.5 -29.5t-69 -104.5t-21.5 -218q0 -142 21.5 -218t69.5 -106.5t138 -30.5
t137.5 30.5t69 106.5t21.5 218zM897 1393h-289l-262 258h434z" />
    <glyph glyph-name="oacute.sc" horiz-adv-x="1382" 
d="M1335 664q0 -352 -154 -520.5t-491 -168.5q-332 0 -488.5 172t-156.5 517q0 346 155 516t490 170q336 0 490.5 -169.5t154.5 -516.5zM920 664q0 144 -21 218.5t-69 104t-140 29.5q-89 0 -136.5 -29.5t-69 -104.5t-21.5 -218q0 -142 21.5 -218t69.5 -106.5t138 -30.5
t137.5 30.5t69 106.5t21.5 218zM670 1651h467l-312 -258h-319z" />
    <glyph glyph-name="ocircumflex.sc" horiz-adv-x="1382" 
d="M1335 664q0 -352 -154 -520.5t-491 -168.5q-332 0 -488.5 172t-156.5 517q0 346 155 516t490 170q336 0 490.5 -169.5t154.5 -516.5zM920 664q0 144 -21 218.5t-69 104t-140 29.5q-89 0 -136.5 -29.5t-69 -104.5t-21.5 -218q0 -142 21.5 -218t69.5 -106.5t138 -30.5
t137.5 30.5t69 106.5t21.5 218zM516 1651h338l199 -258h-289l-76 123l-78 -123h-288z" />
    <glyph glyph-name="otilde.sc" horiz-adv-x="1382" 
d="M1335 664q0 -352 -154 -520.5t-491 -168.5q-332 0 -488.5 172t-156.5 517q0 346 155 516t490 170q336 0 490.5 -169.5t154.5 -516.5zM920 664q0 144 -21 218.5t-69 104t-140 29.5q-89 0 -136.5 -29.5t-69 -104.5t-21.5 -218q0 -142 21.5 -218t69.5 -106.5t138 -30.5
t137.5 30.5t69 106.5t21.5 218zM502 1440l-176 2q3 109 65.5 178.5t165.5 69.5q61 0 111.5 -19t90 -38t72.5 -19q49 0 62 55h176q-2 -111 -65.5 -179.5t-165.5 -68.5q-60 0 -111.5 19t-90.5 38t-71 19q-25 0 -41.5 -15.5t-21.5 -41.5z" />
    <glyph glyph-name="odieresis.sc" horiz-adv-x="1382" 
d="M1335 664q0 -352 -154 -520.5t-491 -168.5q-332 0 -488.5 172t-156.5 517q0 346 155 516t490 170q336 0 490.5 -169.5t154.5 -516.5zM920 664q0 144 -21 218.5t-69 104t-140 29.5q-89 0 -136.5 -29.5t-69 -104.5t-21.5 -218q0 -142 21.5 -218t69.5 -106.5t138 -30.5
t137.5 30.5t69 106.5t21.5 218zM637 1528q0 -65 -36.5 -97t-115.5 -32q-78 0 -114.5 30t-36.5 99q0 129 151 129q152 0 152 -129zM1047 1528q0 -65 -36.5 -97t-115.5 -32q-78 0 -115 30t-37 99q0 129 152 129t152 -129z" />
    <glyph glyph-name="oslash.sc" horiz-adv-x="1382" 
d="M238 -39l-175 154l87 104q-103 163 -103 445q0 347 154.5 516.5t490.5 169.5q234 0 385 -88l90 106l172 -158l-96 -114q94 -163 94 -432q0 -352 -154 -520.5t-491 -168.5q-232 0 -375 82zM463 664q0 -101 4 -140l4 -2l107 125l280 316q-50 53 -166 53q-90 0 -137.5 -29.5
t-69.5 -104.5t-22 -218zM920 664v124l-5 3l-108 -127l-272 -308q47 -47 159 -47q89 0 136 30.5t68.5 106.5t21.5 218z" />
    <glyph glyph-name="ugrave.sc" horiz-adv-x="1359" 
d="M1268 1329v-842q0 -512 -586 -512q-291 0 -439.5 129.5t-148.5 382.5v842h395v-837q0 -93 45.5 -136t147.5 -43q104 0 146 41t42 138v837h398zM891 1393h-289l-262 258h434z" />
    <glyph glyph-name="uacute.sc" horiz-adv-x="1359" 
d="M1268 1329v-842q0 -512 -586 -512q-291 0 -439.5 129.5t-148.5 382.5v842h395v-837q0 -93 45.5 -136t147.5 -43q104 0 146 41t42 138v837h398zM662 1651h466l-311 -258h-319z" />
    <glyph glyph-name="ucircumflex.sc" horiz-adv-x="1359" 
d="M1268 1329v-842q0 -512 -586 -512q-291 0 -439.5 129.5t-148.5 382.5v842h395v-837q0 -93 45.5 -136t147.5 -43q104 0 146 41t42 138v837h398zM508 1651h338l198 -258h-288l-76 123l-78 -123h-289z" />
    <glyph glyph-name="udieresis.sc" horiz-adv-x="1359" 
d="M1268 1329v-842q0 -512 -586 -512q-291 0 -439.5 129.5t-148.5 382.5v842h395v-837q0 -93 45.5 -136t147.5 -43q104 0 146 41t42 138v837h398zM629 1528q0 -65 -36.5 -97t-115.5 -32q-78 0 -114.5 30t-36.5 99q0 129 151 129q152 0 152 -129zM1038 1528q0 -65 -36 -97
t-115 -32q-78 0 -115 30t-37 99q0 129 152 129q151 0 151 -129z" />
    <glyph glyph-name="yacute.sc" horiz-adv-x="1351" 
d="M-6 1329h448l183 -440l59 -154h6l58 154l176 440h434l-473 -917v-412h-408v412zM666 1651h467l-312 -258h-319z" />
    <glyph glyph-name="thorn.sc" horiz-adv-x="1265" 
d="M1217 664q0 -463 -594 -463h-119v-201h-398v1329h398v-182h119q313 0 453.5 -119t140.5 -364zM807 666q0 101 -37.5 135.5t-146.5 34.5h-121v-338h121q107 0 145.5 32.5t38.5 135.5z" />
    <glyph glyph-name="ydieresis.sc" horiz-adv-x="1351" 
d="M-6 1329h448l183 -440l59 -154h6l58 154l176 440h434l-473 -917v-412h-408v412zM633 1528q0 -65 -36.5 -97t-115.5 -32q-78 0 -114.5 30t-36.5 99q0 129 151 129q152 0 152 -129zM1042 1528q0 -65 -36 -97t-115 -32q-78 0 -115 30t-37 99q0 129 152 129q151 0 151 -129z
" />
    <glyph glyph-name="dotlessi.sc" horiz-adv-x="638" 
d="M117 0v1329h405v-1329h-405z" />
    <glyph glyph-name="ij.sc" horiz-adv-x="1562" 
d="M1470 1329v-831q0 -273 -131.5 -398t-382.5 -125q-164 0 -270 50l21 311q72 -37 172 -37q111 0 149.5 44t38.5 155v831h403zM117 0v1329h405v-1329h-405z" />
    <glyph glyph-name="lslash.sc" horiz-adv-x="1134" 
d="M573 336h531l-8 -336h-922v489l-139 -51l-19 301l158 60v530h399v-395l336 127l23 -316l-359 -129v-280z" />
    <glyph glyph-name="oe.sc" horiz-adv-x="1923" 
d="M1870 0h-940v82l-4 2q-124 -109 -324 -109q-272 0 -414.5 173.5t-142.5 515.5q0 686 563 686q194 0 318 -93l4 3v69h915l6 -336h-565v-168h467v-299h-467v-196h590zM899 664q0 144 -20 217.5t-66 102t-135 28.5q-85 0 -130 -28.5t-66 -102.5t-21 -217q0 -142 21 -217.5
t67 -105.5t133 -30q86 0 131 30t65.5 105.5t20.5 217.5z" />
    <glyph glyph-name="scaron.sc" horiz-adv-x="1099" 
d="M1061 414q0 -201 -147.5 -320t-399.5 -119q-248 0 -451 99l50 323q204 -98 399 -98q90 0 129 22t39 66q0 29 -34 51t-87.5 39t-119 36.5t-131 51t-119 74.5t-87.5 115.5t-34 165.5q0 90 30.5 166t93 136.5t167.5 95t243 34.5q230 0 412 -68l-45 -315q-204 53 -348 53
q-102 0 -138.5 -21t-36.5 -61q0 -30 34 -52.5t88 -38.5t119.5 -34.5t131.5 -49t120 -72.5t88 -114t34 -165zM745 1393h-342l-192 258h287l77 -133l78 133h293z" />
    <glyph glyph-name="zcaron.sc" horiz-adv-x="1175" 
d="M1110 0h-1051v242l461 618l101 127l-3 4h-546l12 338h1022v-272l-444 -590l-101 -125l2 -6h551zM770 1393h-342l-192 258h286l78 -133l78 133h293z" />
    <glyph glyph-name="circumflex.sc" 
d="M248 1651h338l198 -258h-288l-76 123l-78 -123h-289z" />
    <glyph glyph-name="caron.sc" 
d="M592 1393h-342l-193 258h287l78 -133l78 133h293z" />
    <glyph glyph-name="breve.sc" 
d="M500 1651h266q0 -134 -84 -201.5t-266 -67.5q-188 0 -267 68.5t-79 200.5h260q0 -103 88 -103q82 0 82 103z" />
    <glyph glyph-name="dotaccent.sc" 
d="M616 1524q0 -67 -47 -99t-147 -32t-146.5 30t-46.5 101q0 131 193 131q194 0 194 -131z" />
    <glyph glyph-name="ring.sc" 
d="M119 1450q0 102 70.5 156.5t232.5 54.5q157 0 232 -56.5t75 -154.5q0 -108 -73 -158.5t-234 -50.5q-157 0 -230 48.5t-73 160.5zM317 1450q0 -31 23.5 -45t87.5 -14q59 0 84 14t25 45q0 29 -24 44t-85 15q-63 0 -87 -14.5t-24 -44.5z" />
    <glyph glyph-name="ogonek.sc" 
d="M551 45l147 -45q-50 0 -84 -29t-34 -67q0 -68 94 -68q51 0 88 19l31 -199q-104 -51 -234 -51q-133 0 -204.5 52.5t-71.5 135.5q0 187 268 252z" />
    <glyph glyph-name="tilde.sc" 
d="M233 1440l-176 2q3 108 66 178t166 70q61 0 111.5 -19t90 -38t72.5 -19q49 0 62 55h176q-2 -111 -66 -179.5t-166 -68.5q-60 0 -111 19t-90 38t-71 19q-26 0 -42.5 -15.5t-21.5 -41.5z" />
    <glyph glyph-name="hungarumlaut.sc" 
d="M195 1651h383l-222 -258h-245zM635 1651h389l-252 -258h-280z" />
    <glyph glyph-name="fi.sc" horiz-adv-x="1433" 
d="M1153 809l-442 -440l-441 440l441 442zM1130 809l-419 420l-105 -105l105 -104l-209 -211l104 -104l211 210l105 -106l-211 -209l106 -104z" />
    <glyph glyph-name="fl.sc" horiz-adv-x="1433" 
d="M1153 809l-442 -440l-441 440l441 442zM1130 809l-419 420l-105 -105l105 -104l-209 -211l104 -104l211 210l105 -106l-211 -209l106 -104z" />
    <glyph glyph-name="dollar.subs" horiz-adv-x="706" 
d="M328 614h200l-14 -147q59 -8 131 -29l-29 -200q-126 30 -202 30q-107 0 -107 -35q0 -15 20 -25t52.5 -17t71.5 -16t78.5 -25.5t72 -40.5t52.5 -66t20 -98q0 -96 -55 -160.5t-160 -87.5l-10 -125h-201l8 121q-115 13 -193 53l31 209q68 -34 120.5 -49t115.5 -15
q100 0 100 37q0 13 -20 22.5t-52 17t-71 17t-78 26.5t-71 42t-52 67.5t-20 98.5q0 96 60.5 164.5t186.5 87.5z" />
    <glyph glyph-name="comma.subs" horiz-adv-x="372" 
d="M178 -92q139 0 139 -131q0 -61 -40.5 -141t-90.5 -130l-94 19l33 137q-32 15 -56 45.5t-24 67.5q0 133 133 133z" />
    <glyph glyph-name="period.subs" horiz-adv-x="372" 
d="M328 -213q0 -62 -34 -93.5t-108 -31.5q-76 0 -108.5 28t-32.5 97q0 127 141 127q75 0 108.5 -32t33.5 -95z" />
    <glyph glyph-name="cent.subs" horiz-adv-x="706" 
d="M662 442l-15 -200q-68 20 -137 20q-108 0 -147 -38t-39 -134q0 -178 180 -178q59 0 149 25l19 -183q-58 -31 -146 -43l-10 -139h-207l13 147q-135 29 -205 124.5t-70 246.5q0 163 78 261t242 118l14 147h209l-17 -151q40 -7 89 -23z" />
    <glyph glyph-name="dollar.sups" horiz-adv-x="706" 
d="M328 1972h200l-14 -147q59 -8 131 -29l-29 -201q-130 31 -202 31q-107 0 -107 -35q0 -15 20 -25t52.5 -17t71.5 -16t78.5 -25.5t72 -40.5t52.5 -66t20 -98q0 -96 -55.5 -161.5t-159.5 -86.5l-10 -125h-201l8 119q-109 13 -193 55l31 209q68 -34 120.5 -49t115.5 -15
q100 0 100 37q0 13 -20 22.5t-52 17t-71 17t-78 26.5t-71 42t-52 67.5t-20 98.5q0 96 60.5 164.5t186.5 87.5z" />
    <glyph glyph-name="comma.sups" horiz-adv-x="372" 
d="M178 1264q139 0 139 -129q0 -62 -40.5 -142.5t-90.5 -128.5l-94 17l33 139q-31 13 -55.5 43.5t-24.5 66.5q0 134 133 134z" />
    <glyph glyph-name="period.sups" horiz-adv-x="372" 
d="M328 1145q0 -63 -33.5 -95t-108.5 -32q-76 0 -108.5 28.5t-32.5 98.5q0 63 33.5 94t107.5 31q75 0 108.5 -31t33.5 -94z" />
    <glyph glyph-name="cent.sups" horiz-adv-x="706" 
d="M662 1800l-13 -201q-90 21 -139 21q-106 0 -145 -39t-39 -135q0 -176 180 -176q59 0 149 24l17 -184q-65 -35 -144 -43l-12 -137h-207l13 145q-134 29 -203.5 124t-69.5 247q0 162 78 261t240 120l16 147h207l-15 -151q35 -6 87 -23z" />
    <glyph glyph-name="numbersign.tf" horiz-adv-x="1302" 
d="M98 631h164l35 258h-199v287h232l45 360h315l-45 -360h137l43 360h310l-45 -360h120v-287h-151l-35 -258h186l2 -293h-221l-41 -338h-307l41 338h-141l-41 -338h-314l41 338h-131v293zM612 889l-34 -258h139l35 258h-140z" />
    <glyph glyph-name="dollar.tf" horiz-adv-x="1302" 
d="M627 -162l-211 19l20 129q-193 23 -307 84q4 31 20 153.5t29 198.5q157 -80 314 -109l49 291q-69 25 -122.5 50.5t-111.5 67t-96 90t-63 119.5t-25 156q0 228 143.5 348t431.5 126l23 131l233 -21l-22 -127q115 -16 192 -47l-20 -340q-104 27 -234 43l-47 -264
q63 -23 112 -47t102 -63.5t87.5 -87t57 -116.5t22.5 -153q0 -251 -133.5 -372.5t-421.5 -125.5zM881 416q0 36 -33 62t-98 52l-41 -233q172 11 172 119zM483 1106q0 -33 31 -56.5t92 -45.5l35 206q-158 -8 -158 -104z" />
    <glyph glyph-name="cent.tf" horiz-adv-x="1302" 
d="M1055 1223l-21 -320q-114 31 -190 31q-156 0 -214.5 -69.5t-58.5 -246.5q0 -319 265 -319q109 0 204 37l27 -295q-82 -46 -223 -61l-17 -226h-303l19 246q-381 107 -381 618q0 566 446 642l21 233h303l-21 -236q85 -13 144 -34z" />
    <glyph glyph-name="sterling.tf" horiz-adv-x="1302" 
d="M129 608l-14 295h92q-41 112 -41 199q0 75 19.5 141t66 126t116.5 103t177.5 68t242.5 25q197 0 369 -58l-47 -342q-131 43 -272 43q-250 0 -250 -159q0 -65 24 -146h471v-295h-399q2 -12 2 -39q0 -155 -117 -229l4 -6q132 35 326 35q150 0 318 -23q-1 -3 -9 -179
t-10 -183q-249 30 -491 30q-308 0 -578 -24l-20 352q83 10 134.5 71t51.5 138q0 21 -4 57h-162z" />
    <glyph glyph-name="currency.tf" horiz-adv-x="1302" 
d="M236 743q0 103 43 185l-148 149l199 203l153 -156q78 35 166 35q89 0 164 -35l158 156l196 -203l-147 -149q43 -88 43 -185q0 -82 -33 -163l137 -140l-198 -202l-133 131q-82 -43 -187 -43q-100 0 -188 45l-133 -133l-197 202l137 140q-32 78 -32 163zM485 748
q0 -66 47.5 -113t114.5 -47q70 0 118 47t48 113q0 68 -48 114.5t-118 46.5q-68 0 -115 -47t-47 -114z" />
    <glyph glyph-name="yen.tf" horiz-adv-x="1302" 
d="M180 760h158l-322 776h467l133 -594l33 -162h6l31 162l133 594h461l-311 -776h172v-223h-258v-70h258v-221h-258v-246h-457v246h-246v221h246v70h-246v223z" />
    <glyph glyph-name="franc.tf" horiz-adv-x="1302" 
d="M49 434h117v1102h1038l6 -371h-614v-231h461l-4 -350h-457v-150h135v-272h-135v-162h-430v162h-117v272z" />
    <glyph glyph-name="lira.tf" horiz-adv-x="1302" 
d="M147 793l-16 200h53q-12 49 -12 109q0 75 19.5 141t66 126t117 103t178 68t242.5 25q194 0 366 -58l-47 -342q-131 43 -272 43q-129 0 -189.5 -49t-60.5 -127q0 -27 2 -39h502v-200h-445q12 -35 21 -72h424v-197h-410q-15 -124 -113 -184l5 -6q132 35 325 35
q147 0 318 -23q-1 -3 -9 -179t-10 -183q-246 30 -491 30q-308 0 -576 -24l-22 352q74 9 124.5 60.5t59.5 121.5h-135l-10 197h124q-3 13 -22 72h-107z" />
    <glyph glyph-name="peseta.tf" horiz-adv-x="1374" 
d="M1311 889h-80q-22 -220 -162.5 -330t-425.5 -110h-129v-449h-399v889h-76v184h76v463h528q289 0 428.5 -111.5t159.5 -351.5h80v-184zM512 1204v-131h307q-10 75 -49.5 103t-126.5 28h-131zM643 766q82 0 122.5 25.5t53.5 97.5h-307v-123h131z" />
    <glyph glyph-name="Euro.tf" horiz-adv-x="1302" 
d="M1044 717l-47 -195h-333q33 -115 111 -166t204 -51q104 0 235 49l29 -299q-150 -75 -379 -75q-543 0 -641 542h-166l2 195h144v74h-144l-2 200h166q52 255 225 403t439 148q208 0 356 -55l-82 -328q-77 27 -176 27q-126 0 -203 -47.5t-112 -147.5h446l-49 -200h-430v-74
h407z" />
    <glyph glyph-name="numbersign.tosf" horiz-adv-x="1239" 
d="M57 557h158l37 209h-193v262h230l47 301h303l-47 -301h164l47 301h297l-47 -301h125v-262h-162l-33 -209h195l2 -264h-234l-47 -293h-295l45 293h-170l-45 -293h-301l45 293h-121v264zM555 766l-35 -209h164l35 209h-164z" />
    <glyph glyph-name="dollar.tosf" horiz-adv-x="1239" 
d="M1149 416q0 -171 -100.5 -285t-311.5 -145l-22 -242h-326l21 240q-177 19 -306 75l52 328q92 -46 214 -69t222 -23q139 0 139 80q0 29 -35 47.5t-91.5 30.5t-124.5 25.5t-135.5 40t-124 66t-91.5 110.5t-35 167q0 161 102 266.5t304 135.5l24 249h326l-25 -247
q134 -17 273 -64l-35 -328q-184 68 -397 68q-142 0 -142 -63q0 -23 21.5 -39t57.5 -26.5t83 -19.5t98.5 -21t103.5 -28t99 -43.5t83 -64t57.5 -93.5t21.5 -128z" />
    <glyph glyph-name="zero.tosf" horiz-adv-x="1239" 
d="M1188 659q0 -345 -138.5 -512t-433.5 -167q-297 0 -431 165.5t-134 513.5q0 363 134.5 527t435.5 164q297 0 432 -164.5t135 -526.5zM788 662q0 89 -7 152.5t-19.5 103t-34 62t-46 30.5t-60.5 8q-64 0 -100 -26.5t-56.5 -105.5t-20.5 -224q0 -92 7.5 -156t20.5 -103.5
t36 -61t48.5 -29t64.5 -7.5q36 0 61 8t46.5 30.5t33.5 62t19 103t7 153.5z" />
    <glyph glyph-name="one.tosf" horiz-adv-x="1239" 
d="M242 0v223h237v662l-268 -140l-37 312l465 272h246v-1106h241v-223h-884z" />
    <glyph glyph-name="two.tosf" horiz-adv-x="1239" 
d="M1133 934q0 -70 -23 -135t-60 -120t-102.5 -117t-132 -114t-166.5 -122v-7h479l-8 -319h-991v248q59 53 140.5 124.5t129.5 113.5t107 96.5t92 91.5t64.5 78.5t45 77t13.5 69.5q0 119 -178 119q-156 0 -344 -111l-95 301q222 140 512 140q256 0 386.5 -113.5
t130.5 -300.5z" />
    <glyph glyph-name="three.tosf" horiz-adv-x="1239" 
d="M1137 373q0 -285 -226 -435t-649 -159l-35 307q145 4 249.5 27t163.5 61.5t85.5 85t26.5 102.5q0 70 -46 107.5t-153 38.5q-64 0 -127 -14l-18 260q130 13 200 33t96.5 48t26.5 74q0 113 -190 113q-197 0 -355 -107l-86 304q88 61 212.5 97t254.5 36q251 0 389 -108
t138 -281q0 -189 -142 -287q185 -92 185 -303z" />
    <glyph glyph-name="four.tosf" horiz-adv-x="1239" 
d="M1198 115h-121v-322l-368 -18v340h-652l-30 250l591 985l459 -27v-903h129zM723 420l16 418l11 166l-5 2l-79 -148l-250 -438h307z" />
    <glyph glyph-name="five.tosf" horiz-adv-x="1239" 
d="M1135 383q0 -285 -226.5 -443.5t-660.5 -158.5l-37 319q267 0 396.5 67t129.5 179q0 123 -207 123q-137 0 -268 -43l-133 152l61 753h863l14 -352h-557l-14 -203q76 15 161 15q221 0 349.5 -107t128.5 -301z" />
    <glyph glyph-name="six.tosf" horiz-adv-x="1239" 
d="M1178 543q0 -285 -140.5 -424t-396.5 -139q-281 0 -429.5 168t-148.5 511q0 171 48.5 317t132 249.5t195 176.5t237 109t258.5 37l57 -323q-210 -1 -339.5 -79.5t-176.5 -209.5l4 -4q105 57 232 57q228 0 347.5 -114t119.5 -332zM788 541q0 77 -37 114t-120 37
q-42 0 -90 -18t-70 -47q1 -180 40 -246t132 -66q145 0 145 226z" />
    <glyph glyph-name="seven.tosf" horiz-adv-x="1239" 
d="M1141 1329v-321l-512 -1198h-447l539 1159h-627l23 360h1024z" />
    <glyph glyph-name="eight.tosf" horiz-adv-x="1239" 
d="M45 399q0 84 45 161.5t129 131.5q-119 104 -119 285q0 178 128.5 274.5t392.5 96.5q265 0 391.5 -98.5t126.5 -274.5q0 -157 -125 -266q180 -104 180 -312q0 -207 -144 -314.5t-429 -107.5q-576 0 -576 424zM795 377q0 31 -18 55t-54.5 42t-74.5 31t-94 30q-19 5 -28 8
q-92 -61 -92 -137q0 -71 47.5 -103.5t149.5 -32.5q164 0 164 107zM477 958q0 -23 12.5 -42.5t30 -32t51.5 -26t60 -21t74 -19.5q75 53 75 121q0 60 -38 89.5t-126 29.5q-139 0 -139 -99z" />
    <glyph glyph-name="nine.tosf" horiz-adv-x="1239" 
d="M1163 715q0 -197 -45.5 -354.5t-124.5 -264t-191 -177t-241 -102t-278 -32.5l-39 315q193 3 326.5 79t174.5 224l-4 5q-91 -54 -225 -54q-211 0 -335 120.5t-124 356.5q0 246 140 382.5t409 136.5q274 0 415.5 -161.5t141.5 -473.5zM766 756q-1 147 -40 201.5t-128 54.5
q-74 0 -109.5 -40t-35.5 -130t34 -128t119 -38q62 0 103.5 21t56.5 59z" />
    <glyph glyph-name="cent.tosf" horiz-adv-x="1239" 
d="M1133 1219l-21 -334q-132 39 -246 39q-185 0 -255 -65t-70 -234q0 -310 325 -310q128 0 252 43l29 -305q-87 -55 -266 -71l-21 -242h-319l22 256q-224 46 -339 205.5t-115 421.5q0 577 534 641l23 249h319l-24 -256q91 -12 172 -38z" />
    <glyph glyph-name="sterling.tosf" horiz-adv-x="1239" 
d="M98 518l-12 273h82q-25 80 -25 137q0 56 13 107t40.5 99.5t75 87t113 68.5t158.5 46t207 16q184 0 360 -52l-45 -309q-136 39 -277 39q-130 0 -184.5 -35.5t-54.5 -101.5q0 -56 14 -102h465v-273h-403q0 -5 1 -13.5t1 -12.5q0 -127 -92 -189l4 -6q135 33 317 33
q153 0 307 -23l-18 -321q-234 26 -486 26q-285 0 -559 -20l-12 315q74 7 117 54t43 108q0 17 -4 49h-146z" />
    <glyph glyph-name="currency.tosf" horiz-adv-x="1239" 
d="M207 664q0 100 41 184l-146 149l199 203l154 -156q75 35 163 35q86 0 164 -35l156 158l199 -205l-148 -149q43 -88 43 -184q0 -81 -33 -162l136 -137l-199 -205l-131 131q-85 -43 -187 -43q-103 0 -188 43l-131 -131l-197 205l136 137q-31 76 -31 162zM457 670
q0 -66 47 -112t114 -46t113.5 46t46.5 112t-46.5 111.5t-113.5 45.5q-68 0 -114.5 -45.5t-46.5 -111.5z" />
    <glyph glyph-name="yen.tosf" horiz-adv-x="1239" 
d="M172 643h154l-326 686h428l143 -465l47 -157h7l43 157l143 465h420l-318 -686h170v-178h-249v-70h249v-176h-249v-219h-426v219h-236v176h236v70h-236v178z" />
    <glyph glyph-name="franc.tosf" horiz-adv-x="1239" 
d="M61 377h109v952h985l8 -332h-600v-186h441l-5 -309h-436v-125h127v-240h-127v-137h-393v137h-109v240z" />
    <glyph glyph-name="lira.tosf" horiz-adv-x="1239" 
d="M111 686l-17 170h53q-6 34 -6 72q0 56 13 107t40.5 99.5t75 87t113 68.5t158.5 46t207 16q183 0 362 -52l-47 -309q-132 39 -277 39q-130 0 -184.5 -35.5t-54.5 -101.5q0 -25 2 -37h477v-170h-432l18 -63h414v-168h-401q-12 -98 -93 -152l5 -6q135 33 317 33
q151 0 309 -23l-20 -321q-231 26 -486 26q-283 0 -557 -20l-14 315q70 6 111.5 48t46.5 100h-119l-12 168h110l-20 63h-92z" />
    <glyph glyph-name="peseta.tosf" horiz-adv-x="1239" 
d="M1214 768h-84q-22 -183 -151.5 -278t-386.5 -95h-117v-395h-375v768h-61v164h61v397h492q263 0 392 -97t149 -300h81v-164zM473 1024v-92h272q-10 53 -45 72.5t-110 19.5h-117zM592 688q71 0 104.5 16t46.5 64h-270v-80h119z" />
    <glyph glyph-name="Euro.tosf" horiz-adv-x="1239" 
d="M1186 1282l-94 -297q-95 31 -193 31q-125 0 -196 -32.5t-103 -104.5h457l-60 -183h-432v-67h412l-59 -174h-314q77 -158 287 -158q127 0 244 49l12 -291q-137 -80 -369 -80q-270 0 -434.5 123t-214.5 357h-82v174h64v67h-64v183h84q101 471 664 471q106 0 212.5 -18.5
t178.5 -49.5z" />
    <glyph glyph-name="zero.zero" horiz-adv-x="1253" 
d="M1196 659q0 -346 -138 -512.5t-433 -166.5q-297 0 -431.5 166t-134.5 513q0 363 134.5 527t435.5 164q297 0 432 -164.5t135 -526.5zM817 664q0 106 -11 173.5t-37 103t-58.5 48t-83.5 12.5q-69 0 -108.5 -24.5t-62 -99.5t-22.5 -213q0 -107 11.5 -175t37.5 -104
t59 -48.5t85 -12.5q41 0 69.5 7.5t53 29t38.5 59t21.5 98t7.5 146.5zM750 664q0 -77 -30 -110.5t-95 -33.5q-63 0 -92 30.5t-29 113.5q0 78 30 112.5t91 34.5q65 0 95 -34t30 -113z" />
    <glyph glyph-name="commaaccent" 
d="M426 1661q162 0 162 -139q0 -113 -185 -238l-90 41l41 107q-84 24 -84 112q0 52 37.5 84.5t118.5 32.5z" />
    <glyph glyph-name="commaccentturn" 
d="M432 1366q-160 0 -160 139q0 118 183 238l92 -41l-41 -107q84 -27 84 -110q0 -54 -37.5 -86.5t-120.5 -32.5z" />
    <glyph glyph-name="f_j" horiz-adv-x="1474" 
d="M565 0h-393v971h-141v282h139v50q0 68 27 127.5t79 106.5t138.5 74t197.5 27q108 0 191 -22l-10 -248q-58 8 -95 8q-72 0 -102.5 -21t-30.5 -61v-41h772v-1226q0 -103 -31.5 -177.5t-88 -115.5t-124 -59.5t-151.5 -18.5q-101 0 -186 29l18 264q38 -10 70 -10q46 0 73 24
t27 74v934h-379v-971zM1356 1499q0 -76 -51 -113.5t-162 -37.5q-112 0 -163.5 34.5t-51.5 116.5q0 154 215 154q213 0 213 -154z" />
    <glyph glyph-name="orn001" horiz-adv-x="1441" 
d="M721 -29q-45 0 -94 23t-97.5 65t-83.5 77.5t-77 83t-54 59.5q-96 100 -164.5 304.5t-68.5 403.5q0 102 20.5 187.5t68 160t120 126t182 81t248.5 29.5t248.5 -29.5t182 -81t120 -126t68 -160t20.5 -187.5q0 -199 -69 -403.5t-165 -304.5q-11 -12 -53.5 -60t-77.5 -83
t-83.5 -77t-97.5 -65t-93 -23zM721 123q47 0 102 39t116.5 103.5t68.5 70.5q62 64 112.5 214.5t50.5 293.5q0 104 -35.5 157t-129.5 77t-279 24q-146 0 -232 -11t-137.5 -42.5t-68.5 -78t-17 -126.5q0 -143 51 -293.5t115 -214.5q8 -7 68.5 -70.5t114.5 -103t100 -39.5z
M942 360q-116 21 -209 21q-97 0 -219 -21q-86 97 -102 240q155 -47 309 -47q161 0 313 47q-14 -156 -92 -240zM825 647l-65 115q166 85 264 203q36 -27 56 -83t20 -122q0 -6 -1 -18.5t-1 -18.5q-117 -60 -273 -76zM694 762l-67 -115q-150 16 -271 76q0 6 -1 18.5t-1 18.5
q0 68 20.5 123t57.5 82q100 -120 262 -203z" />
    <glyph glyph-name="undercommaaccent" 
d="M418 -61q108 0 159.5 -33.5t51.5 -91.5q0 -125 -240 -238l-117 39l50 102q-109 27 -109 109q0 50 49 81.5t156 31.5z" />
    </font>
</defs>
</svg>
