<svg width="127" height="112" viewBox="0 0 127 112" fill="none" xmlns="http://www.w3.org/2000/svg">
<path d="M17.7114 52.3775V41.388C17.7114 41.2231 17.789 41.1455 17.9442 41.1455H25.4516C25.6068 41.1455 25.6844 41.2328 25.6844 41.388V41.7566C25.6844 41.9312 25.6068 42.0185 25.4516 42.0185H18.5844V46.6742H24.0937C24.2489 46.6742 24.3265 46.7615 24.3265 46.9264V47.3435C24.3265 47.489 24.2489 47.5569 24.0937 47.5569H18.5844V52.3775C18.5844 52.5424 18.4971 52.6297 18.3322 52.6297H17.9442C17.789 52.62 17.7114 52.5424 17.7114 52.3775Z" fill="black"/>
<path d="M27.4106 52.3775V41.388C27.4106 41.2231 27.4882 41.1455 27.6628 41.1455H35.1799C35.3545 41.1455 35.4418 41.2134 35.4418 41.3589V41.776C35.4418 41.9409 35.3545 42.0282 35.1799 42.0282H28.2933V46.1698H33.822C34.016 46.1698 34.113 46.2571 34.113 46.422V46.8197C34.113 46.9846 34.016 47.0719 33.822 47.0719H28.2933V51.747H35.2866C35.4612 51.747 35.5485 51.8149 35.5485 51.9507V52.4163C35.5485 52.5618 35.4612 52.6297 35.2866 52.6297H27.6531C27.4882 52.62 27.4106 52.5424 27.4106 52.3775Z" fill="black"/>
<path d="M37.3433 52.3775V41.388C37.3433 41.2231 37.4209 41.1455 37.5954 41.1455H45.1126C45.2871 41.1455 45.3744 41.2134 45.3744 41.3589V41.776C45.3744 41.9409 45.2871 42.0282 45.1126 42.0282H38.2259V46.1698H43.7546C43.9486 46.1698 44.0456 46.2571 44.0456 46.422V46.8197C44.0456 46.9846 43.9486 47.0719 43.7546 47.0719H38.2259V51.747H45.2192C45.3938 51.747 45.4811 51.8149 45.4811 51.9507V52.4163C45.4811 52.5618 45.3938 52.6297 45.2192 52.6297H37.5857C37.4306 52.62 37.3433 52.5424 37.3433 52.3775Z" fill="black"/>
<path d="M47.2847 52.3775V41.4074C47.2847 41.2328 47.3623 41.1455 47.5175 41.1455H47.9345C48.0897 41.1455 48.1673 41.2328 48.1673 41.4074V51.747H54.3071C54.4914 51.747 54.5884 51.8246 54.5884 51.9798V52.3775C54.5884 52.5424 54.4914 52.6297 54.3071 52.6297H47.5175C47.3526 52.62 47.2847 52.5424 47.2847 52.3775Z" fill="black"/>
<path d="M64.705 48.4007C65.0154 48.2358 65.3452 48.1194 65.6944 48.0515C66.0435 47.9836 66.4024 48.003 66.7807 48.1097L69.322 48.7887C69.5354 48.8469 69.7585 48.8663 69.9718 48.8469C70.1852 48.8178 70.3889 48.7499 70.5732 48.6432C70.7575 48.5365 70.9224 48.391 71.0679 48.2164C71.2134 48.0418 71.3201 47.8479 71.3977 47.6248C71.4947 47.4211 71.6111 47.3435 71.7662 47.4114L72.1057 47.5472C72.2124 47.586 72.2609 47.6345 72.2609 47.6927C72.2609 47.7509 72.2415 47.8382 72.2124 47.9448C72.1057 48.2746 71.9505 48.5656 71.7371 48.8178C71.5238 49.07 71.2813 49.2737 70.9903 49.4289C70.709 49.5841 70.3986 49.6811 70.0591 49.7199C69.7196 49.7586 69.3899 49.7393 69.0407 49.6423L68.255 49.4386C68.2162 49.9041 68.0804 50.3406 67.8573 50.748C67.6343 51.1554 67.353 51.5143 67.0135 51.8246C66.674 52.135 66.286 52.3775 65.8496 52.5521C65.4131 52.7267 64.9475 52.814 64.4625 52.814C63.9485 52.814 63.4635 52.7267 63.0173 52.5521C62.5711 52.3775 62.1734 52.135 61.8437 51.8246C61.5042 51.5143 61.2423 51.1457 61.0483 50.7092C60.8543 50.2727 60.7573 49.7975 60.7573 49.2834C60.7573 48.5656 60.9416 47.9254 61.3005 47.3726C61.6594 46.8197 62.154 46.3929 62.7748 46.0922C62.4159 45.8595 62.125 45.5491 61.9019 45.1805C61.6788 44.8119 61.5721 44.3754 61.5721 43.8808C61.5721 43.4831 61.6497 43.1145 61.8049 42.775C61.9601 42.4355 62.1734 42.1543 62.4353 41.9118C62.6972 41.6693 63.0076 41.485 63.3665 41.3492C63.7254 41.2134 64.0939 41.1455 64.4916 41.1455C64.8893 41.1455 65.2676 41.2134 65.6168 41.3492C65.9659 41.485 66.2763 41.6693 66.5382 41.9118C66.8001 42.1543 67.0038 42.4452 67.159 42.775C67.3045 43.1145 67.3821 43.4831 67.3821 43.8808C67.3821 43.9778 67.3724 44.0554 67.353 44.1232C67.3336 44.1911 67.2657 44.2202 67.1493 44.2202H66.7807C66.6546 44.2202 66.577 44.1911 66.5479 44.1232C66.5188 44.0651 66.4994 43.9778 66.4994 43.8711C66.4994 43.2794 66.3151 42.8235 65.9368 42.484C65.5586 42.1446 65.0736 41.9797 64.4916 41.9797C64.2006 41.9797 63.9388 42.0282 63.6866 42.1155C63.4344 42.2028 63.221 42.3288 63.0367 42.4937C62.8524 42.6586 62.7069 42.8623 62.6002 43.0854C62.4935 43.3182 62.445 43.5801 62.445 43.8711C62.445 44.453 62.6293 44.8895 63.0076 45.1902C63.3859 45.4909 63.8515 45.6655 64.4043 45.6946H64.4819C64.5886 45.6946 64.6662 45.7043 64.7341 45.7334C64.7923 45.7625 64.8311 45.8304 64.8311 45.9468V46.2668C64.8311 46.3929 64.802 46.4705 64.7341 46.4996C64.6759 46.5287 64.5886 46.5481 64.4819 46.5481C64.0939 46.5481 63.7254 46.616 63.3762 46.7518C63.027 46.8876 62.7263 47.0719 62.4741 47.3047C62.2122 47.5375 62.0086 47.8285 61.8631 48.1679C61.7176 48.5074 61.64 48.8663 61.64 49.264C61.64 49.652 61.7176 50.0205 61.8631 50.3503C62.0086 50.6801 62.2122 50.9614 62.4741 51.2039C62.736 51.4367 63.0367 51.621 63.3762 51.7567C63.7254 51.8828 64.0939 51.9507 64.4819 51.9507C64.8602 51.9507 65.2288 51.8828 65.5683 51.7374C65.9175 51.5919 66.2181 51.3979 66.48 51.1457C66.7419 50.8935 66.9553 50.6025 67.1202 50.263C67.2851 49.9235 67.3821 49.5647 67.4015 49.1864L66.5479 48.973C66.2375 48.8954 65.9853 48.876 65.772 48.9148C65.5683 48.9633 65.3549 49.0409 65.1512 49.1379C65.0542 49.1864 64.9669 49.2252 64.8796 49.2349C64.7923 49.2446 64.7244 49.2058 64.6662 49.1088L64.4916 48.8178C64.4528 48.7499 64.4431 48.6723 64.4819 48.5947C64.5304 48.5171 64.5983 48.4492 64.705 48.4007Z" fill="black"/>
<path d="M78.8179 52.3775V41.4074C78.8179 41.2328 78.8955 41.1455 79.0507 41.1455H79.4677C79.6229 41.1455 79.7005 41.2328 79.7005 41.4074V51.747H85.8403C86.0246 51.747 86.1216 51.8246 86.1216 51.9798V52.3775C86.1216 52.5424 86.0246 52.6297 85.8403 52.6297H79.0507C78.8955 52.62 78.8179 52.5424 78.8179 52.3775Z" fill="black"/>
<path d="M87.6831 52.3484V41.417C87.6831 41.2327 87.7801 41.1357 87.9741 41.1357H88.2845C88.4785 41.1357 88.5755 41.2327 88.5755 41.417V52.3386C88.5755 52.5229 88.4785 52.6199 88.2845 52.6199H87.9741C87.7801 52.6199 87.6831 52.5326 87.6831 52.3484Z" fill="black"/>
<path d="M100.031 41.485L95.4625 52.426C95.414 52.5618 95.3267 52.6297 95.2007 52.6297H94.9097C94.7836 52.6297 94.6963 52.5618 94.6478 52.426L90.0987 41.485C90.0502 41.3686 90.0502 41.291 90.1084 41.2328C90.1666 41.1746 90.2248 41.1455 90.3024 41.1455H90.7777C90.8747 41.1455 90.9523 41.2134 91.0105 41.3589L95.0843 51.2039L99.1192 41.3492C99.1483 41.2716 99.1871 41.2134 99.2356 41.1843C99.2841 41.1552 99.3229 41.1455 99.3714 41.1455H99.837C99.9049 41.1455 99.9728 41.1746 100.031 41.2328C100.079 41.2813 100.089 41.3686 100.031 41.485Z" fill="black"/>
<path d="M101.485 52.3775V41.388C101.485 41.2231 101.563 41.1455 101.728 41.1455H109.245C109.42 41.1455 109.507 41.2134 109.507 41.3589V41.776C109.507 41.9409 109.42 42.0282 109.245 42.0282H102.358V46.1698H107.887C108.081 46.1698 108.178 46.2571 108.178 46.422V46.8197C108.178 46.9846 108.081 47.0719 107.887 47.0719H102.358V51.747H109.352C109.526 51.747 109.614 51.8149 109.614 51.9507V52.4163C109.614 52.5618 109.526 52.6297 109.352 52.6297H101.718C101.573 52.62 101.485 52.5424 101.485 52.3775Z" fill="black"/>
<path d="M9.65124 66.9751C9.74824 67.043 9.85493 67.14 9.99072 67.2661C10.1265 67.3825 10.2817 67.5086 10.4563 67.6347C10.7182 67.8092 10.9704 67.945 11.242 68.042C11.5038 68.139 11.7754 68.1875 12.0567 68.1875C12.5902 68.1875 12.9588 68.0808 13.1431 67.8577C13.337 67.6444 13.434 67.3922 13.434 67.1012C13.434 66.9363 13.3758 66.7908 13.2498 66.6647C13.1237 66.5386 12.9782 66.4319 12.8133 66.3349C12.6387 66.2379 12.4641 66.1506 12.2701 66.0924C12.0761 66.0245 11.9112 65.9663 11.7657 65.9178C10.5145 65.4814 9.58335 64.977 8.97228 64.3853C8.36121 63.7937 8.05083 63.0468 8.05083 62.1447C8.05083 61.6598 8.14782 61.2233 8.34181 60.8256C8.5358 60.4376 8.81709 60.0982 9.16627 59.8169C9.52515 59.5356 9.95193 59.3222 10.4563 59.1767C10.9607 59.0312 11.5232 58.9536 12.144 58.9536C12.6096 58.9536 13.0558 59.0021 13.5019 59.1088C13.9384 59.2155 14.3652 59.3804 14.7823 59.6229C15.1315 59.8266 15.4418 60.04 15.694 60.2533C15.9559 60.4667 16.082 60.651 16.082 60.7965C16.082 60.8935 16.0141 61.0099 15.8783 61.1651L14.6853 62.4357C14.598 62.523 14.5107 62.5618 14.4234 62.5618C14.3555 62.5618 14.2876 62.5424 14.2294 62.5036C14.1712 62.4648 14.1033 62.4066 14.0354 62.3484L13.9578 62.2902C13.7541 62.1156 13.5019 61.9411 13.211 61.7762C12.92 61.6016 12.6096 61.524 12.2701 61.524C11.9306 61.524 11.6396 61.5822 11.3875 61.6986C11.1353 61.815 11.0189 62.0187 11.0189 62.3193C11.0189 62.6103 11.1644 62.8334 11.4553 62.9886C11.7463 63.1438 12.1731 63.3087 12.7357 63.5027C13.2789 63.687 13.7929 63.881 14.2488 64.0749C14.7144 64.2689 15.1121 64.5017 15.4515 64.783C15.791 65.0546 16.0432 65.3844 16.2372 65.7627C16.4215 66.1409 16.5185 66.5968 16.5185 67.1303C16.5185 67.7026 16.4021 68.2069 16.1693 68.6725C15.9365 69.1284 15.6164 69.5261 15.2187 69.8461C14.8211 70.1759 14.3458 70.4281 13.7929 70.6027C13.2498 70.787 12.6581 70.8743 12.0276 70.8743C11.6299 70.8743 11.2323 70.8258 10.8346 70.7191C10.4466 70.6124 10.0586 70.4766 9.69974 70.302C9.33116 70.1274 8.99168 69.9237 8.67159 69.6813C8.35151 69.4485 8.07022 69.1866 7.81804 68.9053L7.78894 68.8859C7.77924 68.8665 7.76954 68.8568 7.75984 68.8471C7.75014 68.8374 7.74044 68.8374 7.73074 68.8277C7.61435 68.7016 7.55615 68.6046 7.55615 68.5173C7.55615 68.43 7.61435 68.333 7.73074 68.2263L9.07897 66.946C9.18567 66.8781 9.27296 66.8393 9.34086 66.8393C9.40875 66.7908 9.51545 66.8587 9.65124 66.9751Z" fill="black"/>
<path d="M21.3389 59.5353V66.0922C21.3389 66.4705 21.3874 66.8003 21.4941 67.0622C21.6008 67.324 21.7366 67.5374 21.9111 67.712C22.0857 67.8866 22.2894 68.003 22.5125 68.0806C22.7356 68.1582 22.9781 68.197 23.2206 68.197C23.4825 68.197 23.7249 68.1485 23.9577 68.0612C24.1905 67.9642 24.3942 67.8381 24.5591 67.6635C24.7337 67.4889 24.8695 67.2658 24.9665 67.004C25.0732 66.7421 25.1217 66.4414 25.1217 66.1019V59.545C25.1217 59.4481 25.1508 59.3705 25.2187 59.3026C25.2769 59.2347 25.3642 59.2056 25.4806 59.2056H27.7405C27.8569 59.2056 27.9442 59.2347 28.0121 59.3026C28.08 59.3705 28.1091 59.4481 28.1091 59.545V66.0534C28.1091 66.9555 27.9733 67.7023 27.7114 68.3231C27.4496 68.9342 27.0907 69.4288 26.6445 69.8071C26.1983 70.1854 25.6745 70.457 25.0829 70.6219C24.4912 70.7868 23.8704 70.8741 23.2206 70.8741C22.5707 70.8741 21.9499 70.7868 21.368 70.6219C20.7763 70.4473 20.2622 70.1757 19.8161 69.7974C19.3699 69.4191 19.011 68.9244 18.7394 68.3134C18.4678 67.7023 18.332 66.9458 18.332 66.0631V59.545C18.332 59.4481 18.3611 59.3705 18.4193 59.3026C18.4775 59.2347 18.5551 59.2056 18.6424 59.2056H20.9994C21.1449 59.2056 21.2322 59.2347 21.2807 59.3026C21.3195 59.3511 21.3389 59.4287 21.3389 59.5353Z" fill="black"/>
<path d="M31.7953 66.9751C31.8923 67.043 31.999 67.14 32.1348 67.2661C32.2706 67.3825 32.4258 67.5086 32.6003 67.6347C32.8622 67.8092 33.1144 67.945 33.386 68.042C33.6479 68.139 33.9195 68.1875 34.2008 68.1875C34.7342 68.1875 35.1028 68.0808 35.2871 67.8577C35.4811 67.6444 35.5781 67.3922 35.5781 67.1012C35.5781 66.9363 35.5199 66.7908 35.3938 66.6647C35.2677 66.5386 35.1222 66.4319 34.9573 66.3349C34.7827 66.2379 34.6081 66.1506 34.4141 66.0924C34.2202 66.0245 34.0553 65.9663 33.9098 65.9178C32.6585 65.4814 31.7274 64.977 31.1163 64.3853C30.5053 63.7937 30.1949 63.0468 30.1949 62.1447C30.1949 61.6598 30.2919 61.2233 30.4859 60.8256C30.6798 60.4376 30.9611 60.0982 31.3103 59.8169C31.6692 59.5356 32.096 59.3222 32.6003 59.1767C33.1047 59.0312 33.6673 58.9536 34.2881 58.9536C34.7536 58.9536 35.1998 59.0021 35.646 59.1088C36.0825 59.2155 36.5092 59.3804 36.9263 59.6229C37.2755 59.8266 37.5859 60.04 37.8381 60.2533C38.1 60.4667 38.226 60.651 38.226 60.7965C38.226 60.8935 38.1581 61.0099 38.0224 61.1651L36.8293 62.4357C36.742 62.523 36.6547 62.5618 36.5674 62.5618C36.4995 62.5618 36.4316 62.5424 36.3734 62.5036C36.3152 62.4648 36.2473 62.4066 36.1795 62.3484L36.1019 62.2902C35.8982 62.1156 35.646 61.9411 35.355 61.7762C35.064 61.6016 34.7536 61.524 34.4141 61.524C34.0747 61.524 33.7837 61.5822 33.5315 61.6986C33.289 61.815 33.1629 62.0187 33.1629 62.3193C33.1629 62.6103 33.3084 62.8334 33.5994 62.9886C33.8904 63.1438 34.3172 63.3087 34.8797 63.5027C35.4229 63.687 35.937 63.881 36.3928 64.0749C36.8584 64.2689 37.2561 64.5017 37.5956 64.783C37.9351 65.0546 38.1872 65.3844 38.3812 65.7627C38.5655 66.1409 38.6625 66.5968 38.6625 67.1303C38.6625 67.7026 38.5461 68.2069 38.3133 68.6725C38.0806 69.1284 37.7605 69.5261 37.3628 69.8461C36.9554 70.1759 36.4898 70.4281 35.937 70.6027C35.3938 70.787 34.8021 70.8743 34.1717 70.8743C33.774 70.8743 33.3763 70.8258 32.9786 70.7191C32.5906 70.6124 32.2027 70.4766 31.8438 70.302C31.4752 70.1274 31.1357 69.9237 30.8156 69.6813C30.4956 69.4485 30.2143 69.1866 29.9621 68.9053L29.933 68.8859C29.9233 68.8665 29.9136 68.8568 29.9039 68.8471C29.8942 68.8374 29.8845 68.8374 29.8748 68.8277C29.7584 68.7016 29.7002 68.6046 29.7002 68.5173C29.7002 68.43 29.7584 68.333 29.8748 68.2263L31.223 66.946C31.3297 66.8781 31.417 66.8393 31.4849 66.8393C31.5528 66.7908 31.6595 66.8587 31.7953 66.9751Z" fill="black"/>
<path d="M39.894 61.5043V59.5353C39.894 59.3122 40.0104 59.1958 40.2335 59.1958H48.6236C48.8467 59.1958 48.9631 59.3122 48.9631 59.5353V61.5043C48.9631 61.7274 48.8467 61.8438 48.6236 61.8438H45.8786V70.3405C45.8786 70.5636 45.7622 70.68 45.5197 70.68H43.2889C43.0658 70.68 42.9494 70.5636 42.9494 70.3405V61.8438H40.2238C40.0007 61.8438 39.894 61.7274 39.894 61.5043Z" fill="black"/>
<path d="M47.4399 70.3405L51.6301 59.5353C51.7271 59.3122 51.8823 59.1958 52.1054 59.1958H53.9968C54.2296 59.1958 54.3848 59.3122 54.4624 59.5353L58.6913 70.3405C58.7883 70.5636 58.7107 70.68 58.478 70.68H56.1695C55.9464 70.68 55.7912 70.5636 55.7233 70.3405L55.1801 68.8274H50.9511L50.4274 70.3405C50.3595 70.5636 50.2043 70.68 49.9618 70.68H47.6533C47.4205 70.68 47.3526 70.5636 47.4399 70.3405ZM53.0462 62.8137L51.8241 66.3443H54.2878L53.0462 62.8137Z" fill="black"/>
<path d="M60.2051 70.3405V59.5353C60.2051 59.3122 60.3118 59.1958 60.5252 59.1958H62.853C63.0761 59.1958 63.1925 59.3122 63.1925 59.5353V70.3405C63.1925 70.5636 63.0761 70.68 62.853 70.68H60.5349C60.3215 70.68 60.2051 70.5636 60.2051 70.3405Z" fill="black"/>
<path d="M72.6202 70.3405L68.5464 63.6576V70.3405C68.5464 70.5636 68.4203 70.68 68.1778 70.68H66.0148C65.8014 70.68 65.6851 70.5636 65.6851 70.3405V59.5353C65.6851 59.4383 65.7142 59.3607 65.7627 59.2928C65.8112 59.2249 65.8984 59.1958 66.0148 59.1958H68.5173C68.7404 59.1958 68.9344 59.3122 69.0702 59.5353L72.9403 65.8012V59.5353C72.9403 59.4383 72.9694 59.3607 73.0373 59.2928C73.0955 59.2249 73.1828 59.1958 73.2992 59.1958H75.4524C75.5397 59.1958 75.6173 59.2249 75.7046 59.2928C75.7919 59.351 75.8307 59.4383 75.8307 59.545V70.3502C75.8307 70.5733 75.7046 70.6897 75.4621 70.6897H73.1828C72.9403 70.68 72.756 70.5636 72.6202 70.3405Z" fill="black"/>
<path d="M77.4793 70.3405L81.6695 59.5353C81.7665 59.3122 81.9217 59.1958 82.1448 59.1958H84.0362C84.269 59.1958 84.4242 59.3122 84.5017 59.5353L88.7307 70.3405C88.8277 70.5636 88.7501 70.68 88.5173 70.68H86.2089C85.9858 70.68 85.8306 70.5636 85.7627 70.3405L85.2195 68.8274H80.9905L80.4668 70.3405C80.3989 70.5636 80.2437 70.68 80.0012 70.68H77.6927C77.4599 70.68 77.3823 70.5636 77.4793 70.3405ZM83.0856 62.8137L81.8635 66.3443H84.3272L83.0856 62.8137Z" fill="black"/>
<path d="M90.2051 70.3506V59.5454C90.2051 59.3126 90.3215 59.1865 90.5446 59.1865H95.4428C95.8987 59.1865 96.3255 59.2738 96.7231 59.4387C97.1208 59.6133 97.4797 59.8461 97.7707 60.1468C98.0714 60.4475 98.3042 60.8063 98.4787 61.204C98.6533 61.6114 98.7406 62.0382 98.7406 62.5038C98.7406 63.2797 98.5078 63.9393 98.0423 64.4824C98.4011 64.8219 98.6921 65.2293 98.9152 65.6949C99.1383 66.1605 99.245 66.6648 99.245 67.1886C99.245 67.6542 99.1577 68.1004 98.9734 68.5174C98.7891 68.9442 98.5466 69.3128 98.2363 69.6232C97.9259 69.9336 97.567 70.1857 97.1596 70.37C96.7522 70.5543 96.3255 70.6513 95.8696 70.6513H90.5155C90.3118 70.6804 90.2051 70.564 90.2051 70.3506ZM95.7823 62.6007C95.7823 62.2904 95.6756 62.0285 95.4622 61.8054C95.2488 61.5823 94.9675 61.4756 94.628 61.4756H93.2022V63.7162H94.5989C94.9578 63.7162 95.2488 63.6095 95.4622 63.4058C95.6756 63.1924 95.7823 62.9305 95.7823 62.6007ZM96.2091 67.0819C96.2091 66.9267 96.18 66.7715 96.1121 66.6163C96.0539 66.4611 95.9666 66.3253 95.8599 66.209C95.7532 66.0926 95.6368 65.9956 95.4913 65.918C95.3458 65.8404 95.1906 65.8016 95.016 65.8016H93.2022V68.3816H95.016C95.3555 68.3816 95.6368 68.2458 95.8696 67.984C96.0927 67.7124 96.2091 67.4214 96.2091 67.0819Z" fill="black"/>
<path d="M101.127 70.3405V59.5353C101.127 59.4189 101.156 59.3413 101.224 59.2831C101.292 59.2249 101.369 59.1958 101.447 59.1958H103.765C103.979 59.1958 104.095 59.3122 104.095 59.5353V67.935H108.402C108.615 67.935 108.731 68.0514 108.731 68.2745V70.3308C108.731 70.5539 108.625 70.6703 108.402 70.6703H101.457C101.234 70.68 101.127 70.5636 101.127 70.3405Z" fill="black"/>
<path d="M110.438 70.3405V59.5353C110.438 59.3122 110.555 59.1958 110.778 59.1958H118.47C118.693 59.1958 118.809 59.3122 118.809 59.5353V61.514C118.809 61.7371 118.693 61.8535 118.47 61.8535H113.426V63.7546H117.267C117.519 63.7546 117.636 63.871 117.636 64.1134V65.7042C117.636 65.9273 117.509 66.0436 117.267 66.0436H113.426V68.0223H118.625C118.848 68.0223 118.964 68.1387 118.964 68.3618V70.3308C118.964 70.5539 118.848 70.6703 118.625 70.6703H110.778C110.555 70.68 110.438 70.5636 110.438 70.3405Z" fill="black"/>
<path d="M126.52 112H0V0H126.52V112ZM0.630467 111.37H125.88V0.630467H0.630467V111.37Z" fill="black"/>
</svg>
