<svg width="19" height="19" viewBox="0 0 19 19" fill="none" xmlns="http://www.w3.org/2000/svg">
<path d="M8.18966 19H0.982759C0.722115 19 0.472146 18.8965 0.287843 18.7122C0.10354 18.5279 0 18.2779 0 18.0172V0.982759C0 0.722115 0.10354 0.472146 0.287843 0.287843C0.472146 0.10354 0.722115 0 0.982759 0H8.18966C8.4503 0 8.70027 0.10354 8.88457 0.287843C9.06887 0.472146 9.17241 0.722115 9.17241 0.982759V4.91379C9.17241 5.17444 9.06887 5.42441 8.88457 5.60871C8.70027 5.79301 8.4503 5.89655 8.18966 5.89655C7.92901 5.89655 7.67904 5.79301 7.49474 5.60871C7.31044 5.42441 7.2069 5.17444 7.2069 4.91379V1.96552H1.96552V17.0345H7.2069V14.0862C7.2069 13.8256 7.31044 13.5756 7.49474 13.3913C7.67904 13.207 7.92901 13.1034 8.18966 13.1034C8.4503 13.1034 8.70027 13.207 8.88457 13.3913C9.06887 13.5756 9.17241 13.8256 9.17241 14.0862V18.0172C9.17241 18.2779 9.06887 18.5279 8.88457 18.7122C8.70027 18.8965 8.4503 19 8.18966 19ZM15.2873 9.5L13.977 8.51724H6.56897C6.30832 8.51724 6.05835 8.62078 5.87405 8.80508C5.68975 8.98939 5.58621 9.23936 5.58621 9.5C5.58621 9.76064 5.68975 10.0106 5.87405 10.1949C6.05835 10.3792 6.30832 10.4828 6.56897 10.4828H13.977L15.2873 9.5ZM13.3655 14.2172L18.6069 10.2862C18.729 10.1947 18.828 10.076 18.8962 9.9395C18.9645 9.80304 19 9.65257 19 9.5C19 9.34743 18.9645 9.19696 18.8962 9.0605C18.828 8.92404 18.729 8.80533 18.6069 8.71379L13.3655 4.78276C13.157 4.62637 12.8949 4.55922 12.6369 4.59608C12.3789 4.63294 12.146 4.7708 11.9897 4.97931C11.8333 5.18783 11.7661 5.44992 11.803 5.70795C11.8398 5.96597 11.9777 6.19879 12.1862 6.35517L16.3793 9.5L12.1862 12.6448C12.083 12.7223 11.996 12.8193 11.9302 12.9303C11.8645 13.0414 11.8212 13.1643 11.803 13.2921C11.7847 13.4198 11.7918 13.5499 11.8239 13.6749C11.8559 13.8 11.9122 13.9174 11.9897 14.0207C12.0671 14.1239 12.1641 14.2109 12.2752 14.2767C12.3862 14.3424 12.5091 14.3857 12.6369 14.4039C12.7646 14.4222 12.8947 14.4151 13.0198 14.383C13.1448 14.351 13.2623 14.2947 13.3655 14.2172Z" fill="#74664D"/>
</svg>
