<svg width="255" height="128" viewBox="0 0 255 128" fill="none" xmlns="http://www.w3.org/2000/svg">
<path d="M46.1844 74.789C46.1844 82.5711 52.7388 88.9664 60.9896 89.4287V89.0434C57.6739 88.8123 55.0521 85.8843 55.0521 82.5711V67.0068C55.0521 63.6936 57.6739 60.6886 60.9896 60.5345V60.1492C52.7388 60.6115 46.1844 67.0068 46.1844 74.789ZM31.6876 81.9547C31.6876 82.0318 31.6876 82.1859 31.6876 82.2629C31.6876 85.8843 29.4514 88.8893 26.7525 88.8893H26.5983V89.2746H45.2591V88.8893H45.1049C42.406 88.8893 40.1698 85.9614 40.1698 82.2629C40.1698 82.1859 40.1698 82.0318 40.1698 81.9547V67.4691H40.2469C40.2469 67.392 40.2469 67.2379 40.2469 67.1609C40.2469 63.5395 42.4831 60.5345 45.182 60.5345H45.3362V60.1492H31.6876V81.9547ZM2 60.1492V60.5345C5.23865 60.3033 8.16885 62.3837 9.63395 65.5428L19.9668 90.8927L24.4392 79.4891L16.9595 60.1492H2ZM8.09174 82.2629C8.09174 82.1859 8.09174 82.0318 8.09174 81.9547H7.70619C7.70619 82.0318 7.70619 82.1859 7.70619 82.2629C7.70619 85.8843 5.46998 88.8893 2.77111 88.8893H2.61689V89.2746H13.1039V88.8893H12.9497C10.3279 88.8893 8.09174 85.9614 8.09174 82.2629ZM114.659 82.0318C114.736 81.8777 114.736 81.8006 114.813 81.6465H114.427C114.35 81.8006 114.35 81.8777 114.273 82.0318C112.654 85.8073 108.952 88.8893 106.176 88.8893H106.022L105.868 89.2746H116.818L116.972 88.8893H116.818C113.965 88.8893 112.962 85.8843 114.659 82.0318ZM111.266 74.789C111.266 67.0068 104.711 60.6115 96.3834 60.1492V60.6115C99.6992 60.8427 102.321 63.6936 102.321 67.0068V82.5711C102.321 85.8843 99.6992 88.7352 96.3834 88.9664V89.4287C104.711 88.9664 111.266 82.5711 111.266 74.789ZM145.194 88.8893C142.033 89.1205 138.948 87.0401 137.252 83.881L124.914 58.4541L120.75 67.7773L130.389 89.1975H145.272L145.194 88.8893ZM78.7251 60.5345H78.8793C81.5782 60.5345 83.8144 63.4624 83.8144 67.1609C83.8144 67.2379 83.8144 67.392 83.8144 67.4691H83.8915V81.9547C83.8915 82.0318 83.8915 82.1859 83.8915 82.2629C83.8915 85.8843 81.6553 88.8893 78.9564 88.8893H78.8022V89.2746H92.3737V60.1492H78.7251V60.5345ZM62.9174 60.1492V60.5345C66.2332 60.7656 68.8549 63.6936 68.8549 67.0068V82.5711C68.8549 85.8843 66.2332 88.8893 62.9174 89.0434V89.4287C71.1682 88.9664 77.7226 82.5711 77.7226 74.789C77.7226 67.0068 71.1682 60.6115 62.9174 60.1492Z" fill="white"/>
<path d="M240.117 59.918V60.3032C243.433 60.5344 246.055 63.4623 246.055 66.7755V82.3399C246.055 85.6531 243.433 88.6581 240.117 88.8122V89.1974C248.445 88.7351 255 82.3399 255 74.5577C255 66.7755 248.368 60.3803 240.117 59.918Z" fill="white"/>
<path d="M223.307 74.5577C223.307 82.3399 229.861 88.7351 238.189 89.1974V88.8122C234.873 88.581 232.251 85.6531 232.251 82.3399V66.7755C232.251 63.4623 234.873 60.4573 238.189 60.3032V59.918C229.861 60.3803 223.307 66.7755 223.307 74.5577Z" fill="white"/>
<path d="M195.238 74.5577C195.238 82.3399 201.793 88.7351 210.044 89.1974V88.8122C206.728 88.581 204.106 85.6531 204.106 82.3399V66.7755C204.106 63.4623 206.728 60.4573 210.044 60.3032V59.918C201.793 60.3803 195.238 66.7755 195.238 74.5577Z" fill="white"/>
<path d="M212.898 59.9951L213.053 60.3804H213.207C216.137 60.3804 219.838 63.5395 221.535 67.4691C221.612 67.6232 221.612 67.7002 221.689 67.8543H221.843C221.766 67.7002 219.916 59.9951 219.916 59.9951H212.898Z" fill="white"/>
<path d="M221.611 81.7236C219.915 85.6533 216.136 88.8124 213.283 88.8124H213.129L212.975 89.1976H220.069C220.069 89.1976 221.919 81.4925 221.997 81.3384H221.765C221.688 81.4925 221.611 81.6466 221.611 81.7236Z" fill="white"/>
<path d="M185.677 79.8745V80.0286H186.063V69.3955H185.677V69.5496C185.677 72.3235 182.67 74.5579 178.969 74.5579C178.891 74.5579 178.737 74.5579 178.66 74.5579V74.9432C178.737 74.9432 178.891 74.9432 178.969 74.9432C182.67 74.8661 185.677 77.1006 185.677 79.8745Z" fill="white"/>
<path d="M169.175 60.2261H164.086V60.6113H164.24C166.939 60.6113 169.175 63.5393 169.175 67.1607C169.175 67.2377 169.175 67.3918 169.175 67.4689H169.252V81.8775C169.252 81.9545 169.252 82.1086 169.252 82.1857C169.252 85.8071 167.016 88.735 164.317 88.735H164.163V89.1203H169.252H174.65H177.657V60.2261H174.65H169.175Z" fill="white"/>
<path d="M193.774 80.0283C191.692 84.8055 187.143 88.7351 183.518 88.7351H183.364L183.133 89.2745H191.846C191.846 89.2745 194.083 79.7972 194.16 79.6431H193.928C193.851 79.7201 193.774 79.8742 193.774 80.0283Z" fill="white"/>
<path d="M183.749 60.6112C186.756 60.6112 190.612 63.9244 192.385 67.9311C192.462 68.0852 192.462 68.1623 192.539 68.3164H192.694C192.617 68.1623 190.766 60.1489 190.766 60.1489H183.363L183.518 60.6112H183.749Z" fill="white"/>
<path d="M149.436 60.1489V60.6112C152.674 60.8424 155.296 63.6162 155.296 67.0065V82.4938C155.296 85.807 152.674 88.6579 149.436 88.812V89.2743C157.686 88.812 164.164 82.4938 164.164 74.7116C164.164 66.9294 157.609 60.6112 149.436 60.1489Z" fill="white"/>
<path d="M130.467 60.3802C133.783 60.6113 136.404 63.5393 136.404 66.8525V82.4168C136.404 85.73 133.783 88.735 130.467 88.8891V89.2744C131.084 89.2744 145.272 89.2744 145.272 89.2744V60.2261H130.467V60.3802Z" fill="white"/>
<path d="M145.348 88.9665C138.485 88.9665 136.48 82.186 136.48 82.186C136.48 82.186 136.095 88.8124 130.234 88.9665L130.389 89.3518H145.348V88.9665Z" fill="white"/>
<path d="M8.09204 46.2027C8.09204 46.1257 8.09204 45.9716 8.09204 45.8945H7.70649C7.70649 45.9716 7.70649 46.1257 7.70649 46.2027C7.70649 49.8241 5.47028 52.8291 2.77141 52.8291H2.61719V53.2144H13.1042V52.8291H12.95C10.3283 52.8291 8.09204 49.9012 8.09204 46.2027Z" fill="white"/>
<path d="M34.6943 24.0894H31.687V45.8948C31.687 45.9719 31.687 46.126 31.687 46.2031C31.687 49.8245 29.4507 52.8295 26.7519 52.8295H26.5977V53.2147H31.687H34.6943H37.0847H40.092H45.1813V52.8295H45.0271C42.3282 52.8295 40.092 49.9015 40.092 46.2031C40.092 46.126 40.092 45.9719 40.092 45.8948V31.4092H40.1691C40.1691 31.3322 40.1691 31.1781 40.1691 31.101C40.1691 27.4796 42.4053 24.4746 45.1042 24.4746H45.2584V24.0894H40.1691H34.6943V24.0894Z" fill="white"/>
<path d="M2 24.0894V24.4746C5.23865 24.2435 8.16885 26.3238 9.63395 29.4829L19.9668 54.7557L24.4392 43.4292L16.9595 24.0894H2V24.0894Z" fill="white"/>
<path d="M62.7637 24.166V24.5513C66.0023 24.7824 68.6241 27.7104 68.6241 31.0236V46.5109C68.6241 49.8241 66.0023 52.752 62.7637 52.9832V53.3684C71.0145 52.9061 77.5689 46.5109 77.5689 38.7287C77.5689 31.0236 71.0145 24.6283 62.7637 24.166Z" fill="white"/>
<path d="M46.1074 38.8058C46.1074 46.5879 52.6618 52.9832 60.9127 53.4455V53.0602C57.5969 52.8291 55.0523 49.9011 55.0523 46.5879V31.0236C55.0523 27.7104 57.674 24.7824 60.9127 24.5513V24.166C52.5847 24.6283 46.1074 31.0236 46.1074 38.8058Z" fill="white"/>
<path d="M114.427 45.9717C114.504 45.8176 114.504 45.7405 114.582 45.5864H114.196C114.119 45.7405 114.119 45.8176 114.042 45.9717C112.422 49.7472 108.798 52.8292 105.945 52.8292H105.791L105.637 53.2145H116.586L116.741 52.8292H116.586C113.733 52.8292 112.808 49.8242 114.427 45.9717Z" fill="white"/>
<path d="M144.964 52.8295C141.802 53.0606 138.718 50.9802 137.021 47.8982L124.684 22.5483L120.52 31.8715L130.158 53.2918H145.041L144.964 52.8295Z" fill="white"/>
<path d="M83.6596 24.0894H78.5703V24.4746H78.7245C81.4234 24.4746 83.6596 27.4026 83.6596 31.101C83.6596 31.1781 83.6596 31.3322 83.6596 31.4092H83.7367V45.8948C83.7367 45.9719 83.7367 46.126 83.7367 46.2031C83.7367 49.8245 81.5005 52.8295 78.8016 52.8295H78.6474V53.2147H83.7367H89.1345H92.1418V24.0894H89.1345H83.6596Z" fill="white"/>
<path d="M111.034 38.7291C111.034 30.9469 104.479 24.5517 96.2285 24.0894V24.5517C99.5443 24.7828 102.166 27.6337 102.166 30.9469V46.5113C102.166 49.8245 99.5443 52.6754 96.2285 52.9065V53.3688C104.479 52.9065 111.034 46.5113 111.034 38.7291Z" fill="white"/>
<path d="M2.53977 19.8513H3.61932C4.08199 19.8513 4.1591 19.7742 4.1591 19.389V13.6101H7.39774C12.6413 13.6101 15.8799 11.4527 15.8799 6.82963C15.8799 2.05245 12.6413 0.280273 6.85797 0.280273H2.53977C2.15422 0.280273 2 0.357325 2 0.742581V19.3119C2 19.7742 2.15422 19.8513 2.53977 19.8513ZM4.1591 2.05245H7.16641C11.5617 2.05245 13.7208 3.28527 13.7208 6.82963C13.7208 10.2199 11.5617 11.838 7.39774 11.838H4.1591V2.05245Z" fill="white"/>
<path d="M26.8295 19.8514C29.4513 19.8514 31.3019 19.235 32.1501 18.9267C32.6128 18.6956 32.8441 18.5415 32.8441 18.3103V17.1546C32.8441 16.9234 32.767 16.9234 32.6128 16.9234C32.3815 16.9234 32.2273 17.0775 31.379 17.3857C30.2995 17.771 28.8344 18.0792 26.9837 18.0792C23.2824 18.0792 21.1233 16.7693 20.892 12.9168C22.4342 13.4561 24.2849 13.7643 26.1355 13.7643C30.2995 13.7643 32.767 12.2233 32.767 8.83304C32.767 5.67394 30.6079 3.82471 26.2126 3.82471C21.3547 3.82471 18.81 7.06086 18.81 12.0692C18.7329 17.4628 21.8173 19.8514 26.8295 19.8514ZM26.2126 5.59688C29.1428 5.59688 30.685 6.5215 30.685 8.75598C30.685 10.9134 29.2199 11.9921 25.9042 11.9921C24.362 11.9921 22.4342 11.761 20.8149 11.2216C21.1233 7.52317 22.974 5.59688 26.2126 5.59688Z" fill="white"/>
<path d="M46.3391 5.90519V4.67237C46.3391 4.44121 46.3391 4.28711 45.9535 4.13301C45.568 3.97891 45.1053 3.90186 44.2571 3.90186C40.6329 3.90186 39.322 6.75275 38.8593 8.21672V4.82647C38.8593 4.44121 38.7051 4.36416 38.3196 4.36416H37.3171C36.8545 4.36416 36.7773 4.44121 36.7773 4.82647V19.3121C36.7773 19.6974 36.9316 19.7744 37.3171 19.7744H38.3196C38.7051 19.7744 38.8593 19.6974 38.8593 19.3121V12.7627C38.8593 10.143 40.4015 5.82814 44.2571 5.82814C44.874 5.82814 45.4137 5.90519 45.9535 6.05929C46.1848 6.21339 46.3391 6.13634 46.3391 5.90519Z" fill="white"/>
<path d="M62.0698 16.7692C62.0698 16.461 62.0698 16.2299 62.0698 15.9216V4.59512C62.0698 4.20986 61.9156 4.13281 61.53 4.13281H60.5276C60.1421 4.13281 59.9878 4.28691 59.9878 4.59512V12.6084C59.9878 16.0758 58.2143 18.0791 54.8214 18.0791C52.1225 18.0791 51.1972 16.5381 51.1972 14.5347V4.59512C51.1972 4.20986 51.043 4.13281 50.6574 4.13281H49.655C49.1923 4.13281 49.1152 4.28691 49.1152 4.59512V14.5347C49.1152 18.4643 50.8888 19.8513 54.3588 19.8513C56.9805 19.8513 58.7541 19.2349 59.9878 17.3856L60.2192 19.0808C60.2963 19.466 60.3734 19.5431 60.6818 19.5431H61.8385C62.224 19.5431 62.3011 19.389 62.224 19.0808L62.0698 16.7692Z" fill="white"/>
<path d="M53.5099 3.59356C53.6641 3.82472 53.8183 3.82472 54.1268 3.74767L59.2932 1.82139C59.6787 1.66728 59.6787 1.59023 59.5245 1.12792L59.1389 0.280361C58.9847 -0.104895 58.7534 -0.027844 58.4449 0.126258L53.4328 2.51485C53.2014 2.66895 53.2014 2.82305 53.2785 3.0542L53.5099 3.59356Z" fill="white"/>
<path d="M13.4893 116.234L16.2903 110.6C17.1959 108.781 18.3964 105.611 18.3964 105.611H18.4806C18.4806 105.611 18.5649 108.771 18.7228 110.6L19.302 116.234H13.4893ZM23.6405 99H15.3426L0 127.99H7.70816L10.6777 121.909H19.8706L20.4919 127.99H27.7052L23.6405 99Z" fill="white"/>
<path d="M59.0327 110.475C59.0327 103.21 53.915 99 45.375 99H35.9293L30.2851 127.709L30.2324 127.99H41.742C51.3772 127.99 58.2324 120.994 58.959 112.045L58.8958 112.076L58.959 112.045C59.0011 111.525 59.0327 111.005 59.0327 110.475ZM41.6156 121.909H40.8996H39.8887H38.6461L41.9842 105.081H44.9643C49.0921 105.081 51.6089 107.149 51.6089 111.12C51.6089 113.157 51.135 115.07 50.2821 116.701C48.6288 119.747 45.5434 121.909 41.6156 121.909Z" fill="white"/>
<path d="M71.0377 105.081H71.7011H72.2066H82.2946L83.495 99H83.2949H82.8316H65.0565L62.8873 109.904L59.2754 127.99H78.3352L79.5356 121.909H67.6996L68.7737 116.442H77.7139L78.9565 110.351H70.0057L70.806 106.234L71.0377 105.081Z" fill="white"/>
<path d="M112 99H103.586C103.586 99 98.3842 106.182 97.268 107.814L97.2574 107.794L93.635 99.5405L93.4033 99H85.5583L91.708 113.396L79.9141 128H88.0329L92.5293 122.044C93.9299 120.215 94.9618 118.479 94.9618 118.479H95.0461C95.0461 118.479 95.4989 120.225 96.2044 122.044L98.5105 128H106.124L99.911 113.843L112 99Z" fill="white"/>
</svg>
