<svg width="425" height="153" viewBox="0 0 425 153" fill="none" xmlns="http://www.w3.org/2000/svg">
<path d="M74.2228 125.893C74.2228 138.992 85.2332 149.757 99.0933 150.536V149.887C93.5233 149.498 89.1192 144.569 89.1192 138.992V112.793C89.1192 107.216 93.5233 102.157 99.0933 101.898V101.249C85.2332 102.028 74.2228 112.793 74.2228 125.893ZM49.8705 137.955C49.8705 138.084 49.8705 138.344 49.8705 138.474C49.8705 144.569 46.114 149.628 41.5803 149.628H41.3212V150.276H72.6684V149.628H72.4093C67.8757 149.628 64.1192 144.699 64.1192 138.474C64.1192 138.344 64.1192 138.084 64.1192 137.955V113.571H64.2487C64.2487 113.441 64.2487 113.182 64.2487 113.052C64.2487 106.956 68.0052 101.898 72.5389 101.898H72.7979V101.249H49.8705V137.955ZM0 101.249V101.898C5.44041 101.509 10.3627 105.011 12.8238 110.328L30.1813 153L37.6943 133.804L25.1295 101.249H0ZM10.2332 138.474C10.2332 138.344 10.2332 138.084 10.2332 137.955H9.58549C9.58549 138.084 9.58549 138.344 9.58549 138.474C9.58549 144.569 5.82902 149.628 1.29534 149.628H1.03627V150.276H18.6528V149.628H18.3938C13.9896 149.628 10.2332 144.699 10.2332 138.474ZM189.249 138.084C189.378 137.825 189.378 137.695 189.508 137.436H188.86C188.731 137.695 188.731 137.825 188.601 138.084C185.881 144.44 179.663 149.628 175 149.628H174.741L174.482 150.276H192.876L193.135 149.628H192.876C188.083 149.628 186.399 144.569 189.249 138.084ZM183.549 125.893C183.549 112.793 172.539 102.028 158.549 101.249V102.028C164.119 102.417 168.523 107.216 168.523 112.793V138.992C168.523 144.569 164.119 149.368 158.549 149.757V150.536C172.539 149.757 183.549 138.992 183.549 125.893ZM240.544 149.628C235.233 150.017 230.052 146.515 227.202 141.197L206.477 98.396L199.482 114.09L215.674 150.147H240.674L240.544 149.628ZM128.886 101.898H129.145C133.679 101.898 137.435 106.827 137.435 113.052C137.435 113.182 137.435 113.441 137.435 113.571H137.565V137.955C137.565 138.084 137.565 138.344 137.565 138.474C137.565 144.569 133.808 149.628 129.275 149.628H129.016V150.276H151.813V101.249H128.886V101.898ZM102.332 101.249V101.898C107.902 102.287 112.306 107.216 112.306 112.793V138.992C112.306 144.569 107.902 149.628 102.332 149.887V150.536C116.192 149.757 127.202 138.992 127.202 125.893C127.202 112.793 116.192 102.028 102.332 101.249Z" fill="black"/>
<path d="M400 100.86V101.509C405.57 101.898 409.974 106.827 409.974 112.404V138.603C409.974 144.18 405.57 149.239 400 149.498V150.147C413.99 149.368 425 138.603 425 125.503C425 112.404 413.86 101.639 400 100.86Z" fill="black"/>
<path d="M371.762 125.503C371.762 138.603 382.772 149.368 396.762 150.147V149.498C391.192 149.109 386.788 144.18 386.788 138.603V112.404C386.788 106.827 391.192 101.768 396.762 101.509V100.86C382.772 101.639 371.762 112.404 371.762 125.503Z" fill="black"/>
<path d="M324.611 125.503C324.611 138.603 335.622 149.368 349.482 150.147V149.498C343.912 149.109 339.508 144.18 339.508 138.603V112.404C339.508 106.827 343.912 101.768 349.482 101.509V100.86C335.622 101.639 324.611 112.404 324.611 125.503Z" fill="black"/>
<path d="M354.274 100.99L354.533 101.639H354.793C359.715 101.639 365.932 106.956 368.782 113.571C368.912 113.831 368.912 113.96 369.041 114.22H369.3C369.171 113.96 366.062 100.99 366.062 100.99H354.274Z" fill="black"/>
<path d="M368.912 137.565C366.062 144.18 359.715 149.498 354.922 149.498H354.663L354.404 150.146H366.321C366.321 150.146 369.43 137.176 369.56 136.917H369.171C369.042 137.176 368.912 137.436 368.912 137.565Z" fill="black"/>
<path d="M308.549 134.453V134.712H309.197V116.813H308.549V117.073C308.549 121.742 303.497 125.503 297.28 125.503C297.15 125.503 296.891 125.503 296.762 125.503V126.152C296.891 126.152 297.15 126.152 297.28 126.152C303.497 126.022 308.549 129.784 308.549 134.453Z" fill="black"/>
<path d="M280.829 101.379H272.279V102.027H272.538C277.072 102.027 280.829 106.956 280.829 113.052C280.829 113.182 280.829 113.441 280.829 113.571H280.958V137.825C280.958 137.955 280.958 138.214 280.958 138.344C280.958 144.44 277.202 149.368 272.668 149.368H272.409V150.017H280.958H290.025H295.077V101.379H290.025H280.829Z" fill="black"/>
<path d="M322.15 134.712C318.653 142.753 311.01 149.368 304.922 149.368H304.663L304.274 150.276H318.912C318.912 150.276 322.668 134.323 322.798 134.063H322.409C322.28 134.193 322.15 134.453 322.15 134.712Z" fill="black"/>
<path d="M305.311 102.028C310.363 102.028 316.839 107.605 319.819 114.349C319.948 114.609 319.948 114.738 320.078 114.998H320.337C320.207 114.738 317.098 101.25 317.098 101.25H304.663L304.922 102.028H305.311Z" fill="black"/>
<path d="M247.668 101.25V102.028C253.108 102.417 257.513 107.086 257.513 112.793V138.863C257.513 144.44 253.108 149.239 247.668 149.498V150.276C261.528 149.498 272.409 138.863 272.409 125.763C272.409 112.663 261.399 102.028 247.668 101.25Z" fill="black"/>
<path d="M215.803 101.638C221.373 102.027 225.777 106.956 225.777 112.533V138.733C225.777 144.31 221.373 149.368 215.803 149.628V150.276C216.839 150.276 240.673 150.276 240.673 150.276V101.379H215.803V101.638Z" fill="black"/>
<path d="M240.803 149.757C229.274 149.757 225.906 138.344 225.906 138.344C225.906 138.344 225.259 149.498 215.414 149.757L215.673 150.406H240.803V149.757Z" fill="black"/>
<path d="M10.233 77.7737C10.233 77.644 10.233 77.3846 10.233 77.2549H9.58535C9.58535 77.3846 9.58535 77.644 9.58535 77.7737C9.58535 83.8696 5.82888 88.928 1.2952 88.928H1.03613V89.5765H18.6527V88.928H18.3936C13.9895 88.928 10.233 83.9993 10.233 77.7737Z" fill="black"/>
<path d="M54.9223 40.5493H49.8705V77.2546C49.8705 77.3843 49.8705 77.6437 49.8705 77.7734C49.8705 83.8694 46.114 88.9277 41.5804 88.9277H41.3213V89.5762H49.8705H54.9223H58.9379H63.9897H72.5389V88.9277H72.2798C67.7462 88.9277 63.9897 83.9991 63.9897 77.7734C63.9897 77.6437 63.9897 77.3843 63.9897 77.2546V52.8709H64.1192C64.1192 52.7412 64.1192 52.4818 64.1192 52.3521C64.1192 46.2561 67.8757 41.1978 72.4094 41.1978H72.6684V40.5493H64.1192H54.9223Z" fill="black"/>
<path d="M0 40.5493V41.1978C5.44041 40.8087 10.3627 44.3106 12.8238 49.6284L30.1813 92.1702L37.6943 73.1042L25.1295 40.5493H0Z" fill="black"/>
<path d="M102.072 40.6792V41.3277C107.513 41.7168 111.917 46.6454 111.917 52.2226V78.2924C111.917 83.8695 107.513 88.7982 102.072 89.1873V89.8358C115.932 89.0576 126.943 78.2924 126.943 65.1926C126.943 52.2226 115.932 41.4574 102.072 40.6792Z" fill="black"/>
<path d="M74.0938 65.3223C74.0938 78.4221 85.1041 89.1873 98.9642 89.9655V89.317C93.3943 88.9279 89.1197 83.9992 89.1197 78.4221V52.2226C89.1197 46.6454 93.5238 41.7168 98.9642 41.3277V40.6792C84.9746 41.4574 74.0938 52.2226 74.0938 65.3223Z" fill="black"/>
<path d="M188.861 77.3843C188.99 77.1249 188.99 76.9952 189.12 76.7358H188.472C188.342 76.9952 188.342 77.1249 188.213 77.3843C185.493 83.7397 179.405 88.9277 174.612 88.9277H174.353L174.094 89.5762H192.488L192.747 88.9277H192.488C187.695 88.9277 186.14 83.8694 188.861 77.3843Z" fill="black"/>
<path d="M240.156 88.928C234.845 89.3171 229.664 85.8151 226.814 80.6271L206.089 37.9556L199.094 53.6494L215.285 89.7062H240.285L240.156 88.928Z" fill="black"/>
<path d="M137.176 40.5493H128.627V41.1978H128.886C133.42 41.1978 137.176 46.1264 137.176 52.3521C137.176 52.4818 137.176 52.7412 137.176 52.8709H137.306V77.2546C137.306 77.3843 137.306 77.6437 137.306 77.7734C137.306 83.8694 133.549 88.9277 129.016 88.9277H128.756V89.5762H137.306H146.373H151.425V40.5493H146.373H137.176Z" fill="black"/>
<path d="M183.161 65.1925C183.161 52.0927 172.15 41.3275 158.29 40.5493V41.3275C163.86 41.7166 168.264 46.5155 168.264 52.0927V78.2922C168.264 83.8694 163.86 88.6683 158.29 89.0574V89.8356C172.15 89.0574 183.161 78.2922 183.161 65.1925Z" fill="black"/>
<path d="M0.906736 33.4162H2.72021C3.49741 33.4162 3.62694 33.2865 3.62694 32.638V22.9104H9.06736C17.8756 22.9104 23.3161 19.2788 23.3161 11.4967C23.3161 3.45529 17.8756 0.472168 8.16062 0.472168H0.906736C0.259067 0.472168 0 0.601869 0 1.25037V32.5083C0 33.2865 0.259067 33.4162 0.906736 33.4162ZM3.62694 3.45529H8.67876C16.0622 3.45529 19.6891 5.5305 19.6891 11.4967C19.6891 17.2036 16.0622 19.9273 9.06736 19.9273H3.62694V3.45529Z" fill="black"/>
<path d="M41.7102 33.4157C46.1143 33.4157 49.2232 32.3781 50.648 31.8593C51.4252 31.4702 51.8138 31.2108 51.8138 30.8217V28.8762C51.8138 28.4871 51.6843 28.4871 51.4252 28.4871C51.0366 28.4871 50.7776 28.7465 49.3527 29.2653C47.5392 29.9138 45.0781 30.4326 41.9693 30.4326C35.7517 30.4326 32.1247 28.2277 31.7361 21.7427C34.3268 22.6506 37.4356 23.1694 40.5444 23.1694C47.5392 23.1694 51.6843 20.5754 51.6843 14.8685C51.6843 9.55081 48.0574 6.43799 40.6739 6.43799C32.5133 6.43799 28.2387 11.8854 28.2387 20.316C28.1092 29.395 33.2905 33.4157 41.7102 33.4157ZM40.6739 9.4211C45.5962 9.4211 48.1869 10.9775 48.1869 14.7388C48.1869 18.3705 45.7257 20.1863 40.1558 20.1863C37.5651 20.1863 34.3268 19.7972 31.6066 18.8893C32.1247 12.6636 35.2335 9.4211 40.6739 9.4211Z" fill="black"/>
<path d="M74.4821 9.94009V7.86488C74.4821 7.47578 74.4821 7.21637 73.8344 6.95697C73.1868 6.69757 72.4096 6.56787 70.9847 6.56787C64.8966 6.56787 62.6945 11.3668 61.9173 13.8311V8.12428C61.9173 7.47578 61.6583 7.34608 61.0106 7.34608H59.3267C58.5495 7.34608 58.4199 7.47578 58.4199 8.12428V32.508C58.4199 33.1565 58.679 33.2862 59.3267 33.2862H61.0106C61.6583 33.2862 61.9173 33.1565 61.9173 32.508V21.4835C61.9173 17.0736 64.508 9.81039 70.9847 9.81039C72.021 9.81039 72.9277 9.94009 73.8344 10.1995C74.223 10.4589 74.4821 10.3292 74.4821 9.94009Z" fill="black"/>
<path d="M100.907 28.228C100.907 27.7092 100.907 27.32 100.907 26.8012V7.73524C100.907 7.08673 100.648 6.95703 100 6.95703H98.3165C97.6688 6.95703 97.4097 7.21643 97.4097 7.73524V21.2241C97.4097 27.0606 94.4305 30.4329 88.731 30.4329C84.1973 30.4329 82.6429 27.8389 82.6429 24.4666V7.73524C82.6429 7.08673 82.3838 6.95703 81.7362 6.95703H80.0522C79.275 6.95703 79.1455 7.21643 79.1455 7.73524V24.4666C79.1455 31.0814 82.1248 33.416 87.9538 33.416C92.3579 33.416 95.3372 32.3784 97.4097 29.2656L97.7984 32.119C97.9279 32.7675 98.0574 32.8972 98.5756 32.8972H100.519C101.166 32.8972 101.296 32.6378 101.166 32.119L100.907 28.228Z" fill="black"/>
<path d="M86.5286 6.04906C86.7876 6.43817 87.0467 6.43817 87.5648 6.30847L96.2436 3.06595C96.8913 2.80655 96.8913 2.67685 96.6322 1.89864L95.9845 0.471933C95.7255 -0.176571 95.3369 -0.04687 94.8187 0.212531L86.399 4.23325C86.0104 4.49266 86.0104 4.75206 86.14 5.14116L86.5286 6.04906Z" fill="black"/>
</svg>
