<svg width="491" height="113" viewBox="0 0 491 113" fill="none" xmlns="http://www.w3.org/2000/svg">
<path d="M55.0122 92.9793C55.0122 102.654 63.1728 110.605 73.4456 111.18V110.701C69.3173 110.413 66.053 106.773 66.053 102.654V83.3043C66.053 79.1852 69.3173 75.4494 73.4456 75.2578V74.7788C63.1728 75.3536 55.0122 83.3043 55.0122 92.9793ZM36.9628 101.888C36.9628 101.984 36.9628 102.175 36.9628 102.271C36.9628 106.773 34.1786 110.509 30.8183 110.509H30.6263V110.988H53.8601V110.509H53.6681C50.3078 110.509 47.5236 106.869 47.5236 102.271C47.5236 102.175 47.5236 101.984 47.5236 101.888V83.8791H47.6196C47.6196 83.7833 47.6196 83.5917 47.6196 83.4959C47.6196 78.9937 50.4038 75.2578 53.7641 75.2578H53.9561V74.7788H36.9628V101.888ZM0 74.7788V75.2578C4.03231 74.9704 7.68058 77.5568 9.50472 81.4843L22.3697 113L27.9381 98.8226L18.6254 74.7788H0ZM7.58458 102.271C7.58458 102.175 7.58458 101.984 7.58458 101.888H7.10454C7.10454 101.984 7.10454 102.175 7.10454 102.271C7.10454 106.773 4.32033 110.509 0.960073 110.509H0.768059V110.988H13.8251V110.509H13.633C10.3688 110.509 7.58458 106.869 7.58458 102.271ZM140.267 101.984C140.363 101.792 140.363 101.696 140.459 101.505H139.979C139.883 101.696 139.883 101.792 139.787 101.984C137.77 106.678 133.162 110.509 129.706 110.509H129.514L129.322 110.988H142.955L143.147 110.509H142.955C139.403 110.509 138.155 106.773 140.267 101.984ZM136.042 92.9793C136.042 83.3043 127.882 75.3536 117.513 74.7788V75.3536C121.641 75.6409 124.906 79.1852 124.906 83.3043V102.654C124.906 106.773 121.641 110.318 117.513 110.605V111.18C127.882 110.605 136.042 102.654 136.042 92.9793ZM178.286 110.509C174.349 110.797 170.509 108.21 168.397 104.283L153.036 72.6714L147.851 84.2622L159.852 110.892H178.382L178.286 110.509ZM95.5273 75.2578H95.7193C99.0795 75.2578 101.864 78.8979 101.864 83.4959C101.864 83.5917 101.864 83.7833 101.864 83.8791H101.96V101.888C101.96 101.984 101.96 102.175 101.96 102.271C101.96 106.773 99.1756 110.509 95.8153 110.509H95.6233V110.988H112.521V74.7788H95.5273V75.2578ZM75.8458 74.7788V75.2578C79.9741 75.5451 83.2383 79.1852 83.2383 83.3043V102.654C83.2383 106.773 79.9741 110.509 75.8458 110.701V111.18C86.1186 110.605 94.2792 102.654 94.2792 92.9793C94.2792 83.3043 86.1186 75.3536 75.8458 74.7788Z" fill="white"/>
<path d="M296.471 74.4917V74.9707C300.599 75.258 303.863 78.8981 303.863 83.0172V102.367C303.863 106.486 300.599 110.222 296.471 110.414V110.893C306.839 110.318 315 102.367 315 92.6922C315 83.0172 306.743 75.0665 296.471 74.4917Z" fill="white"/>
<path d="M275.541 92.6922C275.541 102.367 283.702 110.318 294.07 110.893V110.414C289.942 110.126 286.678 106.486 286.678 102.367V83.0172C286.678 78.8981 289.942 75.1622 294.07 74.9707V74.4917C283.702 75.0665 275.541 83.0172 275.541 92.6922Z" fill="white"/>
<path d="M240.594 92.6922C240.594 102.367 248.754 110.318 259.027 110.893V110.414C254.899 110.126 251.635 106.486 251.635 102.367V83.0172C251.635 78.8981 254.899 75.1622 259.027 74.9707V74.4917C248.754 75.0665 240.594 83.0172 240.594 92.6922Z" fill="white"/>
<path d="M262.58 74.5874L262.772 75.0664H262.964C266.612 75.0664 271.221 78.9938 273.333 83.8792C273.429 84.0708 273.429 84.1666 273.525 84.3582H273.717C273.621 84.1666 271.317 74.5874 271.317 74.5874H262.58Z" fill="white"/>
<path d="M273.429 101.601C271.316 106.486 266.612 110.413 263.06 110.413H262.868L262.676 110.892H271.508C271.508 110.892 273.813 101.313 273.909 101.122H273.621C273.525 101.313 273.429 101.505 273.429 101.601Z" fill="white"/>
<path d="M228.69 99.3016V99.4932H229.17V86.2739H228.69V86.4655C228.69 89.914 224.945 92.692 220.337 92.692C220.241 92.692 220.049 92.692 219.953 92.692V93.171C220.049 93.171 220.241 93.171 220.337 93.171C224.945 93.0752 228.69 95.8531 228.69 99.3016Z" fill="white"/>
<path d="M208.143 74.875H201.807V75.354H201.999C205.359 75.354 208.143 78.9941 208.143 83.4963C208.143 83.5921 208.143 83.7837 208.143 83.8795H208.239V101.793C208.239 101.888 208.239 102.08 208.239 102.176C208.239 106.678 205.455 110.318 202.095 110.318H201.903V110.797H208.239H214.96H218.704V74.875H214.96H208.143Z" fill="white"/>
<path d="M238.77 99.4931C236.178 105.432 230.514 110.318 226.002 110.318H225.81L225.521 110.988H236.37C236.37 110.988 239.155 99.2057 239.251 99.0142H238.963C238.867 99.11 238.77 99.3015 238.77 99.4931Z" fill="white"/>
<path d="M226.289 75.3536C230.033 75.3536 234.833 79.4726 237.041 84.4538C237.137 84.6454 237.137 84.7412 237.233 84.9328H237.426C237.329 84.7412 235.025 74.7788 235.025 74.7788H225.809L226.001 75.3536H226.289Z" fill="white"/>
<path d="M183.566 74.7788V75.3536C187.599 75.6409 190.863 79.0895 190.863 83.3043V102.559C190.863 106.678 187.599 110.222 183.566 110.413V110.988C193.839 110.413 201.904 102.559 201.904 92.8835C201.904 83.2085 193.743 75.3536 183.566 74.7788Z" fill="white"/>
<path d="M159.947 75.0666C164.076 75.354 167.34 78.9941 167.34 83.1131V102.463C167.34 106.582 164.076 110.318 159.947 110.51V110.989C160.715 110.989 178.381 110.989 178.381 110.989V74.875H159.947V75.0666Z" fill="white"/>
<path d="M178.478 110.605C169.933 110.605 167.437 102.175 167.437 102.175C167.437 102.175 166.957 110.413 159.66 110.605L159.852 111.084H178.478V110.605Z" fill="white"/>
<path d="M7.5841 57.4408C7.5841 57.345 7.5841 57.1534 7.5841 57.0576H7.10406C7.10406 57.1534 7.10406 57.345 7.10406 57.4408C7.10406 61.943 4.31985 65.6789 0.959593 65.6789H0.767578V66.1579H13.8246V65.6789H13.6326C10.3683 65.6789 7.5841 62.0388 7.5841 57.4408Z" fill="white"/>
<path d="M40.7077 29.9482H36.9634V57.0574C36.9634 57.1532 36.9634 57.3448 36.9634 57.4406C36.9634 61.9428 34.1792 65.6787 30.819 65.6787H30.627V66.1576H36.9634H40.7077H43.6839H47.4282H53.7647V65.6787H53.5727C50.2124 65.6787 47.4282 62.0386 47.4282 57.4406C47.4282 57.3448 47.4282 57.1532 47.4282 57.0574V39.0485H47.5242C47.5242 38.9527 47.5242 38.7611 47.5242 38.6653C47.5242 34.1631 50.3085 30.4272 53.6687 30.4272H53.8607V29.9482H47.5242H40.7077V29.9482Z" fill="white"/>
<path d="M0 29.9482V30.4272C4.03231 30.1398 7.68059 32.7262 9.50472 36.6537L22.3697 68.0735L27.9381 53.992L18.6254 29.9482H0V29.9482Z" fill="white"/>
<path d="M75.6543 30.0439V30.5229C79.6866 30.8103 82.9509 34.4504 82.9509 38.5694V57.8236C82.9509 61.9427 79.6866 65.5828 75.6543 65.8702V66.3491C85.9271 65.7744 94.0877 57.8236 94.0877 48.1486C94.0877 38.5694 85.9271 30.6187 75.6543 30.0439Z" fill="white"/>
<path d="M54.916 48.2444C54.916 57.9194 63.0766 65.8702 73.3494 66.4449V65.966C69.2211 65.6786 66.0529 62.0385 66.0529 57.9194V38.5694C66.0529 34.4504 69.3171 30.8103 73.3494 30.5229V30.0439C62.9806 30.6187 54.916 38.5694 54.916 48.2444Z" fill="white"/>
<path d="M139.978 57.1533C140.074 56.9617 140.074 56.8659 140.17 56.6743H139.69C139.594 56.8659 139.594 56.9617 139.498 57.1533C137.482 61.8471 132.97 65.6788 129.417 65.6788H129.225L129.033 66.1577H142.666L142.858 65.6788H142.666C139.114 65.6788 137.962 61.9429 139.978 57.1533Z" fill="white"/>
<path d="M177.997 65.6785C174.061 65.9659 170.22 63.3795 168.108 59.5478L152.747 28.0322L147.562 39.6231L159.563 66.2532H178.093L177.997 65.6785Z" fill="white"/>
<path d="M101.672 29.9482H95.3359V30.4272H95.5279C98.8882 30.4272 101.672 34.0673 101.672 38.6653C101.672 38.7611 101.672 38.9527 101.672 39.0485H101.768V57.0574C101.768 57.1532 101.768 57.3448 101.768 57.4406C101.768 61.9428 98.9842 65.6787 95.624 65.6787H95.4319V66.1576H101.768H108.489H112.233V29.9482H108.489H101.672Z" fill="white"/>
<path d="M135.754 48.1487C135.754 38.4737 127.593 30.523 117.32 29.9482V30.523C121.449 30.8104 124.713 34.3547 124.713 38.4737V57.8237C124.713 61.9428 121.449 65.4871 117.32 65.7745V66.3492C127.593 65.7745 135.754 57.8237 135.754 48.1487Z" fill="white"/>
<path d="M0.672051 24.6798H2.01615C2.5922 24.6798 2.6882 24.584 2.6882 24.1051V16.9207H6.72051C13.249 16.9207 17.2813 14.2385 17.2813 8.49096C17.2813 2.55185 13.249 0.348633 6.04846 0.348633H0.672051C0.192015 0.348633 0 0.444425 0 0.923385V24.0093C0 24.584 0.192015 24.6798 0.672051 24.6798ZM2.6882 2.55185H6.43249C11.9049 2.55185 14.5931 4.08452 14.5931 8.49096C14.5931 12.7058 11.9049 14.7174 6.72051 14.7174H2.6882V2.55185Z" fill="white"/>
<path d="M30.9143 24.6796C34.1785 24.6796 36.4827 23.9133 37.5388 23.5301C38.1148 23.2427 38.4028 23.0512 38.4028 22.7638V21.3269C38.4028 21.0395 38.3068 21.0395 38.1148 21.0395C37.8268 21.0395 37.6348 21.2311 36.5787 21.6143C35.2346 22.0932 33.4104 22.4764 31.1063 22.4764C26.4979 22.4764 23.8097 20.8479 23.5217 16.0583C25.4418 16.7289 27.746 17.1121 30.0502 17.1121C35.2346 17.1121 38.3068 15.1962 38.3068 10.9814C38.3068 7.05389 35.6186 4.75488 30.1462 4.75488C24.0977 4.75488 20.9295 8.77815 20.9295 15.0046C20.8335 21.7101 24.6738 24.6796 30.9143 24.6796ZM30.1462 6.9581C33.7945 6.9581 35.7146 8.1076 35.7146 10.8856C35.7146 13.5678 33.8905 14.9088 29.7622 14.9088C27.842 14.9088 25.4418 14.6215 23.4257 13.9509C23.8097 9.3529 26.1139 6.9581 30.1462 6.9581Z" fill="white"/>
<path d="M55.2037 7.34118V5.80851C55.2037 5.52113 55.2037 5.32955 54.7237 5.13796C54.2437 4.94638 53.6676 4.85059 52.6115 4.85059C48.0992 4.85059 46.4671 8.39489 45.891 10.2149V6.00009C45.891 5.52113 45.699 5.42534 45.219 5.42534H43.9709C43.3948 5.42534 43.2988 5.52113 43.2988 6.00009V24.009C43.2988 24.488 43.4908 24.5837 43.9709 24.5837H45.219C45.699 24.5837 45.891 24.488 45.891 24.009V15.8667C45.891 12.6097 47.8112 7.24539 52.6115 7.24539C53.3796 7.24539 54.0516 7.34118 54.7237 7.53276C55.0117 7.72435 55.2037 7.62856 55.2037 7.34118Z" fill="white"/>
<path d="M74.7894 20.8481C74.7894 20.4649 74.7894 20.1775 74.7894 19.7944V5.71294C74.7894 5.23398 74.5974 5.13818 74.1173 5.13818H72.8692C72.3892 5.13818 72.1972 5.32977 72.1972 5.71294V15.6753C72.1972 19.986 69.989 22.4765 65.7647 22.4765C62.4044 22.4765 61.2524 20.5607 61.2524 18.0701V5.71294C61.2524 5.23398 61.0603 5.13818 60.5803 5.13818H59.3322C58.7562 5.13818 58.6602 5.32977 58.6602 5.71294V18.0701C58.6602 22.9555 60.8683 24.6798 65.1887 24.6798C68.4529 24.6798 70.6611 23.9134 72.1972 21.6144L72.4852 23.7218C72.5812 24.2008 72.6772 24.2966 73.0613 24.2966H74.5014C74.9814 24.2966 75.0774 24.105 74.9814 23.7218L74.7894 20.8481Z" fill="white"/>
<path d="M64.1326 4.46761C64.3246 4.75499 64.5166 4.75499 64.9006 4.65919L71.3331 2.26439C71.8131 2.07281 71.8131 1.97702 71.6211 1.40226L71.1411 0.348552C70.9491 -0.130408 70.661 -0.0346164 70.277 0.156968L64.0365 3.12652C63.7485 3.31811 63.7485 3.50969 63.8445 3.79707L64.1326 4.46761Z" fill="white"/>
<path d="M363.335 95.5821L366.961 88.2C368.134 85.8165 369.688 81.6624 369.688 81.6624H369.797C369.797 81.6624 369.906 85.8029 370.11 88.2L370.86 95.5821H363.335ZM376.477 73H365.734L345.871 110.986H355.85L359.695 103.019H371.596L372.401 110.986H381.739L376.477 73Z" fill="white"/>
<path d="M422.298 88.0366C422.298 78.5161 415.672 73 404.616 73H392.387L385.08 110.619L385.012 110.986H399.913C412.387 110.986 421.262 101.82 422.202 90.0932L422.121 90.134L422.202 90.0932C422.257 89.4122 422.298 88.7312 422.298 88.0366ZM399.749 103.019H398.822H397.513H395.904L400.226 80.9677H404.084C409.428 80.9677 412.687 83.6781 412.687 88.881C412.687 91.5505 412.073 94.0566 410.969 96.195C408.828 100.186 404.834 103.019 399.749 103.019Z" fill="white"/>
<path d="M437.839 80.9677H438.698H439.353H452.413L453.967 73H453.708H453.108H430.096L427.287 87.2875L422.611 110.986H447.287L448.841 103.019H433.518L434.908 95.8545H446.483L448.091 87.8731H436.503L437.539 82.4796L437.839 80.9677Z" fill="white"/>
<path d="M490.872 73H479.979C479.979 73 473.244 82.4115 471.799 84.5498L471.785 84.5226L467.096 73.7082L466.796 73H456.639L464.601 91.8638L449.332 111H459.843L465.664 103.196C467.477 100.799 468.814 98.524 468.814 98.524H468.923C468.923 98.524 469.509 100.812 470.422 103.196L473.408 111H483.264L475.221 92.4495L490.872 73Z" fill="white"/>
<path fill-rule="evenodd" clip-rule="evenodd" d="M325 111L345.95 73.4897H348.244L327.294 111H325Z" fill="white"/>
</svg>
